<?xml version="1.0" encoding="utf-8"?>
<!-- Generator: Adobe Illustrator 23.0.6, SVG Export Plug-In . SVG Version: 6.00 Build 0)  -->
<svg version="1.1" xmlns="http://www.w3.org/2000/svg" xmlns:xlink="http://www.w3.org/1999/xlink" x="0px" y="0px"
	 viewBox="0 0 500 500" style="enable-background:new 0 0 500 500;" xml:space="preserve">
<style type="text/css">
	.st0{fill:#FFFFFF;}
	.st1{fill:#CDCCCC;}
	.st2{fill:#7F5434;}
	.st3{fill:#684326;}
	.st4{fill:#305473;}
	.st5{fill:#FCC384;}
	.st6{fill:#64A1D7;}
	.st7{fill:#588DBC;}
	.st8{fill:#966640;}
	.st9{fill:#FDD3A4;}
	.st10{fill:#7A574C;}
	.st11{fill:#66483E;}
	.st12{fill:#8D665A;}
	.st13{fill:#21415B;}
	.st14{fill:#503024;}
	.st15{fill:#E88D59;}
	.st16{fill:#D4E4EC;}
	.st17{fill:#F37A63;}
	.st18{fill:#FFF08A;}
	.st19{fill:#FFDF5D;}
	.st20{fill:#E57426;}
	.st21{fill:#FAAF49;}
	.st22{fill:#F58835;}
	.st23{fill:#FFCA4B;}
	.st24{fill:#F0614E;}
	.st25{fill:#BA8726;}
	.st26{fill:#926F51;}
	.st27{fill:#7D5F45;}
	.st28{fill:#FFD57E;}
	.st29{fill:#664C36;}
	.st30{fill:#FCB536;}
	.st31{fill:#C4BCB9;}
	.st32{fill:#ADA7A5;}
	.st33{fill:#DFD8D5;}
	.st34{fill:#A47D5C;}
	.st35{fill:#533D29;}
	.st36{fill:#A3771F;}
	.st37{fill:#B5B37E;}
	.st38{fill:#99996C;}
	.st39{fill:#58775C;}
	.st40{fill:#7EA480;}
	.st41{fill:#F1C77C;}
	.st42{fill:#EEAB63;}
	.st43{fill:#A5A09E;}
	.st44{fill:#719473;}
	.st45{fill:#435E48;}
	.st46{fill:#A3C294;}
	.st47{fill:#48644C;}
	.st48{fill:#493129;}
	.st49{fill:#F38693;}
	.st50{fill:#F06876;}
	.st51{fill:#5283A8;}
	.st52{fill:#6EAEDF;}
	.st53{fill:#EF5340;}
	.st54{fill:#F7A588;}
	.st55{fill:#5B98C7;}
	.st56{fill:#436E8D;}
	.st57{fill:#F05C58;}
	.st58{fill:#80876F;}
	.st59{fill:#91987E;}
	.st60{fill:#616955;}
	.st61{fill:#AA8A64;}
	.st62{fill:#8F7554;}
	.st63{fill:#D13C3A;}
</style>
<g id="BACKGROUND">
	<path class="st0" d="M261.69,73.57c-185.43,0-188.97,127.56-193.7,203.14c-4.72,75.59,29.53,155.9,183.07,155.9
		s179.52-63.78,179.52-150S406.96,73.57,261.69,73.57z"/>
</g>
<g id="OBJECTS">
	<ellipse class="st1" cx="212.33" cy="460.67" rx="38.67" ry="11.33"/>
	<ellipse class="st1" cx="294.33" cy="460.67" rx="38.67" ry="11.33"/>
	<ellipse class="st1" cx="107.67" cy="450.33" rx="64.67" ry="14.33"/>
	<ellipse class="st1" cx="385.33" cy="447" rx="41" ry="13"/>
	<ellipse class="st1" cx="304.33" cy="429" rx="60" ry="17.67"/>
	<ellipse class="st1" cx="205.59" cy="429.19" rx="49.92" ry="18.81"/>
	<g>
		<path class="st2" d="M273.29,418.3c-6.39,0.34-12.59,3.42-16.73,8.3c-1.26,1.49-2.39,3.38-1.95,5.28c0.61,2.63,3.74,3.69,6.4,4.12
			c9.14,1.46,18.62,0.81,27.48-1.91c2.07-0.63,4.33-1.59,5.11-3.61c0.46-1.2,0.29-2.54,0.29-3.82c0-1.57,0.27-3.15-0.04-4.69
			c-0.6-3.03-3.36-5.27-6.32-6.17c-2.96-0.9-6.13-0.7-9.21-0.5"/>
		<path class="st2" d="M339.84,418.61c6.39,0.34,12.59,3.42,16.73,8.3c1.26,1.49,2.39,3.38,1.95,5.28c-0.61,2.63-3.74,3.69-6.4,4.12
			c-9.14,1.46-18.62,0.81-27.48-1.91c-2.07-0.63-4.33-1.59-5.11-3.61c-0.46-1.2-0.29-2.54-0.29-3.82c0-1.57-0.27-3.15,0.04-4.69
			c0.6-3.03,3.36-5.27,6.32-6.17c2.96-0.9,6.13-0.7,9.21-0.5"/>
		<path class="st3" d="M288.49,434.09c2.07-0.63,4.33-1.59,5.11-3.61c0.46-1.2,0.29-2.54,0.29-3.82c0-1.57,0.27-3.15-0.04-4.69
			c-0.6-3.03-3.36-5.27-6.32-6.17c-0.06-0.02-0.12-0.03-0.18-0.05c-2.16,1.83-2.59,5.3-4.01,7.91c-1.69,3.12-4.98,5.11-8.41,6.03
			c-3.43,0.92-7.03,0.89-10.57,0.86c-1.95-0.02-3.99-0.06-5.69-1c-1.06-0.59-1.93-1.65-2.24-2.8c-1.21,1.46-2.25,3.29-1.82,5.12
			c0.61,2.63,3.74,3.69,6.4,4.12C270.16,437.46,279.64,436.8,288.49,434.09z"/>
		<path class="st3" d="M358.52,432.19c0.11-0.47,0.12-0.94,0.06-1.41c-7.48,2.83-16.03,2.82-23.45-0.19
			c-2.68-1.09-5.32-2.66-6.75-5.16s-1.22-6.13,1.11-7.84l-2.19-1.88c-0.57,0.1-1.14,0.22-1.7,0.39c-2.96,0.9-5.72,3.14-6.32,6.17
			c-0.3,1.54-0.04,3.12-0.04,4.69c0,1.29-0.17,2.62,0.29,3.82c0.78,2.02,3.04,2.98,5.11,3.61c8.85,2.71,18.33,3.37,27.48,1.91
			C354.78,435.88,357.91,434.82,358.52,432.19z"/>
		<path class="st4" d="M261.43,311.84c0,0,1.56,54,3.12,62.12c1.56,8.12,3.12,38.39,4.99,42.76c1.87,4.37,21.23,3.75,23.72,3.12
			c2.5-0.62-2.18-49.32-1.25-54c0.94-4.68,2.5-32.15,3.12-34.34s6.24-3.12,8.43-2.18c2.18,0.94,5.62,31.21,7.49,36.83
			c1.87,5.62,6.56,48.7,7.18,51.82c0.62,3.12,19.67,0.31,23.72-0.62c4.06-0.94,0-49.32,0.31-53.38c0.31-4.06-3.12-53.38-7.18-61.18
			c-4.06-7.8-37.46-4.68-37.46-4.68L261.43,311.84z"/>
		<polygon class="st5" points="274.39,169.7 272.35,192.59 299.51,201.33 330.41,191.03 323.43,169.7 313.87,162.63 		"/>
		<path class="st6" d="M277.66,175.74c0,0,5.65,12.79,19.35,13.73c18.1,1.25,25.28-14.36,25.28-14.36l6.24,118.62l-4.06,12.8
			c0,0-33.4,11.55-51.5,0c-18.1-11.55,2.5-89.9,2.5-89.9L277.66,175.74z"/>
		<path class="st7" d="M323.27,193.54l-0.97-18.43c0,0-7.18,15.61-25.28,14.36c-13.71-0.95-19.35-13.73-19.35-13.73l-0.7,13.18
			c4.77,3.26,10.01,5.8,15.58,7.33C302.68,199.04,313.9,198.32,323.27,193.54z"/>
		<path class="st6" d="M334.25,224.82c-2.86-6.42-2.03-13.8-1.14-20.78c0.87-6.89,2.15-14.52,7.65-18.75
			c14.67,14.79,26.86,32.02,35.92,50.78c2.26,4.68,4.36,9.62,4.39,14.81c0.05,11.16-9.36,20.51-10.11,31.65
			c-6.3-17.06-15.91-32.9-28.14-46.37C339.62,232.63,336.18,229.17,334.25,224.82z"/>
		<path class="st7" d="M342.82,236.16c12.22,13.47,21.83,29.31,28.14,46.37c0.33-4.99,2.41-9.62,4.59-14.22
			c-4.09-18.32-13.76-35.37-27.49-48.18L335,226.34C337,229.99,340,233.05,342.82,236.16z"/>
		<path class="st6" d="M264.25,225.57c2.86-6.42,2.03-13.8,1.14-20.78c-0.87-6.89-2.15-14.52-7.65-18.75
			c-14.67,14.79-26.86,32.02-35.92,50.78c-2.26,4.68-4.36,9.62-4.39,14.81c-0.05,11.16,9.36,20.51,10.11,31.65
			c6.3-17.06,15.91-32.9,28.14-46.37C258.88,233.38,262.32,229.92,264.25,225.57z"/>
		<path class="st7" d="M227.54,283.28c6.3-17.06,15.91-32.9,28.14-46.37c2.29-2.52,4.69-5.01,6.58-7.81l-7.06-10.71
			c-15.92,11.23-28.05,27.65-34.41,46.05C223.56,270.59,227.1,276.61,227.54,283.28z"/>
		<path class="st8" d="M251,192.82c1.68-3.39,4.48-6.06,7.25-8.64c5.29-4.92,10.67-9.75,16.14-14.48c2.6,4,3.93,8.67,5.22,13.26
			c3.25,11.54,6.51,23.14,7.78,35.06c1.06,10,0.7,20.09,0.34,30.14c-0.57,15.85-1.14,31.69-1.71,47.54
			c-0.2,5.59-0.76,11.92-5.17,15.36c-2.42,1.89-5.56,2.51-8.57,3.08c-4.21,0.79-7.74,0.51-11.8-1.05
			c-4.88-19.53-5.67-36.5-8.81-56.38c-1.3-8.24-3.14-16.39-4.05-24.68c-1.15-10.54-0.76-21.24,1.15-31.67
			C249.26,197.77,249.83,195.18,251,192.82z"/>
		<path class="st8" d="M346.82,192.82c-1.68-3.39-4.48-6.06-7.25-8.64c-5.29-4.92-10.67-9.75-16.14-14.48
			c-2.6,4-3.93,8.67-5.22,13.26c-3.25,11.54-6.51,23.14-7.78,35.06c-1.06,10-0.7,20.09-0.34,30.14c0.57,15.85,1.14,31.69,1.71,47.54
			c0.2,5.59,0.76,11.92,5.17,15.36c2.42,1.89,5.53,3.49,8.57,3.08c7.69-1.05,7.38-1.05,12.64-2.61c4.88-19.53,4.84-34.94,7.97-54.82
			c1.3-8.24,3.14-16.39,4.05-24.68c1.15-10.54,0.76-21.24-1.15-31.67C348.57,197.77,347.99,195.18,346.82,192.82z"/>
		<path class="st5" d="M248.74,111.26c-2.95,3.69-4.44,8.51-4.1,13.22c0.35,4.71,2.54,9.26,6,12.48c0.86,0.8,1.81,1.52,2.91,1.93
			c3.15,1.15,6.78-0.73,8.65-3.52c1.87-2.79,2.38-6.25,2.72-9.59c0.49-4.87,0.67-10.02-1.46-14.43c-2.13-4.41-7.28-7.73-11.94-6.21"
			/>
		<path class="st5" d="M352.55,111.26c2.95,3.69,4.45,8.51,4.1,13.22c-0.35,4.71-2.54,9.26-6,12.48c-0.86,0.8-1.81,1.52-2.91,1.93
			c-3.15,1.15-6.78-0.73-8.65-3.52c-1.87-2.79-2.38-6.25-2.72-9.59c-0.49-4.87-0.67-10.02,1.46-14.43
			c2.13-4.41,7.28-7.73,11.94-6.21"/>
		<path class="st9" d="M254.81,109.88c0.24,8.78-1.69,17.23-0.62,26.17c1.08,9.04,3.54,18.18,8.43,25.94
			c13.31,21.08,43.81,22.28,63.87,11.05c2.41-1.35,4.72-2.9,6.71-4.82c3.68-3.56,6.09-8.24,7.91-13.04
			c5.24-13.82,5.96-28.9,6.25-43.68c0.14-7.18,0.19-14.41-1.03-21.49c-1.22-7.08-3.79-14.06-8.37-19.59
			c-7.73-9.32-20.47-13.44-32.56-12.98c-11.78,0.45-23.22,4.8-33.07,11.28c-3.6,2.37-7.03,5.04-9.83,8.32
			c-2.4,2.8-4.29,6.01-5.85,9.35c-2.87,6.12-4.65,12.73-5.47,19.44C251.16,105.2,254.83,110.5,254.81,109.88z"/>
		<path class="st5" d="M337.96,70.42c-7.73-9.32-20.47-13.44-32.56-12.98c-11.78,0.45-23.22,4.8-33.07,11.28
			c-3.6,2.37-7.03,5.04-9.83,8.32c-2.4,2.8-4.29,6.01-5.85,9.35c-2.87,6.12-4.65,12.73-5.47,19.44c-0.02-0.63,3.65,4.68,3.64,4.05
			c0.06,2.24-0.02,4.45-0.15,6.66c0.86,0,1.72-0.1,2.57-0.33c4.12-1.16,6.96-5.02,8.44-9.04c1.48-4.02,1.93-8.34,3.13-12.45
			c0.54-1.83,1.32-3.74,2.91-4.81c2.05-1.38,4.77-0.93,7.21-0.5c18.84,3.31,38.42,2.35,56.85-2.79c-0.65,7.65-0.36,15.39,0.88,22.97
			c0.5,3.03,1.22,6.21,3.31,8.46c1.79,1.94,4.88,2.86,7.17,1.8c0.11-2.79,0.18-5.57,0.24-8.35c0.14-7.18,0.19-14.41-1.03-21.49
			C345.11,82.93,342.55,75.95,337.96,70.42z"/>
		<path class="st10" d="M342.9,46.04c0.5,1.08,0.87,2.36,1.91,2.96c0.98,0.56,2.21,0.3,3.34,0.25c3.68-0.15,7.11,2.26,9.11,5.35
			c2,3.1,2.82,6.8,3.43,10.43c2.49,14.72,2.2,29.99-1.71,44.39c-0.87,3.21-1.98,6.48-4.23,8.93c-2.25,2.45-5.91,3.89-9,2.65
			c-2.37-0.95-3.97-3.28-4.61-5.75c-0.65-2.47-0.47-5.07-0.16-7.6c0.72-5.88,2.16-11.75,1.69-17.66
			c-0.46-5.91-3.33-12.11-8.77-14.47c-4.39,3.54-10.16,4.73-15.7,5.77c-6.15,1.15-12.34,2.24-18.59,2.31
			c-11.6,0.12-22.91-3.3-34-6.69c-6.18,9.42-2.94,22.14-6.45,32.84c-1.14,3.48-3.71,7.15-7.37,7.13c-3.14-0.02-5.64-2.94-6.36-6
			c-0.72-3.06-0.1-6.25,0.37-9.36c0.75-4.99,1.11-10.03,1.06-15.07c-0.04-4.77-0.59-9.9-3.73-13.49c-2.18-2.5-5.7-4.56-5.57-7.88
			c0.15-3.56,4.35-5.26,7.8-6.1c-2.49-3.89-4.65-7.99-6.43-12.25c-1.11-2.66-2.09-5.43-2.16-8.31c-0.07-2.88,0.89-5.9,3.1-7.75
			c2.66-2.23,6.58-2.33,9.88-1.27c3.3,1.06,6.18,3.1,9.16,4.87c8.9,5.29,19.1,8.37,29.44,8.88c11.87,0.59,23.63-2.15,35.44-3.48
			c3.57-0.4,7.23-0.67,10.72,0.16C338.04,40.66,341.39,42.78,342.9,46.04z"/>
		<path class="st11" d="M349.83,106.71c0.03-6.04,1.08-12.04,1.23-18.08c0.15-6.04-0.69-12.36-4.06-17.37
			c-3.37-5.02-9.76-8.35-15.58-6.71c1.59,1.09,3.18,2.18,4.77,3.26c-14.87,3.24-30.41,3.39-45.35,0.44
			c1.33,2.36,2.66,4.73,3.98,7.09c-11.59-2.87-22.77-7.37-33.11-13.35c-1.4,12.16-4.3,24.15-8.61,35.61
			c-1.06,2.82-2.4,5.83-5.06,7.24c-0.84,0.44-1.83,0.6-2.79,0.52c-0.2,1.86-0.25,3.72,0.17,5.53c0.72,3.06,3.22,5.98,6.36,6
			c3.66,0.03,6.23-3.65,7.37-7.13c3.51-10.7,0.28-23.42,6.45-32.84c11.1,3.39,22.4,6.81,34,6.69c6.25-0.06,12.45-1.16,18.59-2.31
			c5.54-1.04,11.31-2.23,15.7-5.77c5.44,2.36,8.3,8.56,8.77,14.47c0.46,5.91-0.97,11.78-1.69,17.66c-0.31,2.53-0.49,5.13,0.16,7.6
			c0.65,2.47,2.25,4.8,4.61,5.75c2.16,0.87,4.61,0.42,6.65-0.77C350.46,116.1,349.81,111.33,349.83,106.71z"/>
		<path class="st12" d="M277.75,61.5c-7.46-3.1-15.13-6.81-19.76-13.7c-0.88-1.32-3-0.11-2.15,1.25
			c4.88,7.78,12.67,12.14,21.33,14.53C278.55,63.96,278.99,62.02,277.75,61.5z"/>
		<path class="st12" d="M328.17,59.75c-23.53-1.12-46.67-2.88-66.51-16.99c-1.08-0.77-2.47,1.02-1.42,1.84
			c18.77,14.73,44.31,21.13,67.93,18.9C330.55,63.27,330.62,59.86,328.17,59.75z"/>
		<path class="st12" d="M329.5,48.1c-8.79-0.51-17.58-0.66-26.33-1.7c-1.39-0.17-1.71,2.21-0.33,2.44
			c8.84,1.46,17.7,2.48,26.66,1.75C331.09,50.46,331.11,48.2,329.5,48.1z"/>
		<path class="st12" d="M343.32,56.69c-0.96-0.39-1.65,1.26-0.7,1.67c5.75,2.5,9.03,7.12,11.19,12.84c0.4,1.06,1.83,0.64,1.67-0.46
			C354.54,64.24,349.19,59.07,343.32,56.69z"/>
		<path class="st12" d="M356.24,60.9c-1-1.91-2.24-3.67-3.44-5.47c-0.73-1.1-2.53-0.06-1.78,1.04c1.25,1.86,2.46,3.73,3.89,5.45
			C355.55,62.69,356.67,61.71,356.24,60.9z"/>
		<path class="st2" d="M285.2,297.06c-2.66-2.07-6.2-2.67-9.06-4.45c-3.5-2.17-5.8-6.16-5.93-10.27c-1.36,1-2.71,2-4.07,3.01
			c-0.05-11.03-0.9-22.05-2.54-32.95c-0.28-1.87-0.59-3.74-0.89-5.61c-0.81-4.98-1.63-9.96-2.44-14.94
			c-0.56,0.27-1.12,0.55-1.68,0.82c-1.68-12-0.82-24.36,2.51-36.01c-1.68,0.55-3.36,1.11-5.04,1.66c1.1-5.04,2.19-10.08,3.29-15.12
			c-0.36,0.33-0.73,0.66-1.09,0.99c-2.77,2.58-5.57,5.25-7.25,8.64c-1.17,2.35-1.75,4.95-2.22,7.53
			c-1.91,10.43-2.3,21.13-1.15,31.67c0.9,8.29,2.75,16.44,4.05,24.68c3.14,19.88,3.93,36.86,8.81,56.38
			c4.06,1.56,7.59,1.84,11.8,1.05c3.01-0.57,6.15-1.19,8.57-3.08c3.88-3.04,4.78-8.32,5.07-13.35
			C285.7,297.48,285.46,297.26,285.2,297.06z"/>
		<path class="st2" d="M346.82,192.82c-1.13-2.28-2.78-4.24-4.58-6.06c0.18,4.39,0.35,8.79,0.53,13.18
			c-1.45-1.11-2.89-2.23-4.34-3.34c0.05,13.82,0.87,27.64,2.45,41.37c-0.78-0.67-1.56-1.34-2.33-2.01
			c0.87,8.54,0.72,17.19-0.43,25.69c-0.65-0.11-1.31-0.22-1.96-0.33c-0.52,9.63-1.75,19.22-3.67,28.67c-1.44-1-2.89-2-4.33-3
			c-0.24,3.68-1.15,7.32-2.68,10.67c-0.87-1.49-2.7-2.36-4.41-2.11c1.23,1.84-0.54,4.38-2.63,5.08c-1.98,0.67-4.14,0.4-6.2,0.74
			c0.55,3.79,1.78,7.37,4.71,9.67c2.42,1.89,5.53,3.49,8.57,3.08c7.69-1.05,7.38-1.05,12.64-2.61c4.88-19.53,4.84-34.94,7.97-54.82
			c1.3-8.24,3.14-16.39,4.05-24.68c1.15-10.54,0.76-21.24-1.15-31.67C348.57,197.77,347.99,195.18,346.82,192.82z"/>
		<path class="st2" d="M319.08,284.33c-0.01-1.18-1.81-1.18-1.83,0c-0.01,0.97-0.09,1.93,0.15,2.88c0.19,0.76,1.35,0.76,1.54,0
			C319.17,286.26,319.09,285.3,319.08,284.33z"/>
		<path class="st2" d="M323.42,276.75c-0.32-1.13-2.06-0.66-1.76,0.49c0.21,0.83,0.32,2.24,1.17,2.69c0.34,0.18,0.73,0.08,0.93-0.24
			C324.27,278.86,323.66,277.58,323.42,276.75z"/>
		<path class="st2" d="M331.26,272.12c-0.26-1.03-1.81-0.59-1.58,0.44c0.09,0.42,0.06,0.84-0.12,1.23
			c-0.26,0.56,0.04,1.29,0.73,1.27c0.27-0.01,0.61-0.15,0.73-0.42C331.38,273.82,331.48,273,331.26,272.12z"/>
		<path class="st2" d="M320.18,260.33c0.05,0.85,0.12,1.69,0.26,2.53c0.12,0.72,1.33,0.72,1.45,0c0.14-0.84,0.21-1.68,0.26-2.53
			C322.23,259.06,320.1,259.06,320.18,260.33z"/>
		<path class="st2" d="M329.3,259.05c-0.09-0.32-0.21-0.63-0.32-0.94c-0.37-1.04-2.05-0.59-1.67,0.46c0.12,0.32,0.22,0.64,0.36,0.96
			c0.13,0.3,0.35,0.55,0.54,0.82c0.34,0.46,1.22,0.37,1.18-0.32C329.36,259.72,329.39,259.35,329.3,259.05z"/>
		<path class="st2" d="M321.35,248c0,0.75,0.03,1.44,0.16,2.18c0.12,0.65,1.19,0.65,1.31,0c0.14-0.74,0.16-1.43,0.16-2.18
			C322.99,246.94,321.35,246.94,321.35,248z"/>
		<path class="st2" d="M332.55,242.47c-0.28-0.8-1.66-0.73-1.57,0.21c0.02,0.19,0.02,0.42,0.07,0.61c0.07,0.24,0.25,0.47,0.37,0.68
			c0.36,0.6,1.16,0.29,1.22-0.33C332.69,243.19,332.7,242.89,332.55,242.47z"/>
		<path class="st2" d="M322.58,236.17c-0.1,0.51-0.19,1-0.22,1.51c-0.03,0.52,0.78,0.76,1,0.27c0.22-0.47,0.38-0.93,0.53-1.42
			C324.15,235.69,322.75,235.32,322.58,236.17z"/>
		<path class="st2" d="M314.87,228.33c0,0.66,0.02,1.24,0.19,1.88c0.21,0.76,1.33,0.76,1.54,0c0.18-0.64,0.19-1.22,0.19-1.88
			C316.79,227.09,314.87,227.09,314.87,228.33z"/>
		<path class="st2" d="M329.17,226.49c-0.08-0.42-0.26-0.82-0.15-1.26c0.27-1.09-1.4-1.55-1.67-0.46c-0.24,0.95-0.09,1.96,0.76,2.54
			C328.68,227.71,329.29,227.06,329.17,226.49z"/>
		<path class="st2" d="M321.96,220c-0.06,0.56-0.11,1.11-0.17,1.67c-0.04,0.44,0.62,0.49,0.74,0.1c0.16-0.54,0.33-1.08,0.49-1.62
			C323.24,219.41,322.04,219.2,321.96,220z"/>
		<path class="st2" d="M328.46,210.51c-0.57-0.16-1.06,0.28-1.1,0.84c-0.03,0.44-0.05,0.89-0.08,1.33
			c-0.04,0.59,0.88,0.86,1.14,0.31c0.19-0.4,0.37-0.8,0.56-1.2C329.22,211.29,329.04,210.67,328.46,210.51z"/>
		<path class="st2" d="M322.08,211.85c-0.2-0.84-0.59-1.65-0.7-2.52c-0.06-0.47-0.35-0.87-0.87-0.87c-0.43,0-0.93,0.4-0.87,0.87
			c0.15,1.14,0.46,2.36,1.38,3.13C321.5,212.86,322.24,212.5,322.08,211.85z"/>
		<path class="st2" d="M333.42,206.5c-0.13-0.7-1.31-0.54-1.24,0.17c0.05,0.54,0.03,1.12,0.33,1.59c0.27,0.41,0.88,0.34,1.03-0.13
			C333.7,207.59,333.52,207.04,333.42,206.5z"/>
		<path class="st2" d="M330.7,197.28c-0.43-0.12-0.77,0.14-0.92,0.52c-0.23,0.57-0.43,1.1-0.55,1.7c-0.14,0.7,0.77,1.11,1.16,0.49
			c0.36-0.57,0.59-1.16,0.84-1.79C331.38,197.82,331.06,197.38,330.7,197.28z"/>
		<path class="st2" d="M329.17,185.83c-0.58,0-1.26,0.54-1.17,1.17c0.07,0.53,0.17,0.97,0.38,1.46c0.26,0.6,1.32,0.6,1.58,0
			c0.21-0.49,0.31-0.93,0.38-1.46C330.42,186.37,329.74,185.83,329.17,185.83z"/>
		<path class="st2" d="M336.17,187.82c-0.11-0.76-1.37-0.58-1.34,0.18c0.03,0.57,0,1.12,0.28,1.63c0.27,0.48,0.96,0.34,1.11-0.15
			C336.41,188.94,336.25,188.37,336.17,187.82z"/>
		<path class="st2" d="M323.01,193c0.07,0.56,0.14,1.11,0.21,1.67c0.1,0.78,1.12,0.78,1.22,0c0.07-0.56,0.14-1.11,0.21-1.67
			C324.79,191.94,322.88,191.94,323.01,193z"/>
		<path class="st2" d="M265.77,187.67c0.04,0.33,0.08,0.67,0.12,1c0.09,0.78,1.13,0.78,1.22,0c0.04-0.33,0.08-0.67,0.12-1
			C267.34,186.73,265.66,186.73,265.77,187.67z"/>
		<path class="st2" d="M272.56,186.67c0,1.23,0.12,2.44,0.23,3.67c0.09,0.91,1.32,0.91,1.41,0c0.12-1.23,0.23-2.43,0.23-3.67
			C274.44,185.46,272.56,185.46,272.56,186.67z"/>
		<path class="st2" d="M268.01,202.25c-0.54-0.09-1-0.72-0.79-1.25c0.16-0.43-0.18-0.92-0.59-1.04c-0.49-0.13-0.86,0.16-1.04,0.59
			c-0.3,0.71-0.12,1.56,0.33,2.17c0.48,0.65,1.32,0.89,2.09,0.7C268.57,203.28,268.62,202.35,268.01,202.25z"/>
		<path class="st2" d="M275.07,201.67c-0.06-0.51-0.38-0.94-0.94-0.94c-0.47,0-0.99,0.43-0.94,0.94c0.13,1.2,0.23,2.37,0.56,3.54
			c0.24,0.88,1.53,0.68,1.57-0.21C275.36,203.87,275.21,202.79,275.07,201.67z"/>
		<path class="st2" d="M269.92,212.33c0.02,0.86,0.02,1.69,0.21,2.53c0.16,0.7,1.24,0.7,1.4,0c0.19-0.84,0.19-1.67,0.21-2.53
			C271.78,211.15,269.89,211.15,269.92,212.33z"/>
		<path class="st2" d="M265.81,221.82c-0.49-0.76-1.09-1.44-1.66-2.15c-0.4-0.49-1.11,0.21-0.7,0.7c0.56,0.66,1.1,1.34,1.73,1.93
			C265.51,222.61,266.07,222.21,265.81,221.82z"/>
		<path class="st2" d="M282.74,222.42c-0.3-1.23-2.19-0.71-1.9,0.52c0.21,0.88,0.13,1.89-0.29,2.7c-0.37,0.72,0.61,1.59,1.18,0.91
			C282.74,225.34,283.11,223.96,282.74,222.42z"/>
		<path class="st2" d="M273.39,232c-0.07,0.67-0.14,1.33-0.22,2c-0.08,0.74,1.13,0.89,1.29,0.17c0.15-0.66,0.3-1.31,0.45-1.97
			C275.16,231.11,273.52,230.87,273.39,232z"/>
		<path class="st2" d="M269.82,245.15c-0.18-0.83-0.53-1.59-0.84-2.38c-0.45-1.13-2.05-0.46-1.54,0.65
			c0.35,0.77,0.67,1.55,1.14,2.25C269.01,246.32,269.99,245.92,269.82,245.15z"/>
		<path class="st2" d="M278.39,243.67c0.01,1.12,0.01,2.22,0.14,3.33c0.09,0.81,1.17,0.81,1.27,0c0.13-1.11,0.13-2.21,0.14-3.33
			C279.95,242.67,278.38,242.67,278.39,243.67z"/>
		<path class="st2" d="M274.76,260.01c-0.09-1.46-2.31-1.1-1.93,0.26c0.18,0.65,0.36,1.3,0.54,1.94c0.23,0.82,1.57,0.68,1.52-0.21
			C274.84,261.34,274.8,260.68,274.76,260.01z"/>
		<path class="st2" d="M272.49,270.49c-0.15-0.8-0.31-1.59-0.46-2.39c-0.22-1.14-2.13-0.6-1.72,0.47c0.29,0.76,0.58,1.52,0.87,2.28
			C271.49,271.66,272.66,271.35,272.49,270.49z"/>
		<path class="st2" d="M280.77,275.98c-0.46-0.85-1.76-0.09-1.3,0.76c0.43,0.79,0.64,1.72,0.57,2.61c-0.05,0.63,0.88,0.7,1.06,0.14
			C281.48,278.27,281.38,277.11,280.77,275.98z"/>
		<path class="st2" d="M278.09,286.5c-0.14-0.59-0.33-1.13-0.55-1.7c-0.15-0.37-0.48-0.62-0.89-0.51c-0.35,0.1-0.65,0.53-0.51,0.89
			c0.25,0.62,0.5,1.2,0.84,1.78C277.33,287.58,278.24,287.17,278.09,286.5z"/>
		<path class="st2" d="M281.94,287.88c-0.51-1.03-2.05-0.13-1.54,0.9c0.3,0.6,0.59,1.26,1.27,1.49c0.34,0.12,0.68-0.13,0.78-0.44
			C282.66,289.16,282.23,288.47,281.94,287.88z"/>
		<path class="st8" d="M253.75,202.52c-0.22-0.29-0.69-0.13-0.6,0.25c0.13,0.56,0.03,1.2-0.16,1.74c-0.19,0.53,0.57,0.78,0.86,0.36
			C254.36,204.12,254.3,203.23,253.75,202.52z"/>
		<path class="st8" d="M249.15,216.67c0.05,0.44,0.09,0.89,0.14,1.33c0.07,0.69,1,0.69,1.08,0c0.05-0.44,0.09-0.89,0.14-1.33
			C250.61,215.79,249.06,215.79,249.15,216.67z"/>
		<path class="st8" d="M253.85,226.47c-0.18-0.98-1.67-0.56-1.49,0.41c0.25,1.35,0.26,2.75,0.24,4.13
			c-0.01,0.71,1.08,0.87,1.24,0.17C254.22,229.59,254.15,228.07,253.85,226.47z"/>
		<path class="st8" d="M256.31,246.52c-0.57-0.67-1.53,0.3-0.96,0.96c0.55,0.65,0.82,1.5,0.96,2.33c0.12,0.68,1.04,0.43,1.1-0.15
			C257.55,248.48,257.07,247.42,256.31,246.52z"/>
		<path class="st8" d="M256.98,259.71c-0.39-0.92-0.78-1.84-1.17-2.76c-0.39-0.92-1.91-0.11-1.38,0.8c0.5,0.86,0.99,1.72,1.49,2.57
			C256.34,261.03,257.28,260.41,256.98,259.71z"/>
		<path class="st8" d="M260.46,266.66c-0.17-1.32-2.04-1.06-1.8,0.24c0.23,1.22,0.47,2.42,0.8,3.62c0.21,0.75,1.42,0.62,1.38-0.19
			C260.78,269.1,260.63,267.89,260.46,266.66z"/>
		<path class="st8" d="M263.12,288.5c-0.44-1.45-1.08-2.79-1.69-4.17c-0.31-0.7-1.52-0.19-1.24,0.52c0.55,1.41,1.06,2.81,1.78,4.14
			C262.3,289.62,263.33,289.18,263.12,288.5z"/>
		<path class="st8" d="M269.38,292.09c-0.33-1.24-2.33-0.66-1.9,0.52c0.32,0.88,0.39,1.8,0.32,2.73c-0.07,0.91,1.18,0.92,1.47,0.2
			C269.73,294.42,269.7,293.25,269.38,292.09z"/>
		<path class="st8" d="M268.77,304.31c-0.18-0.25-0.36-0.49-0.55-0.74c-0.81-1.1-2.25,0.34-1.15,1.15c0.25,0.18,0.49,0.36,0.74,0.55
			C268.37,305.69,269.19,304.87,268.77,304.31z"/>
		<path class="st8" d="M275.97,302.24c0.07,0.43,0.14,0.85,0.2,1.28c0.1,0.65,1.21,0.65,1.31,0c0.07-0.43,0.14-0.85,0.2-1.28
			C277.92,300.8,275.75,300.8,275.97,302.24z"/>
		<path class="st8" d="M322.81,309.17c-0.32-1.47-1-2.82-2.47-3.4c-0.76-0.3-1.31,1-0.56,1.33c1.01,0.44,1.4,1.64,1.83,2.58
			C321.94,310.39,322.96,309.87,322.81,309.17z"/>
		<path class="st8" d="M332.64,306.06c-0.17-0.36-0.34-0.73-0.52-1.09c-0.44-0.93-1.94,0.04-1.18,0.91c0.26,0.3,0.52,0.59,0.78,0.89
			C332.19,307.3,332.91,306.62,332.64,306.06z"/>
		<path class="st8" d="M333.51,297.42c-0.41-0.29-0.75-0.72-0.95-1.17c-0.18-0.41-0.77-0.5-1.12-0.29
			c-0.42,0.25-0.47,0.71-0.29,1.12c0.36,0.82,0.98,1.37,1.85,1.59C333.76,298.86,334.12,297.85,333.51,297.42z"/>
		<path class="st8" d="M339.17,289.56c-0.68,0-1.02,0.84-0.55,1.32c0.06,0.06,0.11,0.11,0.17,0.17c0.21,0.21,0.56,0.21,0.76,0
			c0.06-0.06,0.11-0.11,0.17-0.17C340.19,290.4,339.84,289.56,339.17,289.56z"/>
		<path class="st8" d="M339.42,273c0.02,0.5,0,1.01,0.18,1.49c0.22,0.56,0.91,0.56,1.13,0c0.19-0.48,0.16-0.99,0.18-1.49
			C340.96,272.03,339.37,272.03,339.42,273z"/>
		<path class="st8" d="M343.56,260.85c-0.12-0.55-0.81-0.79-1.27-0.52c-0.18,0.1-0.28,0.25-0.34,0.41c-0.28,0.1-0.48,0.37-0.41,0.77
			c0.1,0.54,0.71,0.83,1.22,0.68C343.38,262,343.7,261.48,343.56,260.85z"/>
		<path class="st8" d="M342.5,245.42c-0.74,0-1.07,0.76-0.79,1.38l0.12,0.26c0.23,0.51,1.1,0.51,1.34,0l0.12-0.26
			C343.57,246.18,343.24,245.42,342.5,245.42z"/>
		<path class="st8" d="M347.42,235.99c-0.06-0.58-0.54-1.05-1.16-0.88c-0.43,0.12-0.72,0.58-0.66,1.01c-0.24,0.5,0.1,1.1,0.65,1.19
			C347.04,237.42,347.49,236.71,347.42,235.99z"/>
		<path class="st8" d="M342.98,228.14c0.05,0.32,0.09,0.64,0.14,0.96c0.05,0.38,0.71,0.38,0.77,0c0.05-0.32,0.09-0.64,0.14-0.96
			C344.14,227.27,342.86,227.27,342.98,228.14z"/>
		<path class="st8" d="M347.59,215.88c-0.09-0.64-1.16-0.39-0.99,0.27c0.14,0.55,0.27,1.1,0.41,1.64c0.14,0.54,0.88,0.3,0.81-0.22
			C347.75,217.01,347.67,216.44,347.59,215.88z"/>
		<path class="st8" d="M344.89,210.33c-0.03-0.94-1.42-0.94-1.45,0c-0.02,0.73-0.12,1.47,0.12,2.17c0.2,0.6,1.02,0.6,1.22,0
			C345.01,211.8,344.92,211.07,344.89,210.33z"/>
		<path class="st8" d="M346.32,202.33c0,0.86,0.04,1.67,0.17,2.52c0.1,0.67,1.26,0.67,1.36,0c0.13-0.85,0.17-1.66,0.17-2.52
			C348.01,201.25,346.32,201.25,346.32,202.33z"/>
		<path class="st13" d="M275.43,315.22c-1.49,1.52-2.75,3.22-4.35,4.66c-1.64,1.49-3.6,2.66-5.48,3.81
			c-1.04,0.63-0.36,2.44,0.85,2.01c4.21-1.48,8.93-4.87,10.93-8.98C277.98,315.5,276.46,314.17,275.43,315.22z"/>
		<path class="st13" d="M333.1,323.97c-4-1.69-7.3-4.44-8.8-8.62c-0.51-1.43-2.72-0.87-2.31,0.64c1.33,4.86,5.16,9.11,10.18,10.17
			C333.43,326.42,334.41,324.53,333.1,323.97z"/>
		<g>
			<path class="st13" d="M317.64,413.56c0.29,2.31,0.5,3.9,0.6,4.41c0.62,3.12,19.67,0.31,23.72-0.62c0.98-0.23,1.49-3.23,1.7-7.7
				C335.08,411.52,326.38,412.83,317.64,413.56z"/>
			<path class="st13" d="M269.54,416.72c1.87,4.37,21.23,3.75,23.72,3.12c0.51-0.13,0.72-2.3,0.74-5.7
				c-8.55-0.29-17.08-1.13-25.52-2.52C268.83,414.05,269.18,415.87,269.54,416.72z"/>
		</g>
		<path class="st13" d="M332.15,369.95c-1.19-2.25-2.47-4.43-3.5-6.76c-0.49-1.1-2.1-0.15-1.62,0.95c1.06,2.4,2.25,4.71,3.91,6.75
			C331.52,371.6,332.55,370.69,332.15,369.95z"/>
		<path class="st13" d="M278.53,367.07c-0.9,2.29-2.3,4.52-3.76,6.49c-0.57,0.77,0.61,1.52,1.25,0.97c2.2-1.92,3.55-4.15,4.54-6.89
			C281.03,366.34,279.02,365.83,278.53,367.07z"/>
		<g>
			<path class="st14" d="M281.57,111.8c-0.74-0.13-1.67,0.26-2.08,0.89c-1.16,1.77-1.38,5.09-1.27,7.14
				c0.09,1.68,0.68,3.41,1.94,4.53C286.22,129.72,289.03,113.07,281.57,111.8z"/>
			<path class="st0" d="M281.6,115.87c-0.36-0.97-1.68-1.22-2.45-0.61c-0.68,0.54-0.8,1.56-0.26,2.24c0.61,0.77,1.95,0.83,2.52-0.04
				C281.77,116.94,281.82,116.46,281.6,115.87z"/>
		</g>
		<g>
			<path class="st14" d="M318.18,112.63c-0.74-0.13-1.67,0.26-2.08,0.89c-1.16,1.77-1.38,5.09-1.27,7.14
				c0.09,1.68,0.68,3.41,1.94,4.53C322.83,130.56,325.65,113.91,318.18,112.63z"/>
			<path class="st0" d="M318.22,116.71c-0.36-0.97-1.68-1.22-2.45-0.61c-0.68,0.54-0.8,1.56-0.26,2.24
				c0.61,0.77,1.95,0.83,2.52-0.04C318.38,117.78,318.44,117.29,318.22,116.71z"/>
		</g>
		<path class="st11" d="M284.49,98.3c-2.2-0.95-4.73-0.54-6.69,0.86c-1.4,1-4.01,3.95-1.67,5.42c1.38,0.87,3.37-0.61,4.76-0.97
			c0.84-0.22,1.74-0.08,2.62-0.27c1.3-0.28,2.36-1.3,2.34-2.69C285.82,99.77,285.35,98.67,284.49,98.3z"/>
		<path class="st11" d="M324.37,101.53c-0.94-2.88-4.69-5.4-7.61-3.84c-1.62,0.86-1.67,3.01-0.55,4.27c0.76,0.85,1.87,1.19,2.96,1.4
			c0.88,0.17,1.68,0.61,2.55,0.83C323.24,104.57,324.89,103.15,324.37,101.53z"/>
		<path class="st15" d="M306.52,135.82c-1.21-2.7-4.96-3.64-7.31-1.84c-1.07,0.82-0.08,2.67,1.09,1.86
			c1.25-0.87,3.33-0.64,3.95,0.94c0.6,1.54-0.85,2.8-2.02,3.5c-1,0.6-0.58,2.17,0.59,2.18
			C306.02,142.49,307.72,138.49,306.52,135.82z"/>
		<path class="st0" d="M280.17,146.67c1.7-2.56,9,3.33,20.67,3c11.67-0.33,18.67-4.33,21.67-2.67s2.33,21.67-20.67,21
			S277.5,150.67,280.17,146.67z"/>
		<path class="st16" d="M307.15,157.06c-7.53,0.51-14.48,0.17-21.45-3.05c-0.81-0.37-1.52,0.79-0.71,1.21
			c6.82,3.58,14.78,5.44,22.38,3.49C308.28,158.49,308.11,157,307.15,157.06z"/>
		<path class="st16" d="M318.3,154.26c-1.99,0.35-3.81,0.82-5.7,1.52c-1.23,0.46-0.76,2.32,0.55,1.99c2.03-0.52,3.86-1.21,5.75-2.1
			C319.74,155.27,319.1,154.12,318.3,154.26z"/>
	</g>
	<g>
		<path class="st9" d="M203.73,369.3c0,0,1.78,39.89,3.47,44.4c1.49,3.97-0.5,7.69,0.74,10.42c1.24,2.73,13.89,8.43,13.89,8.43
			l4.46-2.23l-1.48-5.02c0,0-6.21-6.39-10.18-7.88c0,0,6.45-38.2,3.72-50.35C215.64,354.91,203.73,369.3,203.73,369.3z"/>
		<path class="st5" d="M218.51,367.85l-5.77-5.47c-4.21,1.12-9.01,6.92-9.01,6.92s0.2,4.53,0.54,10.71
			c5.15-0.7,10.17-2.32,14.77-4.76C219.03,372.36,218.87,369.83,218.51,367.85z"/>
		<path class="st9" d="M199.8,369.3c0,0-1.78,39.89-3.47,44.4c-1.49,3.97,0.5,7.69-0.74,10.42c-1.24,2.73-13.89,8.43-13.89,8.43
			l-4.46-2.23l1.48-5.02c0,0,6.21-6.39,10.18-7.88c0,0-6.45-38.2-3.72-50.35C187.9,354.91,199.8,369.3,199.8,369.3z"/>
		<path class="st17" d="M178.95,438.39c-1.66,0.46-3.68,0.66-4.87-0.58c-1.06-1.1-0.97-2.86-0.59-4.34c0.81-3.19,2.67-6.1,5.23-8.18
			c0.6,1.21,2.03,1.83,3.38,1.83c1.35,0,2.64-0.52,3.86-1.09c3.5-1.64,6.77-3.76,9.68-6.3c2.01,1.01,2.56,3.8,1.75,5.91
			c-0.81,2.1-2.61,3.65-4.38,5.03C188.76,433.98,184.13,436.97,178.95,438.39z"/>
		<path class="st5" d="M192.33,362.96l-7.25,4.61c-0.31,1.62-0.49,3.63-0.55,5.91c3.97,3.74,9.3,6.05,14.75,6.36
			c0.33-6.1,0.53-10.55,0.53-10.55S196.09,364.8,192.33,362.96z"/>
		<path class="st9" d="M165.33,306.3c-0.77,4.45-1.53,9.03-0.57,13.44c0.96,4.41,4.08,8.66,8.5,9.56c1.84-1.68,2.34-4.44,1.93-6.89
			c-0.41-2.45-1.61-4.7-2.75-6.91s-2.26-4.51-2.51-6.98c-0.12-1.19-0.04-2.43-0.5-3.53C168.98,303.89,166.43,305.83,165.33,306.3z"
			/>
		<path class="st18" d="M176.24,203.44c-3.47,6.12-6.7,48.28-8.19,55.73c-1.49,7.44-2.98,14.88-4.22,23.32
			c-1.24,8.43-0.99,22.32,0.25,24.31c1.24,1.98,5.21-0.5,6.2-0.74c0.99-0.25,1.74-22.32,4.22-29.76c2.48-7.44,4.46-14.63,4.96-18.85
			c0.5-4.22,3.47-13.89,7.69-23.56c4.22-9.67-2.73-24.8-2.73-24.8L176.24,203.44z"/>
		<path class="st19" d="M182.86,226.04c-5.35,23.74-10.73,47.63-11.74,71.95c0.12-0.03,0.23-0.07,0.35-0.11
			c0.67-7.15,1.54-17.08,3.04-21.6c2.48-7.44,4.46-14.63,4.96-18.85c0.42-3.53,2.57-10.88,5.73-18.86L182.86,226.04z"/>
		<path class="st9" d="M248.52,306.47c0.94,4.42,1.88,8.96,1.08,13.41c-0.79,4.44-3.74,8.81-8.13,9.88
			c-1.9-1.61-2.51-4.35-2.19-6.82s1.43-4.75,2.49-7.01c1.06-2.25,2.09-4.59,2.24-7.07c0.07-1.19-0.06-2.43,0.36-3.54
			C244.79,304.2,247.41,306.04,248.52,306.47z"/>
		<path class="st18" d="M233.71,204.11c3.7,5.98,8.53,48,10.3,55.37c1.77,7.38,3.54,14.76,5.1,23.14c1.56,8.38,1.84,22.27,0.68,24.3
			c-1.16,2.03-5.22-0.3-6.22-0.51c-1-0.21-2.58-22.24-5.35-29.58c-2.76-7.34-5.02-14.45-5.67-18.65c-0.66-4.19-4-13.75-8.58-23.25
			c-4.58-9.51,1.78-24.89,1.78-24.89L233.71,204.11z"/>
		<path class="st19" d="M232.15,222.31l-9.12,10.07c0.24,0.88,0.55,1.73,0.94,2.54c4.58,9.51,7.92,19.06,8.58,23.25
			c0.66,4.19,2.91,11.31,5.67,18.65c0.16,0.43,0.32,0.92,0.48,1.45c0.6-7.2-0.82-14.82-2.63-21.91
			C233.22,245.18,229.58,233.57,232.15,222.31z"/>
		<path class="st17" d="M224.59,438.39c1.66,0.46,3.68,0.66,4.87-0.58c1.06-1.1,0.97-2.86,0.59-4.34c-0.81-3.19-2.67-6.1-5.23-8.18
			c-0.6,1.21-2.03,1.83-3.38,1.83c-1.35,0-2.64-0.52-3.86-1.09c-3.5-1.64-6.77-3.76-9.68-6.3c-2.01,1.01-2.56,3.8-1.75,5.91
			s2.61,3.65,4.38,5.03C214.78,433.98,219.4,436.97,224.59,438.39z"/>
		<path class="st17" d="M203.19,186.24c-14.86-1.39-24.47,12.73-26.95,17.2c-2.48,4.46,12.07,39.85,7.61,62.67
			c-4.46,22.82-20.61,66.05-5.95,102.69c0.99,2.48,43.65,5.46,53.08-0.5c9.43-5.95,13.89-63.5,7.44-84.33
			c-6.45-20.84-11.91-30.26-9.92-42.66s6.45-29.76,5.46-36.21C232.96,198.64,219.07,187.73,203.19,186.24z"/>
		<path class="st18" d="M187.36,193.89c-2.01,0.41-3.82,1.89-4.41,3.86c-0.59,1.97,0.21,4.32,1.98,5.35
			c1.77,1.03,4.36,0.46,5.37-1.33c-0.99,1.99-0.41,4.59,1.22,6.11c1.63,1.51,4.13,1.94,6.24,1.23c2.11-0.71,3.8-2.45,4.64-4.51
			c0.39,3.68,4.47,6.5,8.06,5.56c3.58-0.94,5.76-5.4,4.29-8.8c1.49,1.78,4.59,1.55,6.14-0.17c1.56-1.72,1.65-4.44,0.65-6.53
			c-1-2.09-2.92-3.62-4.99-4.67c-3.53-1.79-7.67-2.36-11.56-1.58"/>
		<path class="st19" d="M216.56,189.98c-3.53-1.79-7.67-2.36-11.56-1.58l-12.04,3.75l-5.25,2.81c-1.35,0.44-2.03,2.18-1.52,3.51
			c0.52,1.33,1.99,2.14,3.42,2.09c1.42-0.05,2.75-0.86,3.65-1.97c-0.99,1.21-0.55,3.21,0.71,4.12c1.27,0.91,3.08,0.82,4.43,0.04
			c1.35-0.78,2.29-2.14,2.88-3.59c1.18,2.85,4.58,4.56,7.57,3.82c2.99-0.75,5.18-3.86,4.88-6.93c0.36,1.81,2.92,2.46,4.46,1.44
			c1.53-1.01,2.09-3.03,1.99-4.86C219.17,191.54,217.9,190.66,216.56,189.98z"/>
		<path class="st20" d="M161.52,208.57c23.35-19.1,55.45-26.35,85.03-20.44c7.65-16.2,4.69-35.5-1.7-52.24
			c-2.53-6.62-5.66-13.2-10.71-18.19c-7.9-7.8-19.53-10.69-30.63-10.73c-15.56-0.05-31.61,5.33-42.12,16.81
			c-7.5,8.19-11.77,18.97-13.46,29.95c-1.68,10.98-0.91,22.19,0.7,33.18c-0.01-0.99-0.01-1.99-0.02-2.98"/>
		<path class="st9" d="M147.89,157.68c2.11,7.67,5.99,14.84,11.24,20.81c6.08,6.91,13.96,12.16,22.55,15.44
			c8.14,3.11,17.13,4.49,25.63,2.57c8.4-1.9,15.86-6.91,21.88-13.07c16.16-16.53,22.32-42.02,15.98-64.25
			c-3.65-12.81-11.69-24.93-23.71-30.69c-9.48-4.54-20.61-4.74-30.82-2.28c-14.04,3.38-26.84,11.73-35.6,23.22
			c-8.76,11.49-13.41,26.04-12.95,40.48"/>
		<path class="st5" d="M245.18,119.18c-3.65-12.81-11.69-24.93-23.71-30.69c-9.48-4.54-20.61-4.74-30.82-2.28
			c-14.04,3.38-26.84,11.73-35.6,23.22c-8.76,11.49-13.41,26.04-12.95,40.48l5.78,7.77c2.11,7.67,5.99,14.84,11.24,20.81
			c0.32,0.36,0.66,0.7,0.99,1.06c0.14-4.68,0.29-9.36,0.8-14c1.22-11.15,4.99-22.79,13.86-29.64c6.6-5.1,15.08-6.87,22.79-10.03
			c7.71-3.17,15.48-8.84,16.66-17.09c15.16,13.87,25.38,32.99,28.65,53.27C248.2,148.51,249.18,133.2,245.18,119.18z"/>
		<path class="st21" d="M201.54,67.85c-8.76-4.02-18.37-2.89-27.82-1.03c-12.46,2.46-24.71,7.56-32.66,17.84
			c-7.05,9.12-10.35,20.63-11.75,31.92c-2.1,16.91,0.89,34.21,6.95,50.13c6.06,15.93,15.77,28.68,25.9,42.38
			c-6.21-11.65-10.77-24.38-11.69-37.55c-0.91-13.18,2.03-26.85,9.68-37.62c3.11-4.38,6.95-8.23,11.18-11.55
			c3.76-2.94,7.84-5.48,12.15-7.55c5.15-2.47,10.64-4.29,15.45-7.37c4.81-3.08,9.01-7.79,9.68-13.46
			c14.35,9.92,25.68,25.82,31.24,42.36c5.55,16.54,7.09,34.16,7.3,51.61c11.38-26.43,10.49-56.72,5.83-85.12
			c-1.38-8.41-3.05-17.03-7.68-24.19c-4.66-7.21-12.25-12.47-20.64-14.31C216.26,62.51,208.79,63.24,201.54,67.85z"/>
		<path class="st22" d="M249.74,172.84c-1.54-26.59-6.04-53.12-14.91-78.24c-1.11,2.41-2.22,4.83-3.33,7.24
			c-6.91-7.25-14.66-13.69-23.06-19.15c-8.37,12.72-20.81,22.72-35.03,28.17c-0.69-1.62-1.38-3.24-2.06-4.85
			c-8.7,7.09-15.65,16.31-20.08,26.63c0.18-4.76-1.96-9.55-5.62-12.58c-8.74,26.46-4.81,56.74,10.06,80.27
			c1.75,2.41,3.54,4.82,5.34,7.26l0.74,0.79c-6.02-11.46-10.42-23.93-11.32-36.84c-0.91-13.18,2.03-26.85,9.68-37.62
			c3.11-4.38,6.95-8.23,11.18-11.55c3.76-2.94,7.84-5.48,12.15-7.55c5.15-2.47,10.64-4.29,15.45-7.37
			c4.81-3.08,9.01-7.79,9.68-13.46c14.35,9.92,25.68,25.82,31.24,42.36c5.55,16.54,7.09,34.16,7.3,51.61
			c1.08-2.5,2.04-5.03,2.91-7.6C250,177.86,249.89,175.34,249.74,172.84z"/>
		<path class="st23" d="M193.25,81.71c-3.33,7.74-9.06,12.12-15.85,16.67c-1.26,0.85-0.5,2.99,1.07,2.53
			c8.28-2.43,14.2-10.45,17.01-18.25C195.94,81.35,193.8,80.44,193.25,81.71z"/>
		<path class="st23" d="M189.47,75.5c-5.61,7.38-12.75,12.37-20.13,17.79c-7.04,5.18-13.27,11.5-18.82,18.22
			c-1.1,1.34,0.61,3.13,1.92,1.92c7.07-6.5,13.53-13.54,21.25-19.32c6.82-5.11,12.81-10.43,17.63-17.53
			C192.13,75.41,190.29,74.42,189.47,75.5z"/>
		<path class="st23" d="M188.02,70.03c-12.34-0.68-24.4,6.99-33.44,14.69c-9.66,8.23-17.03,19.66-20.34,31.88
			c-0.51,1.88,2.17,2.52,2.85,0.78c8.19-20.84,27.04-42.82,50.93-44.55C189.82,72.71,189.84,70.13,188.02,70.03z"/>
		<path class="st23" d="M231.34,85.01c-6.07-0.82-12.33-6.71-16.46-10.9c-1.15-1.17-2.89,0.59-1.79,1.79
			c2.66,2.9,5.57,5.46,8.74,7.78c2.88,2.11,5.83,4.16,9.51,3.58C232.46,87.1,232.48,85.16,231.34,85.01z"/>
		<path class="st23" d="M246.84,91.65c-4.42-9.35-13.22-16.36-22.35-20.8c-1.24-0.6-2.32,1.19-1.09,1.86
			c9.08,4.92,15.3,11.98,21.38,20.14C245.69,94.08,247.51,93.06,246.84,91.65z"/>
		<g>
			<path class="st14" d="M176.13,141.99c-0.75-0.04-1.63,0.45-1.97,1.13c-0.95,1.89-0.79,5.22-0.45,7.24
				c0.28,1.66,1.06,3.31,2.44,4.28C182.79,159.27,183.69,142.41,176.13,141.99z"/>
			<path class="st0" d="M176.63,146.03c-0.47-0.92-1.81-1.02-2.5-0.32c-0.61,0.61-0.61,1.64,0,2.25c0.69,0.69,2.03,0.6,2.5-0.32
				C176.91,147.08,176.91,146.59,176.63,146.03z"/>
		</g>
		<g>
			<path class="st14" d="M216.4,135.13c-0.74-0.13-1.67,0.26-2.08,0.89c-1.16,1.77-1.38,5.09-1.27,7.14
				c0.09,1.68,0.68,3.41,1.94,4.53C221.05,153.06,223.87,136.41,216.4,135.13z"/>
			<path class="st0" d="M216.44,139.2c-0.36-0.97-1.68-1.22-2.45-0.61c-0.68,0.54-0.8,1.56-0.26,2.24c0.61,0.77,1.95,0.83,2.52-0.04
				C216.6,140.28,216.66,139.79,216.44,139.2z"/>
		</g>
		<path class="st22" d="M178.08,128.92c-3.85-3.85-14.27,2.26-11.33,7.49c0.26,0.46,0.81,0.79,1.34,0.77
			c2.26-0.11,3.89-1.88,5.95-2.62c1.35-0.48,2.96-0.44,4.04-1.53C179.22,131.89,179.22,130.06,178.08,128.92z"/>
		<path class="st22" d="M215.52,119.53c-2.82-0.16-6.32,2.64-5.49,5.66c0.34,1.24,1.37,1.99,2.64,2.01c1.21,0.02,2.19-0.77,3.32-1
			c1.01-0.2,2.03,0.09,3.03,0.15c1.41,0.08,3.25-0.86,3.17-2.5C222.05,120.71,218.11,119.68,215.52,119.53z"/>
		<path class="st15" d="M206.3,158.57c-0.45-1.75-1.81-3.06-3.45-3.68c-1.57-0.6-3.43,0.38-4.02,1.85
			c-0.39,0.96,0.85,1.65,1.62,1.24c3.27-1.75,4.45,4.61,0.8,4.27c-1.1-0.1-1.49,1.56-0.56,2.05
			C204.55,166.34,207.19,162,206.3,158.57z"/>
		<path class="st15" d="M208.26,171.35c-1.87,1.94-4.13,3.92-7,2.61c-1.14-0.52-2.09,1.02-0.99,1.7c3.34,2.06,9.24,0.88,9.75-3.58
			C210.13,171.16,208.84,170.75,208.26,171.35z"/>
		<path class="st5" d="M207.19,176.76c-0.28,0.25-0.59,0.17-0.93,0.25c-0.42,0.1-0.82,0.14-1.26,0.15
			c-0.97,0.02-1.25,1.55-0.24,1.75c0.57,0.11,1.48,0.36,2.05,0.13c0.68-0.28,1.28-0.64,1.62-1.32
			C208.86,176.92,207.86,176.14,207.19,176.76z"/>
		<path class="st21" d="M230.9,149.78c-1.35-0.84-3.15-0.62-4.59-0.11c-1.35,0.48-3.02,0.79-3.7,2.19c-0.35,0.73-0.38,1.72,0.3,2.3
			c1.24,1.08,2.58,0.86,4.11,0.76c1.83-0.12,3.58-0.56,4.67-2.13C232.39,151.78,231.86,150.37,230.9,149.78z"/>
		<path class="st21" d="M176.65,161.28c-1.35-0.84-3.15-0.62-4.59-0.11c-1.35,0.48-3.02,0.79-3.7,2.19c-0.35,0.73-0.38,1.72,0.3,2.3
			c1.24,1.08,2.58,0.86,4.11,0.76c1.83-0.12,3.58-0.56,4.67-2.13C178.14,163.28,177.61,161.87,176.65,161.28z"/>
		<path class="st21" d="M170.3,145.35c-0.29-0.41-0.57-0.69-1.01-0.94c-0.5-0.29-1.15-0.12-1.44,0.38c-0.31,0.53-0.08,1.1,0.38,1.44
			c0.33,0.24,0.64,0.38,1.04,0.47C169.99,146.84,170.8,146.06,170.3,145.35z"/>
		<path class="st21" d="M170.88,141.7c-0.81-0.81-2.07,0.45-1.26,1.26c0.38,0.38,0.67,0.64,1.21,0.73c0.5,0.09,0.86-0.28,0.78-0.78
			C171.52,142.38,171.26,142.08,170.88,141.7z"/>
		<path class="st21" d="M172.93,139.29c-0.78-1.18-2.68-0.08-1.9,1.11c0.34,0.52,0.61,0.84,1.2,1.08c0.58,0.23,1.14-0.34,1.16-0.88
			C173.41,140.07,173.21,139.71,172.93,139.29z"/>
		<path class="st21" d="M217.7,131.96c-0.2-0.43-0.87-0.49-1.18-0.15c-0.48,0.53-0.54,1.31-0.34,1.98c0.18,0.61,0.95,0.67,1.29,0.17
			C217.86,133.36,218,132.62,217.7,131.96z"/>
		<path class="st21" d="M222.06,132.03c-0.43-0.25-1.09-0.13-1.31,0.34c-0.36,0.75-0.91,1.59-0.56,2.45c0.2,0.5,0.76,0.84,1.27,0.52
			c0.81-0.51,0.9-1.36,1.05-2.23C222.57,132.68,222.45,132.26,222.06,132.03z"/>
		<path class="st21" d="M223.27,135.47c-0.48-0.28-1.1-0.11-1.38,0.36c-0.39,0.65-0.82,1.21-0.42,1.97
			c0.21,0.39,0.64,0.48,1.03,0.42c0.79-0.13,0.97-0.98,1.23-1.61C223.9,136.19,223.62,135.68,223.27,135.47z"/>
		<path class="st24" d="M179.13,285.99c0.26-0.36,0.53-0.71,0.79-1.07c4.39-6.22,7.87-13.23,9.06-20.75
			c1.66-10.45-1.26-21.31-6.91-30.27c2.17,10.81,3.66,22.62,1.78,32.22C182.76,271.66,180.99,278.42,179.13,285.99z"/>
		<path class="st24" d="M235.33,274.53c-4.96-14.58-8.5-22.87-6.84-33.22c0.15-0.91,0.31-1.85,0.47-2.8
			c-2.9,5.08-4.25,11.06-3.7,16.89C225.97,262.76,229.68,269.77,235.33,274.53z"/>
		<path class="st24" d="M201.14,233.33c-1.46,2.2-3.48,3.53-6.13,3.79c-2.29,0.23-4.21-0.83-6.31-1.48
			c-1.37-0.42-2.18,1.3-1.32,2.27c4.54,5.12,12.73,1.48,15.54-3.54C203.58,233.2,201.87,232.23,201.14,233.33z"/>
		<path class="st24" d="M220.89,234.8c-1.45,0.66-2.82,1.55-4.46,1.6c-1.84,0.05-3.87-1.7-5.21-2.77c-0.89-0.7-2.04,0.39-1.26,1.26
			c1.72,1.92,3.5,3.62,6.12,4.1c2.39,0.44,4.53-0.81,6.23-2.35C223.37,235.68,222.03,234.28,220.89,234.8z"/>
		<path class="st24" d="M206.83,212.94c-0.58,0.78-1.12,1.54-1.59,2.34c-0.07-0.16-0.15-0.32-0.23-0.48
			c-0.27-0.58-0.75-1.09-1.13-1.6c-0.49-0.67-1.68-0.3-1.41,0.6c0.17,0.6,0.29,1.27,0.57,1.84c0.32,0.67,0.68,1.32,1.03,1.98
			c0.19,0.37,0.49,0.51,0.8,0.51c0.46,0.2,1.08,0.14,1.42-0.33c0.93-1.31,1.43-2.75,1.97-4.26
			C208.57,212.65,207.32,212.3,206.83,212.94z"/>
		<path class="st24" d="M209.03,362.36c-11.57,0.82-23.41-0.01-34.38-3.65c0.85,3.4,1.92,6.77,3.25,10.09
			c0.99,2.48,43.65,5.46,53.08-0.5c2.04-1.29,3.84-4.99,5.36-10.21C227.31,360.05,218.23,361.71,209.03,362.36z"/>
		<path class="st24" d="M197.6,422.5c-3.63,3.76-7.77,7.03-12.28,9.67c-2.2,1.28-4.62,2.45-7.17,2.35
			c-1.64-0.06-3.32-0.83-4.38-2.04c-0.11,0.33-0.21,0.66-0.3,0.99c-0.38,1.48-0.46,3.24,0.59,4.34c1.19,1.24,3.21,1.04,4.87,0.58
			c5.19-1.43,9.81-4.42,14.05-7.73c1.78-1.39,3.57-2.93,4.38-5.03C197.76,424.66,197.83,423.53,197.6,422.5z"/>
		<path class="st24" d="M229.46,437.81c1.06-1.1,0.97-2.86,0.59-4.34c-0.11-0.44-0.25-0.88-0.4-1.31c-3.28,2.38-8.1,2.8-12.01,1.32
			c-5.05-1.92-8.79-6.22-11.75-10.76c-0.17,0.97-0.09,2,0.26,2.91c0.81,2.1,2.61,3.65,4.38,5.03c4.24,3.31,8.86,6.3,14.05,7.73
			C226.25,438.85,228.27,439.05,229.46,437.81z"/>
	</g>
	<g>
		<path class="st25" d="M82.3,438.01c0,0-18.55,2.2-16.22,13.86c0.88,4.42,23.89,2.65,27.72,1.18c3.83-1.47,4.72-12.09,0.59-17.4
			C90.26,430.34,82.3,438.01,82.3,438.01z"/>
		<path class="st25" d="M137.6,438.01c0,0,18.55,2.2,16.22,13.86c-0.88,4.42-23.89,2.65-27.72,1.18c-3.83-1.47-4.72-12.09-0.59-17.4
			S137.6,438.01,137.6,438.01z"/>
		<path class="st26" d="M150.67,234.42c14.98,18.84,27.16,39.91,36,62.31c-7.52,3.24-14.49,7.75-20.53,13.27
			c-3.6-12.54-11.45-23.82-21.95-31.56c-3.02-2.22-6.41-4.34-7.98-7.75c-1.05-2.28-1.14-4.87-1.13-7.38
			c0.04-8.66,1.14-17.31,3.26-25.7"/>
		<path class="st27" d="M173.34,297.01c-7.37-13.09-16.83-24.99-27.93-35.12l-8.4,10.2c1.75,2.62,4.59,4.45,7.17,6.35
			c10.51,7.74,18.35,19.02,21.95,31.56c3.1-2.83,6.45-5.4,9.99-7.66C175.25,300.53,174.32,298.75,173.34,297.01z"/>
		<path class="st5" d="M108.95,221.7c-22.3,0-23.65,17.57-21.28,22.3c2.36,4.73,16.22-5.07,21.28-3.72
			c5.07,1.35,13.85,4.39,18.92,0.68C132.94,237.24,126.18,221.7,108.95,221.7z"/>
		<path class="st28" d="M98.81,235.81c0,0,8.26,4.42,18.58-0.59s14.75,7.67,14.75,7.67l-12.98,11.8l-20.35-1.77l-9.44-6.49
			L98.81,235.81z"/>
		<path class="st26" d="M62.54,239.05c0,0-19.39,49.47-21.38,59.65c-1.99,10.17,11.72,41.36,14.16,43.35
			c2.43,1.99,13.71-10.62,13.71-10.62s-8.41-24.99-8.41-29.64c0-4.65,11.94-30.08,11.94-30.08L62.54,239.05z"/>
		<path class="st27" d="M70.39,269.36c-5.02,6.33-10.07,12.72-13.74,19.92c-3.67,7.2-5.92,15.35-4.93,23.37
			c1.12,9.13,6.24,17.19,11.34,24.87c3.13-2.91,5.97-6.08,5.97-6.08s-8.41-24.99-8.41-29.64c0-4.65,11.94-30.08,11.94-30.08
			l-0.12-0.41C71.77,270.64,71.09,269.99,70.39,269.36z"/>
		<path class="st29" d="M73.75,343.75c0,0,0.3,39.22,0.59,47.78c0.29,8.55,2.65,44.24,4.72,46.6c2.06,2.36,13.86,2.95,16.22,2.06
			s6.19-43.65,7.96-50.43c1.77-6.78,4.42-23.59,5.9-25.36c1.47-1.77,4.42,0,6.19,1.47c1.77,1.47,3.83,22.71,4.72,25.66
			c0.88,2.95,0.88,46.6,1.77,48.66c0.88,2.06,14.75,0.59,17.4-1.18s5.6-38.93,6.49-44.83c0.88-5.9-1.77-51.32-1.77-51.32
			l-16.52-13.57L73.75,343.75z"/>
		<path class="st26" d="M84.66,229.32c0,0-17.99,5.9-22.12,9.73c-4.13,3.83,9.73,102.34,11.21,104.7
			c1.47,2.36,66.95,0.29,70.19-0.88c3.24-1.18,9.73-102.04,8.55-106.76c-1.18-4.72-18.29-7.96-20.64-8.85l-11.5,13.57
			c0,0-7.96,6.49-22.71,0.29L84.66,229.32z"/>
		<path class="st27" d="M121.53,329.25c-12.3-1.09-24.89-4.33-34.32-12.3c-11.48-9.7-16.59-24.79-21.2-39.1
			c-0.59-1.85-1.22-3.74-2.19-5.26c3.17,30.09,9,69.67,9.93,71.16c1.47,2.36,66.95,0.29,70.19-0.88c0.7-0.26,1.56-5.21,2.46-12.86
			C138.1,329.86,129.79,329.98,121.53,329.25z"/>
		<path class="st5" d="M72.55,192.85c0.42-1.49,0.78-3.03,0.75-4.59c-0.06-2.75-1.4-5.38-3.34-7.02c-1.94-1.64-4.42-2.35-6.84-2.22
			c-1.11,0.06-2.23,0.28-3.27,0.75c-0.96,0.43-1.83,1.05-2.71,1.67c-1.17,0.83-2.35,1.68-3.25,2.87c-2.79,3.73-2.78,9.17,0.27,12.85
			c3.29,3.97,11.2,5.43,15.24,1.8C71.07,197.48,71.91,195.13,72.55,192.85z"/>
		<path class="st5" d="M143.96,192.85c-0.42-1.49-0.78-3.03-0.75-4.59c0.06-2.75,1.4-5.38,3.34-7.02c1.94-1.64,4.42-2.35,6.84-2.22
			c1.11,0.06,2.23,0.28,3.27,0.75c0.96,0.43,1.83,1.05,2.71,1.67c1.17,0.83,2.35,1.68,3.25,2.87c2.79,3.73,2.78,9.17-0.27,12.85
			c-3.29,3.97-11.2,5.43-15.24,1.8C145.44,197.48,144.6,195.13,143.96,192.85z"/>
		<path class="st30" d="M91.5,224.81c0.74,0.02,1.51,0.05,2.17,0.39c0.52,0.27,0.94,0.71,1.34,1.15c3.33,3.6,6.67,7.21,10,10.81
			c-3.59,3.52-7.69,6.5-12.15,8.83c-0.24,0.13-0.5,0.25-0.77,0.23c-0.31-0.03-0.56-0.26-0.79-0.47
			c-5.56-5.34-10.03-12.62-9.36-20.29C85.11,224.96,88.31,224.74,91.5,224.81z"/>
		<path class="st30" d="M125.06,224.81c-0.74,0.02-1.51,0.05-2.17,0.39c-0.52,0.27-0.94,0.71-1.34,1.15
			c-3.33,3.6-6.67,7.21-10,10.81c3.59,3.52,7.69,6.5,12.15,8.83c0.24,0.13,0.5,0.25,0.77,0.23c0.31-0.03,0.56-0.26,0.79-0.47
			c5.56-5.34,10.8-16.71,10.13-24.39C132.23,220.86,128.26,224.74,125.06,224.81z"/>
		<path class="st9" d="M58.41,185.08c0,0,2.06,48.96,52.2,44.24c50.14-4.72,45.71-45.71,45.71-50.73s-5.6-48.96-5.6-48.96
			l-24.48-11.8l-47.48,8.85L59.3,143.79l-6.19,25.95L58.41,185.08z"/>
		<path class="st31" d="M108.25,190.68c-19.47,0-20.64,15.34-18.58,19.46c2.06,4.13,14.16-4.42,18.58-3.24
			c4.42,1.18,12.09,3.83,16.52,0.59C129.19,204.25,123.29,190.68,108.25,190.68z"/>
		<path class="st32" d="M124.77,203.83c-4.42,3.24-12.09,0.59-16.52-0.59c-4.42-1.18-16.52,7.37-18.58,3.24
			c-0.27-0.54-0.48-1.26-0.6-2.12c-0.32,2.44,0.01,4.59,0.6,5.78c2.06,4.13,14.16-4.42,18.58-3.24c4.42,1.18,12.09,3.83,16.52,0.59
			c1.37-1.01,1.75-3.01,1.17-5.3C125.7,202.87,125.31,203.43,124.77,203.83z"/>
		<path class="st9" d="M71.68,335.42c0,0,7.74,2.88,11.94,3.76c4.2,0.88,7.86,0.07,9.95,5.31c1.33,3.32,0.66,6.19-1.77,3.54
			s-5.75-3.98-7.52-4.2c-1.77-0.22,3.76,4.2,4.87,6.64c1.11,2.43,0.66,3.32-1.11,3.76c-1.77,0.44-7.3-5.31-7.3-5.31
			s5.97,6.86,2.43,10.17c-2.02,1.9-3.1-3.1-6.64-5.53s-11.06-0.44-15.04-4.64c-3.98-4.2,0-10.4,0-10.4L71.68,335.42z"/>
		<path class="st30" d="M70.58,328.78c-1.75-1.05-15.93,11.94-16.15,13.71c-0.22,1.77,3.98,7.96,5.75,8.18
			c1.77,0.22,13.49-12.39,14.16-13.94C75,335.2,71.68,329.45,70.58,328.78z"/>
		<g>
			<path class="st14" d="M87.52,166.63c-0.74-0.13-1.67,0.26-2.08,0.89c-1.16,1.77-1.38,5.09-1.27,7.14
				c0.09,1.68,0.68,3.41,1.94,4.53C92.17,184.56,94.98,167.91,87.52,166.63z"/>
			<path class="st0" d="M87.55,170.71c-0.36-0.97-1.68-1.22-2.45-0.61c-0.68,0.54-0.8,1.56-0.26,2.24c0.61,0.77,1.95,0.83,2.52-0.04
				C87.72,171.78,87.77,171.29,87.55,170.71z"/>
		</g>
		<g>
			<path class="st14" d="M124.52,164.97c-0.74-0.13-1.67,0.26-2.08,0.89c-1.16,1.77-1.38,5.09-1.27,7.14
				c0.09,1.68,0.68,3.41,1.94,4.53C129.17,182.89,131.98,166.24,124.52,164.97z"/>
			<path class="st0" d="M124.55,169.04c-0.36-0.97-1.68-1.22-2.45-0.61c-0.68,0.54-0.8,1.56-0.26,2.24
				c0.61,0.77,1.95,0.83,2.52-0.04C124.72,170.11,124.77,169.63,124.55,169.04z"/>
		</g>
		<path class="st5" d="M156.32,178.59c0-5.01-5.6-48.96-5.6-48.96l-24.48-11.8l-47.48,8.85L59.3,143.79l-6.19,25.95l5.31,15.34
			c0,0,0.17,3.94,1.55,9.48c1.54-0.46,2.93-1.27,3.99-2.53c3.13-3.7,2.09-9.21,1.42-14.01c-1.18-8.39-0.65-17.02,1.53-25.2
			c1.3-4.88,3.42-9.9,7.63-12.69c6.34-4.21,14.77-1.92,22.33-2.77c6.61-0.74,12.64-3.96,18.85-6.35c6.21-2.39,13.28-3.94,19.41-1.36
			c6.21,2.62,10.12,9.06,11.53,15.65c1.41,6.59,0.71,13.42,0.13,20.13c-0.59,6.71-1.05,13.6,0.79,20.08c0.7,2.47,1.8,4.94,3.76,6.6
			c1.14,0.97,2.63,1.58,4.12,1.67C156.86,186.41,156.32,180.33,156.32,178.59z"/>
		<path class="st31" d="M67.2,126.49c-6.76,6.66-13.19,14.19-15.67,23.35c-1.32,4.88-1.45,10.01-1.3,15.06
			c0.21,7.02,0.96,14.13,3.65,20.62c0.57,1.38,1.26,2.76,2.4,3.73c1.14,0.96,2.83,1.41,4.16,0.73c2.28-1.18,2.05-4.46,1.57-6.98
			c-0.74-3.94-1.26-7.92-1.53-11.92c-0.59-8.53-0.04-17.36,3.51-25.14c3.04-6.66,8.25-12.31,14.65-15.87
			c9.64,2.93,19.89-0.6,29.51-3.59c9.62-2.99,20.56-5.33,29.35-0.42c5.12,2.86,8.77,7.91,10.9,13.38
			c2.12,5.47,2.84,11.38,3.21,17.24c0.65,10.45,0.2,20.97-1.33,31.33c-0.3,2-0.32,4.6,1.54,5.4c1.64,0.7,3.51-0.56,4.56-2
			c10.58-14.59,6.81-51.21-6.81-66.75c-7.51-8.57-20.47-11.65-31.27-13.34c-8.98-1.4-18.17-0.63-27.11,1.01
			c-2.87,0.53-5.77,1.16-8.34,2.56c-2.57,1.39-4.79,3.65-5.53,6.48C73.42,120.89,69.99,123.74,67.2,126.49z"/>
		<path class="st32" d="M157.64,186.82c-3.49-5.23-2.99-12.06-2.33-18.31c0.87-8.25,1.77-16.64,0.18-24.78
			c-1.59-8.14-6.1-16.14-13.52-19.86c-6.96-3.49-18.57-6.04-26.31-5.2c-10.13,1.09-16.89,5.49-27.02,6.58
			c-5.18,0.56-10.52,1.17-15.06,3.71c-6.22,3.48-10.05,10.08-12.6,16.73c-4.17,10.87-5.71,22.74-4.46,34.32
			c0.2,1.81,0.41,3.8-0.65,5.28c-0.38,0.53-1,0.86-1.65,1c0.51,1.11,1.13,2.18,2.06,2.96c1.14,0.96,2.83,1.41,4.16,0.73
			c2.28-1.18,2.05-4.46,1.57-6.98c-0.74-3.94-1.26-7.92-1.53-11.92c-0.59-8.53-0.04-17.36,3.51-25.14
			c3.04-6.66,8.25-12.31,14.65-15.87c9.64,2.93,19.89-0.6,29.51-3.59c9.62-2.99,20.56-5.33,29.35-0.42
			c5.12,2.86,8.77,7.91,10.9,13.38c2.12,5.47,2.84,11.38,3.21,17.24c0.65,10.45,0.2,20.97-1.33,31.33c-0.3,2-0.32,4.6,1.54,5.4
			c1.64,0.7,3.51-0.56,4.56-2c0.76-1.05,1.45-2.24,2.06-3.5C158.16,187.55,157.89,187.19,157.64,186.82z"/>
		<path class="st33" d="M105.77,116.48c-7.05,2.12-13.66,3.67-21.1,3.08c-0.98-0.08-0.94,1.39,0,1.5c7.3,0.87,15.1,0.35,21.78-2.95
			C107.37,117.66,106.72,116.19,105.77,116.48z"/>
		<path class="st33" d="M101.15,114.33c-1.56,0.51-3.19,0.83-4.82,1.05c-1.18,0.16-1.2,2.03,0,1.88c1.9-0.25,3.63-0.81,5.36-1.64
			C102.42,115.27,101.9,114.09,101.15,114.33z"/>
		<path class="st33" d="M74.77,124.84c-2.38,0.33-4.36,1.18-6.14,2.8c-0.86,0.78,0.25,2.16,1.22,1.58c1.7-1,3.53-1.98,5.4-2.62
			C76.4,126.21,75.91,124.68,74.77,124.84z"/>
		<path class="st33" d="M105.21,194.22c-2,1.77-3.95,4.33-4.05,7.1c-0.02,0.72,1.08,1.06,1.4,0.38c1.1-2.34,1.8-4.56,3.65-6.48
			C106.84,194.55,105.89,193.62,105.21,194.22z"/>
		<path class="st33" d="M97.56,195.23c-1.46,1.38-2.52,3.09-2.76,5.1c-0.1,0.85,1.26,1.2,1.62,0.44c0.7-1.5,1.43-2.89,2.67-4.02
			C100.12,195.82,98.57,194.27,97.56,195.23z"/>
		<path class="st33" d="M111.21,195.46c-0.72-0.64-1.78,0.41-1.06,1.06c1.16,1.05,1.84,2.47,2.2,3.98c0.16,0.66,1.14,0.49,1.15-0.16
			C113.54,198.4,112.65,196.73,111.21,195.46z"/>
		<path class="st33" d="M116.62,195.64c-0.47-0.74-1.59-0.09-1.17,0.69c0.87,1.63,1.22,3.39,1.58,5.18
			c0.15,0.77,1.23,0.52,1.29-0.17C118.48,199.27,117.71,197.35,116.62,195.64z"/>
		<path class="st15" d="M109.74,184.42c-0.54-1.92-2.88-2.88-4.61-2.02c-0.9,0.44-0.5,2.02,0.52,1.92c0.65-0.06,1.44,0.05,1.68,0.76
			c0.19,0.58-0.41,1.36-0.88,1.61c-1.11,0.6-0.29,2.05,0.79,1.88C109.24,188.28,110.27,186.29,109.74,184.42z"/>
		<path class="st5" d="M109.37,209.16c-1.35,0.58-3.02,0.61-4.38,0.08c-1.01-0.39-1.74,1.33-0.74,1.76c2.14,0.9,4.17,0.76,6-0.7
			C110.96,209.74,110.06,208.86,109.37,209.16z"/>
		<path class="st32" d="M130.67,152.51c-2.03-3.42-6.79-2.99-9.89-1.64c-1.87,0.81-1.4,4.08,0.58,4.41
			c1.35,0.23,2.66,0.55,4.02,0.71c1.28,0.15,2.67,0.39,3.91-0.07C130.66,155.4,131.48,153.88,130.67,152.51z"/>
		<path class="st32" d="M90.35,153.96c-1.85-1.19-4.3-0.44-6.23,0.19c-0.99,0.32-1.89,0.93-2.68,1.58
			c-0.63,0.51-0.87,2.02-0.15,2.58c1.22,0.95,2.64,0.66,4.08,0.35c1.62-0.34,3.63-0.19,4.99-1.23
			C91.55,156.53,91.73,154.84,90.35,153.96z"/>
		<path class="st5" d="M108.01,140.89c-3.42,0.15-6.81,0.96-10.18,1.55c-0.78,0.14-0.6,1.46,0.19,1.38
			c3.4-0.36,6.88-0.52,10.21-1.32C109.12,142.28,108.93,140.85,108.01,140.89z"/>
		<path class="st5" d="M112.66,146.27c-6.87-0.13-13.8,1.08-20.52,2.44c-1.08,0.22-0.61,1.8,0.45,1.63
			c6.68-1.09,13.36-1.4,20.07-2.1C113.9,148.11,113.96,146.3,112.66,146.27z"/>
		<path class="st5" d="M91.96,186.11c-2.99,3.89-7.25,6.81-11.79,8.64c-0.76,0.31-0.48,1.51,0.35,1.27
			c5.25-1.55,9.21-4.89,12.05-9.55C92.82,186.07,92.23,185.77,91.96,186.11z"/>
		<path class="st5" d="M135.02,189.2c-4.64-0.05-8.79-1.04-12.22-4.33c-0.92-0.88-2.28,0.48-1.39,1.39
			c3.56,3.68,8.74,5.92,13.87,4.83C136.36,190.86,136.08,189.22,135.02,189.2z"/>
		<path class="st34" d="M173.61,274.61c-0.61,0.75-1.05,1.53-1.38,2.44c-0.33,0.9-0.59,2.14,0.14,2.9c0.32,0.33,0.91,0.34,1.23,0
			c0.54-0.58,0.47-1.35,0.64-2.08c0.17-0.74,0.54-1.4,0.99-2.01C175.93,274.92,174.35,273.7,173.61,274.61z"/>
		<path class="st34" d="M174.8,281c-0.24,0.78-0.38,1.52-0.38,2.34c0.01,0.97,1.24,1.22,1.75,0.47c0.46-0.68,0.74-1.38,0.98-2.17
			C177.61,280.14,175.25,279.5,174.8,281z"/>
		<path class="st34" d="M177.5,283.34l-0.65,1.84c-0.25,0.7-0.28,1.41-0.35,2.15c-0.08,0.86,1.12,1.05,1.53,0.41
			c0.35-0.55,0.73-1.07,0.94-1.69c0.24-0.7,0.47-1.41,0.71-2.11C180.14,282.55,177.98,281.99,177.5,283.34z"/>
		<path class="st34" d="M178.62,289.06c-0.27,0.45-0.48,0.84-0.58,1.36c-0.16,0.81,0.7,1.72,1.51,1.16
			c0.21-0.14,0.45-0.28,0.62-0.46c0.23-0.23,0.4-0.55,0.59-0.81C181.68,289.01,179.46,287.68,178.62,289.06z"/>
		<path class="st34" d="M142.95,289.67c-0.16,1.45-0.91,3.01-1.68,4.23c-0.43,0.68,0.46,1.67,1.15,1.15
			c0.8-0.59,1.55-1.22,1.96-2.14c0.46-1.03,0.68-2.12,0.72-3.24C145.16,288.25,143.09,288.32,142.95,289.67z"/>
		<path class="st34" d="M144.07,294.41c-0.9,1.14-1.8,2.41-1.75,3.93c0.03,0.83,1.15,1.46,1.76,0.73c0.8-0.95,1.25-2.11,1.98-3.12
			C146.89,294.78,144.96,293.29,144.07,294.41z"/>
		<path class="st34" d="M143.31,300.4c-0.61,1.18-1.36,2.34-1.64,3.65c-0.19,0.91,0.98,1.8,1.68,0.98c0.88-1.02,1.36-2.26,1.93-3.47
			C145.92,300.24,143.99,299.08,143.31,300.4z"/>
		<path class="st34" d="M141.75,313.55c0.87-2.14,1.66-4.34,2.92-6.29c0.82-1.26-1.14-2.35-1.98-1.16c-1.54,2.2-2.64,4.5-2.64,7.22
			c0,0.64,0.5,0.9,0.98,0.81c-0.32,0.08-0.61,0.27-0.76,0.58c-0.51,1.1-1.05,2.14-1.34,3.32c-0.31,1.25,1.27,1.78,1.97,0.83
			c0.66-0.9,1.08-1.87,1.55-2.88c0.29-0.62,0.18-1.36-0.45-1.73c-0.27-0.16-0.61-0.2-0.93-0.13
			C141.36,314.06,141.62,313.87,141.75,313.55z"/>
		<path class="st34" d="M53.59,273.23c-0.75,0.54-1.43,1.37-2.02,2.08c-0.69,0.84-1.41,1.64-2.22,2.38
			c-0.72,0.67,0.22,1.9,1.05,1.36c1.74-1.12,3.94-2.66,4.59-4.74C55.24,273.55,54.29,272.72,53.59,273.23z"/>
		<path class="st34" d="M51.51,280.88c-0.42-0.42-1.22-0.48-1.62,0c-0.73,0.85-1.5,1.65-2.02,2.66c-0.4,0.78,0.47,1.92,1.31,1.31
			c0.44-0.32,0.85-0.62,1.2-1.04l1.13-1.31C51.92,282.03,51.98,281.35,51.51,280.88z"/>
		<path class="st34" d="M46.28,287.05c-0.49,0.77-0.96,1.47-1.22,2.36c-0.28,0.97,0.91,1.55,1.61,0.93
			c0.68-0.61,1.11-1.36,1.59-2.13C49.06,286.95,47.07,285.8,46.28,287.05z"/>
		<path class="st34" d="M51.59,323.41c-0.26-0.92-1.59-0.92-1.85,0c-0.34,1.19-0.11,2.3,0.07,3.49c0.13,0.85,1.59,0.85,1.72,0
			C51.71,325.71,51.93,324.6,51.59,323.41z"/>
		<path class="st34" d="M53.33,327.16c-0.81,0-1.27,0.74-1.13,1.48c0.06,0.32,0.12,0.63,0.18,0.95c0.18,0.94,1.72,0.94,1.9,0
			c0.06-0.32,0.12-0.63,0.18-0.95C54.6,327.91,54.14,327.16,53.33,327.16z"/>
		<path class="st35" d="M140.88,356.84c-2.05-1.14-4.28-1.88-6.3-3.09c-2.39-1.42-4.41-3.35-6.17-5.49
			c-0.73-0.88-2.25,0.29-1.58,1.22c3.1,4.32,7.96,8.9,13.44,9.62C141.5,359.28,141.87,357.4,140.88,356.84z"/>
		<path class="st35" d="M113.3,347.29c-0.95,3.34-1.76,6.89-1.16,10.35c-2.35-1.83-3.93-4.63-3.38-7.68
			c0.27-1.47-1.84-2.1-2.26-0.62c-1.22,4.31,0.73,9.17,5.05,10.75c0.94,0.34,1.51-0.48,1.43-1.27c0.65,0.2,1.47-0.07,1.61-0.83
			c0.63-3.32,0.55-6.69,1.2-10.02C116.11,346.36,113.76,345.68,113.3,347.29z"/>
		<g>
			<path class="st35" d="M121.31,432.53c0.14,4.21,0.3,7.16,0.51,7.66c0.88,2.06,14.75,0.59,17.4-1.18
				c0.86-0.57,1.75-4.87,2.59-10.61C135.08,430.24,128.23,431.63,121.31,432.53z"/>
			<path class="st35" d="M95.28,440.19c0.55-0.21,1.18-2.68,1.84-6.44c-6.53-0.18-13.05-0.78-19.5-1.8
				c0.48,3.32,0.97,5.64,1.44,6.18C81.12,440.48,92.92,441.07,95.28,440.19z"/>
		</g>
		<path class="st36" d="M122.83,445.94c0.21,3.44,1.38,6.38,3.27,7.11c3.83,1.47,26.84,3.24,27.72-1.18
			c0.32-1.62,0.23-3.04-0.14-4.32C143.65,450.69,132.48,450.13,122.83,445.94z"/>
		<path class="st36" d="M66.16,447.74c-0.33,1.22-0.39,2.59-0.08,4.13c0.88,4.42,23.89,2.65,27.72,1.18
			c1.82-0.7,2.97-3.48,3.24-6.76C87.12,449.48,76.34,449.99,66.16,447.74z"/>
	</g>
	<g>
		<path class="st9" d="M398.06,414.68c0,0-2.07,15.97-3.25,18.63c-1.18,2.66-5.32,5.03-6.8,4.44c-1.48-0.59-0.89-26.32-0.89-26.32
			L398.06,414.68z"/>
		<path class="st9" d="M370.01,414.68c0,0,2.07,15.97,3.25,18.63c1.18,2.66,5.32,5.03,6.8,4.44c1.48-0.59,0.89-26.32,0.89-26.32
			L370.01,414.68z"/>
		<path class="st5" d="M387.01,425.28c3.78-0.96,7.33-2.79,10.31-5.29c0.43-3,0.73-5.3,0.73-5.3l-10.94-3.25
			C387.11,411.43,386.95,418.47,387.01,425.28z"/>
		<path class="st5" d="M370.01,414.68c0,0,0.24,1.84,0.6,4.38c1.95,1.7,4.01,3.28,6.18,4.68c1.34,0.86,2.74,1.67,4.26,2.11
			c0.07-6.97-0.1-14.42-0.1-14.42L370.01,414.68z"/>
		<path class="st9" d="M424.14,323.29c0.11,3.79-0.11,7.59-0.66,11.34c-0.26,1.79-0.61,3.61-1.49,5.19
			c-1.7,3.04-5.03,4.71-8.18,6.21c-0.22,0.11-0.46,0.21-0.7,0.17c-0.26-0.04-0.46-0.24-0.62-0.45c-0.89-1.12-1.21-2.57-1.45-3.97
			c-0.74-4.28-1.01-8.64-0.8-12.97c0.12-2.51,0.57-5.32,2.61-6.78"/>
		<path class="st37" d="M402.63,259.53c-0.33,0.01-0.25-0.64,0.08-0.69c0.33-0.05,0.6,0.25,0.81,0.51
			c13.02,16.59,18.29,38.36,23.19,59.35c0.34,1.47,0.68,3.07,0.11,4.46c-0.5,1.21-1.59,2-2.64,2.7c-5.92,3.87-12.55,6.47-19.41,7.61
			c-6.66-19.41-12.76-39.2-15.18-59.71c-0.53-4.46-0.86-9.02-2.42-13.2"/>
		<path class="st9" d="M345.18,323.29c-0.11,3.79,0.11,7.59,0.66,11.34c0.26,1.79,0.61,3.61,1.49,5.19c1.7,3.04,5.03,4.71,8.18,6.21
			c0.22,0.11,0.46,0.21,0.7,0.17c0.26-0.04,0.46-0.24,0.62-0.45c0.89-1.12,1.21-2.57,1.45-3.97c0.74-4.28,1.01-8.64,0.8-12.97
			c-0.12-2.51-0.57-5.32-2.61-6.78"/>
		<path class="st37" d="M366.69,259.53c0.33,0.01,0.25-0.64-0.08-0.69c-0.33-0.05-0.6,0.25-0.81,0.51
			c-13.02,16.59-18.29,38.36-23.19,59.35c-0.34,1.47-0.68,3.07-0.11,4.46c0.5,1.21,1.59,2,2.64,2.7c5.92,3.87,12.55,6.47,19.41,7.61
			c6.66-19.41,12.76-39.2,15.18-59.71c0.53-4.46,0.86-9.02,2.42-13.2"/>
		<path class="st38" d="M403.69,330.33c0.35,1.05,0.71,2.09,1.07,3.14c6.86-1.14,13.5-3.75,19.41-7.61c1.06-0.69,2.14-1.49,2.64-2.7
			c0.57-1.39,0.24-2.99-0.11-4.46c-0.11-0.48-0.23-0.97-0.34-1.45c-4.69,2.67-9.61,4.94-14.69,6.77L403.69,330.33z"/>
		<path class="st38" d="M342.51,323.16c0.5,1.21,1.59,2,2.64,2.7c5.34,3.49,11.26,5.94,17.41,7.23c1.2-2.29,1.79-4.9,1.64-7.49
			c-7.87-0.92-15.34-4.76-20.72-10.57c-0.29,1.23-0.58,2.45-0.86,3.68C342.27,320.17,341.94,321.77,342.51,323.16z"/>
		<path class="st39" d="M394.8,433.31c0,0-3.55,2.96-7.1,2.96c0,0-1.48,3.55-1.48,6.21c0,2.66,15.08,9.76,21.59,10.35
			C414.32,453.42,413.14,443.37,394.8,433.31z"/>
		<path class="st39" d="M356.39,330.39c0,0-4.05,54.34,8.41,84c1.74,4.14,33.06,2.66,37.7,1.48c4.64-1.18,17.69-54.12,10.15-86.95
			S356.39,330.39,356.39,330.39z"/>
		<path class="st40" d="M365.92,266.07c-3.47,10.05-5.83,20.42-8.2,30.76c-1.66,7.25-3.32,14.56-3.56,21.99
			c-0.13,4.07,0.16,8.15,0.88,12.16c0.18,0.99,0.39,2,0.95,2.84c0.59,0.9,1.53,1.53,2.47,2.08c5.8,3.4,12.69,4.73,19.46,4.83
			c6.77,0.1,13.5-0.95,20.19-2c4.65-0.73,9.34-1.47,13.74-3.1c1.08-0.4,2.2-0.91,2.8-1.87c0.54-0.87,0.54-1.95,0.52-2.96
			c-0.22-12.89-0.81-26.28-3.55-39.1c-1.42-6.66-3.42-13.21-6.09-19.5c-2.19-5.18-4.3-11.98-9.24-15.33c-1.8-1.22-4-1.78-6.17-2.12
			c-4.13-0.65-8.38-0.59-12.49,0.18c-2.31,0.43-4.64,1.11-6.5,2.52C368.37,259.52,367.02,262.86,365.92,266.07z"/>
		<path class="st41" d="M373.19,251.27c-4.27,1.75-7.03,6.59-6.37,11.16c0.07,0.46,0.18,0.95,0.52,1.27
			c0.28,0.26,0.67,0.37,1.04,0.44c2.23,0.42,4.63-0.25,6.33-1.75c-0.87,3.2-0.27,6.76,1.6,9.5c1.87,2.74,4.97,4.6,8.27,4.95
			c1.5,0.16,3.1,0,4.36-0.81c1.56-1,2.38-2.82,2.97-4.58c0.71-2.13,1.19-4.33,1.44-6.56c1.2,2.23,4.54,2.67,6.63,1.23
			c2.09-1.43,2.96-4.2,2.72-6.72c-0.24-2.52-1.42-4.86-2.74-7.02c-1.46-2.41-3.86-5.01-6.6-4.3"/>
		<path class="st42" d="M376.51,249.16c-3.16,1.3-5.21,4.88-4.72,8.26c0.05,0.34,0.13,0.7,0.38,0.94c0.21,0.2,0.49,0.28,0.77,0.33
			c1.65,0.31,3.43-0.18,4.69-1.3c-0.65,2.37-0.2,5.01,1.18,7.04c1.38,2.03,3.68,3.41,6.12,3.67c1.11,0.12,2.29,0,3.23-0.6
			c1.16-0.74,1.76-2.09,2.2-3.39c0.52-1.58,0.88-3.21,1.07-4.86c0.89,1.65,3.36,1.97,4.91,0.91s2.19-3.11,2.01-4.98
			c-0.18-1.87-1.05-3.6-2.03-5.2c-1.08-1.79-2.86-3.71-4.89-3.19"/>
		<path class="st5" d="M344.46,229.92c1.84-0.1,3.69-0.48,5.33-1.32c3.2-1.64,5.35-4.98,5.94-8.53s-0.28-7.24-2-10.39
			c-1.06-1.94-2.51-3.76-4.45-4.82c-4-2.17-9.26-0.51-12.39,2.8c-4.5,4.77-5.13,12.73-1.43,18.15c0.77,1.13,1.71,2.16,2.88,2.87
			C340.13,229.78,342.34,230.04,344.46,229.92z"/>
		<path class="st5" d="M419.92,204.21c-1.84,0.1-3.69,0.48-5.33,1.32c-3.2,1.64-5.35,4.98-5.94,8.53c-0.59,3.54,0.28,7.24,2,10.39
			c1.06,1.94,2.51,3.76,4.45,4.82c4,2.17,9.26,0.51,12.39-2.8c4.5-4.77,5.13-12.73,1.43-18.15c-0.77-1.13-1.71-2.16-2.88-2.87
			C424.24,204.34,422.03,204.09,419.92,204.21z"/>
		<path class="st9" d="M341.02,202.05c-0.97,11.78,1.43,23.83,6.84,34.31c1.41,2.72,3.02,5.35,5.02,7.66
			c8.53,9.84,22.77,12.37,35.65,11.34c7.71-0.62,15.59-2.4,21.8-7.06c6.78-5.09,10.9-13.18,12.86-21.5
			c1.96-8.32,1.96-16.98,1.89-25.53c-0.02-3.09-0.06-6.21-0.69-9.23c-0.72-3.42-2.18-6.62-3.74-9.74c-3.1-6.2-6.71-12.3-11.88-16.85
			c-7.26-6.38-17.43-9.21-26.88-7.46c-11.22,2.07-20.55,10-27.97,18.78c-2.67,3.16-5.18,6.47-7.44,9.95"/>
		<path class="st39" d="M373.26,433.31c0,0,3.55,2.96,7.1,2.96c0,0,1.48,3.55,1.48,6.21c0,2.66-15.08,9.76-21.59,10.35
			C353.74,453.42,354.93,443.37,373.26,433.31z"/>
		<path class="st5" d="M425.07,201.26c-0.02-3.09-0.06-6.21-0.69-9.23c-0.72-3.42-2.18-6.62-3.74-9.74
			c-3.1-6.2-6.71-12.3-11.88-16.85c-7.26-6.38-17.43-9.21-26.88-7.46c-11.22,2.07-20.55,10-27.97,18.78
			c-2.67,3.16-5.18,6.47-7.44,9.95l-5.44,15.35c-0.28,3.4-0.27,6.82,0,10.21c1.47,0.01,3.02-0.53,4.15-1.47
			c2.19-1.81,3.29-4.58,4.52-7.15c7.05-14.75,21.06-25.98,36.99-29.65c7.16,3.4,14.46,6.88,20.19,12.36
			c4.62,4.41,8.07,10.02,9.92,16.13c1.31,4.33,2.29,9.52,6.34,11.52c0.56,0.28,1.14,0.46,1.72,0.57
			C425.12,210.16,425.11,205.69,425.07,201.26z"/>
		<path class="st43" d="M398.3,130.53c5.67,2.56,10.06,7.87,10.68,16.06c0.31,4.09-1.24,8.49-4.63,10.79
			c-2.27,1.54-5.08,2.01-7.81,2.3c-6.21,0.67-12.61,0.6-18.57-1.26c-3.43-1.07-6.91-2.96-8.43-6.21c-1.12-2.39-1.02-5.19-0.39-7.76
			C372.49,130.62,387.66,125.73,398.3,130.53z"/>
		<path class="st31" d="M357.06,151.28c10.47-8.1,24.94-8.33,37.89-5.94c4.69,0.86,9.35,2.03,13.7,4.02
			c10.46,4.77,18.58,14.21,22.6,25.1c4.03,10.89,3.1,20.21,0.02,31.42c-0.47,1.69-1.4,4.67-2.62,5.92
			c-1.22,1.24-4.37,1.48-4.37,1.48c-2.91-25.14-12.59-33.37-18.95-37.01c-6.36-3.64-13.26-6.53-18.72-11.46
			c-5.9,7.98-16.59,10.11-25.12,15.08c-11.46,6.68-19.27,19.41-20.14,32.79c-1.65,0.37-3.38-0.63-4.36-2.03
			c-0.98-1.4-1.35-3.14-1.6-4.84c-2.22-15.03,3.3-30.33,11.6-42.97C349.82,158.53,353.01,154.41,357.06,151.28z"/>
		<path class="st32" d="M428.65,211.79c0.24-0.24,0.46-0.56,0.67-0.91c-3.07-5.64-3.35-12.57-5.03-18.88
			c-2.66-9.96-9.23-18.81-17.99-24.23c-0.26,0.5-0.53,1-0.79,1.5c-6.82-2.5-13.03-6.65-17.94-12.01
			c-11.34,6.91-22.39,14.3-33.11,22.13c0.61-0.99,0.25-2.45-0.75-3.05c-9.57,9.22-15.14,22.4-15.3,35.67
			c0.88,0.59,1.93,0.88,2.95,0.65c0.87-13.38,8.68-26.11,20.14-32.79c8.52-4.97,19.22-7.1,25.12-15.08
			c5.45,4.94,12.35,7.82,18.72,11.46c6.36,3.64,16.04,11.87,18.95,37.01C424.28,213.26,427.42,213.03,428.65,211.79z"/>
		<path class="st33" d="M378.87,156.53c-4.64,3.52-9.58,6.51-14.56,9.51c-0.84,0.51-0.11,1.7,0.76,1.3
			c5.27-2.46,10.12-5.7,14.75-9.19C380.77,157.43,379.83,155.8,378.87,156.53z"/>
		<path class="st33" d="M378.73,151.37c-11.37,3.91-21.65,10.38-29.31,19.72c-0.64,0.78,0.4,1.88,1.13,1.13
			c8.17-8.45,17.54-15.14,28.66-19.13C380.27,152.7,379.82,150.99,378.73,151.37z"/>
		<path class="st33" d="M376.4,147.35c-3.55,0.74-6.84,1.8-10.16,3.26c-0.91,0.4-0.26,1.87,0.67,1.58c3.32-1.03,6.67-2.01,10.03-2.9
			C378.2,148.96,377.66,147.09,376.4,147.35z"/>
		<path class="st33" d="M399.89,161.96c-2.45-1.7-4.65-3.67-6.5-6.01c-0.43-0.55-1.19,0.22-0.76,0.76c1.9,2.42,4.14,4.48,6.81,6.02
			C399.94,163.02,400.35,162.28,399.89,161.96z"/>
		<path class="st33" d="M417.29,172.16c-2.99-8.57-11.5-15.1-19.82-17.97c-0.61-0.21-0.83,0.71-0.26,0.95
			c8.77,3.63,13.96,9.73,18.97,17.49C416.53,173.18,417.52,172.83,417.29,172.16z"/>
		<path class="st33" d="M409.02,155.06c-2.7-1.76-5.53-3.14-8.51-4.37c-0.71-0.29-1.22,0.92-0.52,1.24c2.85,1.3,5.62,2.78,8.35,4.3
			C409.11,156.66,409.75,155.54,409.02,155.06z"/>
		<path class="st31" d="M396.79,139.87c-5.96-2.76-11.93-2.87-18.05-0.49c-1.13,0.44-0.69,2.24,0.51,1.85
			c5.49-1.79,11.43-1.65,16.91,0.14C397.03,141.65,397.63,140.26,396.79,139.87z"/>
		<path class="st31" d="M392.2,134.61c-2.84-0.85-5.5-0.85-8.42-0.39c-0.96,0.15-0.74,1.81,0.23,1.7c2.64-0.3,5.36-0.18,8,0.07
			C392.82,136.07,392.93,134.83,392.2,134.61z"/>
		<path class="st44" d="M354.46,326.78c0.15,1.41,0.33,2.81,0.58,4.2c0.18,0.99,0.39,2,0.95,2.84c0.59,0.9,1.53,1.53,2.47,2.08
			c5.8,3.4,12.69,4.73,19.46,4.83c6.77,0.1,13.5-0.95,20.19-2c4.65-0.73,9.34-1.47,13.74-3.1c1.08-0.4,2.2-0.91,2.8-1.87
			c0.54-0.87,0.54-1.95,0.52-2.96c-0.02-1.42-0.06-2.85-0.09-4.28C395.36,331.93,374.2,332.07,354.46,326.78z"/>
		<path class="st45" d="M378.68,403.5c-7.59-3.29-14.5-8.09-20.33-13.96c1.37,8.98,3.42,17.64,6.45,24.85
			c1.74,4.14,33.06,2.66,37.7,1.48c0.98-0.25,2.35-2.84,3.81-7.06C396.86,409.03,387.35,407.26,378.68,403.5z"/>
		<path class="st46" d="M406.56,281.16c-0.75-0.26-1.72-0.31-2.46,0c-0.82,0.34-0.82,1.33,0,1.67c0.74,0.31,1.72,0.26,2.46,0
			C407.39,282.55,407.39,281.45,406.56,281.16z"/>
		<path class="st46" d="M407.37,284.99c-0.04-1.47-2.36-1.09-1.93,0.26c0.2,0.64,0.4,1.28,0.61,1.92c0.23,0.74,1.4,0.63,1.38-0.19
			L407.37,284.99z"/>
		<path class="st46" d="M408.31,289.79c-0.78-0.52-1.72-0.66-2.65-0.55c-1.12,0.14-0.9,1.74,0.21,1.52
			c0.66-0.13,1.32-0.02,1.97,0.14C408.53,291.08,408.88,290.17,408.31,289.79z"/>
		<path class="st46" d="M409.19,293.67c-0.16-0.36-0.32-0.73-0.48-1.09c-0.38-0.85-1.81-0.24-1.5,0.63
			c0.23,0.64,0.41,1.27,0.83,1.82c0.2,0.26,0.48,0.43,0.82,0.33c0.29-0.08,0.57-0.38,0.53-0.7
			C409.36,294.32,409.33,293.99,409.19,293.67z"/>
		<path class="st46" d="M410.67,297.64c-0.71-0.59-1.59-0.67-2.48-0.47c-0.68,0.15-0.39,1.19,0.29,1.04
			c0.6-0.14,1.17,0.01,1.76,0.18C410.65,298.5,411.03,297.93,410.67,297.64z"/>
		<path class="st46" d="M410.33,300.42c-0.65,0-0.97,0.58-0.88,1.16c0.08,0.53,0.17,1.07,0.25,1.6c0.1,0.63,1.17,0.63,1.27,0
			c0.08-0.53,0.17-1.07,0.25-1.6C411.3,301,410.98,300.42,410.33,300.42z"/>
		<path class="st46" d="M411.32,306.23c0.13-0.21,0.06-0.55-0.22-0.61c-0.21-0.05-0.42-0.09-0.63-0.14
			c-0.27-0.06-0.45,0.04-0.55,0.2c-0.62,0.22-1.08,0.91-0.6,1.58c0.44,0.63,0.62,1.41,0.51,2.18c-0.06,0.4,0.03,0.78,0.41,1.01
			c0.41,0.24,0.98,0.1,1.22-0.32C412.15,308.87,412.04,307.45,411.32,306.23z"/>
		<path class="st46" d="M364.33,283.02c-0.11-0.2-0.36-0.29-0.58-0.24c-1.34,0.35-1.66,2.61-2.01,3.73
			c-0.24,0.77,0.9,1.23,1.29,0.54C363.61,286.02,365.01,284.26,364.33,283.02z"/>
		<path class="st46" d="M362.34,289.99c-0.5-0.56-1.15-0.96-1.76-1.4c-0.39-0.28-0.86,0.34-0.51,0.66c0.55,0.51,1.08,1.05,1.73,1.44
			C362.25,290.95,362.67,290.35,362.34,289.99z"/>
		<path class="st46" d="M360.04,292.77c-0.38,0.58-0.77,1.15-1.12,1.75c-0.34,0.6-0.48,1.3-0.66,1.95c-0.11,0.4,0.1,0.74,0.41,0.9
			c-1.16,0.04-1.32,1.76,0,1.93c0.02,0,0.28,0.28,0.29,0.36c0.04,0.32,0.19,0.59,0.52,0.68c0.28,0.08,0.67-0.04,0.79-0.32
			c0.46-1.05,0.01-2.22-1.08-2.57c0.14-0.03,0.28-0.09,0.4-0.2c0.5-0.49,0.96-0.97,1.38-1.53c0.4-0.54,0.66-1.24,0.97-1.83
			C362.6,292.62,360.81,291.58,360.04,292.77z"/>
		<path class="st46" d="M359.28,302.06c-0.56,0-0.88,0.43-0.94,0.94c-0.07,0.56-0.36,1.16-0.66,1.63c-0.39,0.62,0.43,1.54,1.06,1.06
			c0.41-0.31,0.82-0.65,1.05-1.13c0.25-0.5,0.36-1.01,0.42-1.56C360.28,302.49,359.75,302.06,359.28,302.06z"/>
		<path class="st46" d="M358.22,308.63l-1.62-1.08c-0.53-0.35-1.06,0.55-0.5,0.85c0.57,0.31,1.14,0.61,1.72,0.92
			C358.27,309.56,358.64,308.91,358.22,308.63z"/>
		<path class="st46" d="M357.73,311.34c-0.06,0.67-0.13,1.33-0.19,2c-0.06,0.59,0.88,0.69,1.01,0.14l0.47-1.96
			C359.24,310.6,357.83,310.38,357.73,311.34z"/>
		<path class="st46" d="M358.22,318.1c-0.43-0.35-0.85-0.7-1.28-1.05c-0.39-0.32-0.84,0.26-0.43,0.55c0.46,0.31,0.91,0.63,1.36,0.94
			C358.15,318.72,358.47,318.3,358.22,318.1z"/>
		<path class="st46" d="M358.86,319.11c-0.13,0.64-0.36,1.25-0.1,1.87c0.18,0.42,0.71,0.35,0.99,0.13c0.44-0.34,0.53-1.05,0.69-1.56
			C360.77,318.53,359.07,318.08,358.86,319.11z"/>
		<path class="st47" d="M411.28,448.9c-8.94-0.18-17.81-3.48-24.67-9.22c-0.22,0.92-0.39,1.91-0.39,2.8
			c0,2.66,15.08,9.76,21.59,10.35C410.49,453.08,411.86,451.52,411.28,448.9z"/>
		<path class="st47" d="M381.84,442.48c0-0.73-0.11-1.54-0.28-2.31c-7.39,5.19-15.98,8.66-24.9,10.03c0.08,1.82,1.4,2.83,3.59,2.63
			C366.76,452.24,381.84,445.14,381.84,442.48z"/>
		<g>
			<path class="st14" d="M401.85,203.63c-0.74-0.13-1.67,0.26-2.08,0.89c-1.16,1.77-1.38,5.09-1.27,7.14
				c0.09,1.68,0.68,3.41,1.94,4.53C406.5,221.56,409.32,204.91,401.85,203.63z"/>
			<path class="st0" d="M401.89,207.71c-0.36-0.97-1.68-1.22-2.45-0.61c-0.68,0.54-0.8,1.56-0.26,2.24
				c0.61,0.77,1.95,0.83,2.52-0.04C402.05,208.78,402.11,208.29,401.89,207.71z"/>
		</g>
		<g>
			<path class="st14" d="M367.18,203.63c-0.74-0.13-1.67,0.26-2.08,0.89c-1.16,1.77-1.38,5.09-1.27,7.14
				c0.09,1.68,0.68,3.41,1.94,4.53C371.83,221.56,374.65,204.91,367.18,203.63z"/>
			<path class="st0" d="M367.22,207.71c-0.36-0.97-1.68-1.22-2.45-0.61c-0.68,0.54-0.8,1.56-0.26,2.24
				c0.61,0.77,1.95,0.83,2.52-0.04C367.38,208.78,367.44,208.29,367.22,207.71z"/>
		</g>
		<path class="st15" d="M390.16,224.22c-0.3-2.55-3.53-4.09-5.66-2.6c-1.38,0.96-0.07,3.24,1.32,2.27c0.7-0.49,1.97,0.02,1.77,0.98
			c-0.23,1.13-2.12,1.94-3.05,2.35c-0.99,0.43-0.21,1.71,0.67,1.59C387.58,228.48,390.5,227.09,390.16,224.22z"/>
		<path class="st15" d="M388.9,232.64c-2.01,1.21-4.12,1.76-6.29,0.55c-0.64-0.36-1.17,0.57-0.57,0.97
			c2.27,1.51,5.72,1.65,7.71-0.42C390.31,233.17,389.6,232.22,388.9,232.64z"/>
		<path class="st15" d="M386.49,236.02c-0.51,0.14-1.08,0.26-1.6,0.17c-1.18-0.2-1.4,1.45-0.22,1.61c0.84,0.11,1.66-0.03,2.35-0.54
			C387.61,236.83,387.28,235.8,386.49,236.02z"/>
		<path class="st32" d="M370.49,192.66c-0.72-2.03-2.95-1.93-4.67-1.47c-1.32,0.35-2.94,1.07-3.66,2.28
			c-0.67,1.12,0.18,2.75,1.54,2.68c0.72-0.04,1.32-0.31,2.01-0.49c0.55-0.14,1.11-0.14,1.67-0.11
			C368.95,195.63,371.19,194.64,370.49,192.66z"/>
		<path class="st32" d="M406.15,192.87c-1.74-0.7-3.73-1.24-5.56-0.58c-0.94,0.34-1.62,1.74-0.66,2.51c0.9,0.72,1.72,1.11,2.87,1.27
			c0.99,0.13,1.9,0.22,2.89,0.17C407.71,196.12,407.91,193.57,406.15,192.87z"/>
		<path class="st5" d="M392.33,187.59c-5.88-0.05-11.81,0.7-17.66,1.13c-0.81,0.06-0.82,1.3,0,1.27c5.87-0.26,11.84-0.21,17.66-0.94
			C393.23,188.93,393.3,187.6,392.33,187.59z"/>
		<path class="st5" d="M387.01,180.59c-1.85,0.23-3.66,0.51-5.48,0.9c-0.72,0.16-0.4,1.2,0.3,1.08c1.8-0.28,3.54-0.67,5.3-1.12
			C387.6,181.34,387.51,180.53,387.01,180.59z"/>
		<path class="st5" d="M373.87,219.87c-1.6,3.59-4.51,6.27-7.9,8.18c-0.74,0.41-0.24,1.63,0.58,1.37c4.33-1.36,7.32-4.69,8.99-8.85
			C375.93,219.61,374.29,218.93,373.87,219.87z"/>
		<path class="st5" d="M404.88,224.56c-2.64-1.01-4.98-2.46-6.82-4.61c-0.84-0.99-2.27,0.45-1.43,1.43
			c2.05,2.37,4.71,4.16,7.81,4.77C405.49,226.35,405.86,224.93,404.88,224.56z"/>
	</g>
	<g>
		<path class="st9" d="M226.27,450.81c0,0-1.14,7.96-1.9,9.6c-0.76,1.64-4.55,1.87-5.88,0.7c-1.33-1.17-1.9-13.81-1.9-14.98
			C216.59,444.95,226.27,450.81,226.27,450.81z"/>
		<path class="st9" d="M201.52,450.81c0,0,1.14,7.96,1.9,9.6c0.76,1.64,4.55,1.87,5.88,0.7c1.33-1.17,1.9-13.81,1.9-14.98
			C211.2,444.95,201.52,450.81,201.52,450.81z"/>
		<path class="st5" d="M226.27,450.81c0,0-9.68-5.85-9.68-4.68c0,0.84,0.3,7.63,0.96,11.8c3.05-1.39,5.91-3.21,8.46-5.39
			C226.17,451.51,226.27,450.81,226.27,450.81z"/>
		<path class="st5" d="M209.34,447.45c-0.22-0.22-0.45-0.42-0.7-0.6c-2.87,1.39-7.12,3.96-7.12,3.96s0.17,1.22,0.43,2.79
			c1.84,1.3,3.86,2.35,5.98,3.11c0.77,0.27,1.62,0.49,2.42,0.46c0.33-2.34,0.55-5.25,0.69-7.52
			C210.54,448.86,210,448.1,209.34,447.45z"/>
		<path class="st9" d="M224.97,380.27c1.3-0.66,2.76,0.54,3.64,1.71c2.85,3.78,4.66,8.23,6.44,12.61c0.9,2.22,1.81,4.5,1.93,6.9
			c0.09,1.82-0.29,3.62-0.74,5.38c-0.72,2.81-1.67,5.64-3.51,7.87c-0.44,0.54-1,1.07-1.7,1.12c-0.66,0.05-1.27-0.36-1.8-0.76
			c-8.69-6.5-14.61-17.1-14.03-27.93c0.09-1.71,0.36-3.48,1.33-4.88"/>
		<path class="st5" d="M232.78,395.69c-1.24-4.66-3.59-8.93-5.92-13.15l-4.56-1.63l-5.78,1.39c-0.26,0.38-0.47,0.79-0.64,1.21
			c1.23,9.81,5.57,19.22,12.33,26.44c0.65,0.69,1.53,1.42,2.43,1.12c0.57-0.19,0.92-0.75,1.19-1.28
			C234.04,405.51,234.02,400.35,232.78,395.69z"/>
		<path class="st9" d="M192.4,393.84c-0.93,2.81-1.86,5.62-2.79,8.43c-0.12,0.36-0.26,0.75-0.57,0.97
			c-0.29,0.21-0.68,0.23-1.04,0.24c-0.73,0.02-1.47,0.04-2.18-0.12c-1.95-0.46-3.42-2.46-3.25-4.46c0.05-0.65,0.78-3.5,0.76-4.15
			c-0.02-0.65-0.35-1.37-0.98-1.54c-1.01-0.28-2.28,3.12-2.65,4.1c-0.83-1.87-1.66-3.74-2.48-5.61c-0.31-0.7-0.64-1.43-1.25-1.91
			c-0.6-0.48-1.56-0.59-2.1-0.05c-0.49,0.5-0.45,1.3-0.33,2c0.34,1.93,1.02,3.79,2.01,5.48c-1.66-2.08-4.01-3.6-6.58-4.26
			c-0.44-0.11-0.96-0.19-1.32,0.1c-0.53,0.44-0.27,1.3,0.08,1.89c1.04,1.74,2.53,3.21,4.29,4.22c-1.01-0.53-2.08-1.07-3.22-1
			c-1.14,0.06-2.16,0.62-2.05,1.75c0.09,0.99,1.22,1.33,2.19,1.56c0.97,0.23,1.71,0.87,2.67,1.13c2.03,0.54,3.39,2.37,5.02,3.69
			c2.22,1.79,5.01,2.67,7.74,3.52c2.33,0.72,4.91,1.43,7.12,0.4c1.64-0.76,2.74-2.35,3.64-3.92c2.09-3.64,3.61-7.57,5.12-11.48
			c0.21-0.53,0.41-1.1,0.28-1.66c-0.14-0.55-0.78-1.01-1.28-0.74"/>
		<path class="st5" d="M200.51,393.8c-0.78-0.55-1.67-0.94-2.64-1.11l-0.45,0.09c-0.94,3.13-1.91,6.31-3.73,9.02
			c-1.85,2.76-4.75,5.02-8.06,5.28c-6.84,0.54-12.02-7.15-18.89-7.35l-0.01,0c0,0.06-0.01,0.11,0,0.17
			c0.09,0.99,1.22,1.33,2.19,1.56c0.97,0.23,1.71,0.87,2.67,1.13c2.03,0.54,3.39,2.37,5.02,3.69c2.22,1.79,5.01,2.67,7.74,3.52
			c2.33,0.72,4.91,1.43,7.12,0.4c1.64-0.76,2.74-2.35,3.64-3.92c2.09-3.64,3.61-7.57,5.12-11.48
			C200.35,394.48,200.47,394.14,200.51,393.8z"/>
		<path class="st48" d="M184.46,389.44c0,0,2.12-6.94,22.12-15.94s28.33-4.45,28.33-4.45l4.62-16.89l-11.45-12.41l-44.5,13l-21.5,19
			l4,10L184.46,389.44z"/>
		<path class="st49" d="M217.94,372.73c2.01-1.11,4.62-1.05,6.59,0.14c0.77,0.47,1.46,1.13,1.73,1.99c0.27,0.86-0.01,1.92-0.78,2.37
			c0.92,0.4,1.79,0.94,2.41,1.73c0.62,0.79,0.95,1.84,0.71,2.81c-0.18,0.73-0.64,1.35-1.13,1.91c-0.94,1.08-2.07,2.09-3.46,2.44
			c-1.82,0.46-3.71-0.29-5.44-1.03c-1.77-0.75-3.66-1.6-4.64-3.26"/>
		<path class="st50" d="M214.32,372.48c2.01-1.11,4.62-1.05,6.59,0.14c0.77,0.47,1.46,1.13,1.73,1.99c0.27,0.86-0.01,1.92-0.78,2.37
			c0.92,0.4,1.79,0.94,2.41,1.73c0.62,0.79,0.95,1.84,0.71,2.81c-0.18,0.73-0.64,1.35-1.13,1.91c-0.94,1.08-2.07,2.09-3.46,2.44
			c-1.82,0.46-3.71-0.29-5.44-1.03c-1.77-0.75-3.66-1.6-4.64-3.26"/>
		<path class="st49" d="M196.65,381.4c-2.96-1.23-6.76,0.28-8.07,3.2c-0.39,0.87-0.57,1.87-0.28,2.77c0.3,0.9,1.17,1.65,2.11,1.59
			c-1.47,0.75-2.08,2.81-1.25,4.24c0.88,1.52,2.83,1.98,4.57,2.21c1.06,0.14,2.14,0.25,3.21,0.11c2.09-0.28,3.99-1.56,5.17-3.31
			c1.18-1.75,1.66-3.92,1.49-6.02c-0.17-2.09-1.22-4.38-3.24-4.94"/>
		<path class="st50" d="M199.65,378.65c-2.96-1.23-6.76,0.28-8.07,3.2c-0.39,0.87-0.57,1.87-0.28,2.77c0.3,0.9,1.17,1.65,2.11,1.59
			c-1.47,0.75-2.08,2.81-1.25,4.24c0.88,1.52,2.83,1.98,4.57,2.21c1.06,0.14,2.14,0.25,3.21,0.11c2.09-0.28,3.99-1.56,5.17-3.31
			c1.18-1.75,1.66-3.92,1.49-6.02c-0.17-2.09-1.22-4.38-3.24-4.94"/>
		<path class="st51" d="M225.82,458.47c5.6,0.22,10.99,3.75,10.77,6.17c-0.22,2.43-15.78,1.16-18.53,0.22
			c-0.65-0.22-0.22-3.75-0.22-3.75S222.59,460.9,225.82,458.47z"/>
		<path class="st52" d="M216.04,375.53c-0.69-0.17-1.42-0.02-2.11,0.15c-6.19,1.5-12.17,3.87-17.7,7.02
			c1.13,8.54,2.27,17.19,1.3,25.75c-0.52,4.59-1.64,9.08-2.76,13.56c-2.24,8.97-4.48,17.95-7.41,26.72
			c4.78,2.71,10.36,3.63,15.84,4.05c11.15,0.85,22.44-0.19,33.25-3.06c1.12-0.3,2.26-0.63,3.17-1.34c1.52-1.19,2.12-3.2,2.44-5.1
			c1.52-8.94-1.01-18.03-3.66-26.71c-4.41-14.44-9.57-29.39-20.49-39.82C217.36,376.24,216.77,375.71,216.04,375.53z"/>
		<path class="st49" d="M194.58,379.59c-0.98,1.56-0.59,3.83,0.84,4.98c1.44,1.15,3.73,1.04,5.04-0.26
			c-0.19,0.96,0.42,1.94,1.25,2.46c0.83,0.52,1.83,0.68,2.8,0.79c1.67,0.19,3.48,0.25,4.92-0.63c1.93-1.18,2.59-3.63,3.08-5.84
			c0.82,0.89,2.32,0.85,3.32,0.18c1.01-0.67,1.6-1.81,1.98-2.95c0.47-1.42,0.67-3.02,0.1-4.4c-0.68-1.63-2.29-2.67-3.92-3.33
			c-4.34-1.77-9.47-1.49-13.6,0.73"/>
		<path class="st50" d="M201.12,371.96c3.34-1.8,7.48-2.02,10.99-0.59c1.32,0.54,2.63,1.38,3.17,2.69c0.46,1.12,0.3,2.41-0.08,3.56
			c-0.31,0.93-0.79,1.85-1.6,2.39c-0.81,0.54-2.02,0.57-2.69-0.15c-0.4,1.79-0.93,3.77-2.49,4.72c-1.16,0.71-2.62,0.66-3.97,0.51
			c-0.79-0.09-1.59-0.22-2.26-0.64c-0.67-0.42-1.16-1.21-1.01-1.99c-1.06,1.04-2.91,1.14-4.08,0.21c-1.16-0.93-1.47-2.76-0.68-4.02"
			/>
		<path class="st51" d="M201.97,458.47c-5.6,0.22-10.99,3.75-10.77,6.17c0.22,2.43,15.78,1.16,18.53,0.22
			c0.65-0.22,0.22-3.75,0.22-3.75S205.2,460.9,201.97,458.47z"/>
		<path class="st9" d="M171.62,379.12c4.63,1.81,9.69,2.09,14.65,2.35c9.47,0.5,19.63-0.01,27.92-5.41
			c8.47-5.51,15.35-13.96,19.03-23.36c1.82-4.66,2.89-9.6,3.17-14.6c0.12-2.16,0.09-4.33-0.02-6.49
			c-0.53-10.63-3.34-21.84-11.18-29.05c-6.9-6.35-16.93-8.64-26.23-7.4c-9.3,1.24-17.93,5.7-25.41,11.37
			c-4.98,3.77-9.59,8.16-12.89,13.47c-3.32,5.35-5.21,11.46-7.06,17.48c-1.62,5.27-3.25,10.72-2.69,16.2
			c0.36,3.51,1.73,7.06,4.45,9.31"/>
		<path class="st5" d="M215.89,316.77c9.82,10.13,15.76,23.91,16.45,38c0.31-0.68,0.6-1.37,0.87-2.07c1.82-4.66,2.89-9.6,3.17-14.6
			c0.12-2.16,0.09-4.33-0.02-6.49c-0.53-10.63-3.34-21.84-11.18-29.05c-6.9-6.35-16.93-8.64-26.23-7.4
			c-9.3,1.24-17.93,5.7-25.41,11.37c-4.98,3.77-9.59,8.16-12.89,13.47c-3.32,5.35-5.21,11.46-7.06,17.48
			c-1.62,5.27-3.25,10.72-2.69,16.2c0.36,3.51,1.73,7.06,4.45,9.31l16.26,16.13c2.16,0.84,4.41,1.35,6.71,1.68
			c-6.26-5.26-10.34-13.16-10.63-21.35c-0.38-10.89,5.95-21.74,15.62-26.76c-0.51,1.39-1.02,2.78-1.53,4.17
			C195.18,334.89,207.69,327.52,215.89,316.77z"/>
		<path class="st10" d="M215.39,289.57c-2.09-0.61-3.75-2.26-5.68-3.21c-17.61-8.73-37.69-1.36-51.65,10.68
			c-8.7,7.51-15.17,17.62-18.1,28.74c-2.93,11.11-2.26,23.18,2.1,33.81c3.25,7.92,8.51,15,15.14,20.4
			c7.64,6.22,17.43,10.22,27.25,9.46c-9.86-6.38-18.3-15.65-21.47-26.96c-3.17-11.31-0.16-24.69,9.04-31.98
			c2.28-1.8,4.84-3.2,7.4-4.58c2.68-1.45,5.35-2.9,8.03-4.35c-3.32,3.65-5.29,8.51-5.46,13.45c7.26-2.2,14.39-5.18,20.38-9.84
			c5.99-4.66,10.79-11.13,12.39-18.54c8.04,7.65,14.41,18.69,17.38,29.39c2.97,10.69,3.55,21.95,2.77,33.02
			c5.39-7.35,8.47-16.22,9.83-25.24c1.36-9.01,1.07-18.2,0.22-27.28c-0.34-3.61-0.77-7.23-1.89-10.68
			c-2.23-6.88-7.27-12.81-13.7-16.12C225.11,287.54,219.11,286.56,215.39,289.57z"/>
		<path class="st11" d="M226.02,302.55c-0.65,1.73-1.3,3.47-1.94,5.2c-4.25-3.25-8.49-6.51-12.74-9.76
			c-6.62,6.49-13.93,12.29-21.75,17.26c-0.72-1.55-0.98-3.3-0.75-4.99c-17.02,5.57-30.65,20.5-34.67,37.95
			c-0.43-0.96-0.87-1.92-1.3-2.88c-0.28,10.04,2.86,20.15,8.78,28.26c5.28,7.23,12.73,12.83,21.12,15.94
			c0.56-0.01,1.13-0.04,1.7-0.08c-9.86-6.38-18.3-15.65-21.47-26.96c-3.17-11.31-0.16-24.69,9.04-31.98c2.28-1.8,4.84-3.2,7.4-4.58
			c2.68-1.45,5.35-2.9,8.03-4.35c-3.32,3.65-5.29,8.51-5.46,13.45c7.26-2.2,14.39-5.18,20.38-9.84
			c5.99-4.66,10.79-11.13,12.39-18.54c8.04,7.65,14.41,18.69,17.38,29.39c2.97,10.69,3.55,21.95,2.77,33.02
			c0.62-0.84,1.2-1.71,1.75-2.59c1.43-4.66,2.41-9.45,2.87-14.3C241.19,334.72,236.29,316.75,226.02,302.55z"/>
		<path class="st17" d="M147.45,319.63c-1.29-0.88-2.81-1.42-4.37-1.54c-2.75-0.22-5.46,0.84-7.84,2.24
			c-1.81,1.06-3.67,2.68-3.59,4.78c0.06,1.6,1.31,2.95,2.76,3.61c1.45,0.66,3.09,0.76,4.68,0.85c-0.99,1.71-0.54,4.03,0.83,5.44
			c1.37,1.41,3.5,1.95,5.44,1.65c1.1-0.17,2.21-0.63,2.86-1.53c0.34-0.47,0.54-1.04,0.72-1.59c1.15-3.49,2.02-7.06,2.61-10.69"/>
		<path class="st17" d="M152.18,316.48c0.22-3.09,0.9-6.2,2.5-8.84c1.61-2.64,4.24-4.77,7.29-5.27c0.99-0.16,2.03-0.15,2.95,0.23
			c2.23,0.92,3.13,3.66,3.04,6.06c-0.08,1.91-0.61,3.79-1.55,5.45c0.8-1.7,3.57-1.59,4.67-0.07c1.1,1.52,0.76,3.72-0.28,5.28
			c-1.84,2.77-5.33,3.9-8.62,4.44c-1.46,0.24-2.93,0.4-4.4,0.48c-1.03,0.06-2.27-0.03-2.79-0.92"/>
		<path class="st53" d="M154.78,326.62c0.97-0.41,1.94-0.9,2.68-1.65c1.07-1.08,1.56-2.6,1.84-4.1c0.24-1.27,0.32-2.64-0.3-3.77
			c-0.28-0.51-0.69-0.93-1.12-1.32c-0.89-0.81-1.91-1.52-3.09-1.76c-1.09-0.22-2.23,0-3.28,0.37c-2.75,0.96-5.21,3.12-5.9,5.95
			c-0.69,2.83,0.84,6.21,3.63,7.04C151.07,327.92,153.03,327.37,154.78,326.62z"/>
		<path class="st12" d="M204.11,297.44c-4.06,2.48-7.98,5.13-12.23,7.28c-1.04,0.53-0.13,1.99,0.9,1.54
			c4.45-1.96,8.74-4.2,12.47-7.35C206.07,298.22,205.01,296.9,204.11,297.44z"/>
		<path class="st12" d="M203.84,292.87c-12.15,0.7-23.42,5.46-33.28,12.49c-1.09,0.78-0.07,2.59,1.06,1.82
			c9.85-6.66,20.83-10.32,32.46-12.47C205.13,294.52,204.89,292.81,203.84,292.87z"/>
		<path class="st12" d="M195.08,287.76c-6.15-0.3-12.2,0.8-18.06,2.61c-1.38,0.43-0.8,2.59,0.6,2.17
			c5.72-1.73,11.51-2.45,17.46-2.82C196.35,289.65,196.36,287.82,195.08,287.76z"/>
		<path class="st12" d="M223.76,299.57c-1.37-1.6-3.05-2.8-4.84-3.91c-0.76-0.47-1.39,0.68-0.69,1.17c1.65,1.15,3.18,2.47,4.79,3.69
			C223.61,300.97,224.19,300.06,223.76,299.57z"/>
		<path class="st12" d="M226.42,294.65c-0.66-0.39-1.21,0.59-0.59,1.01c6.41,4.31,10.67,9.41,12.31,17.07
			c0.21,0.97,1.71,0.73,1.7-0.23C239.83,304.36,232.86,298.49,226.42,294.65z"/>
		<path class="st54" d="M162.09,307.21c-0.6,0.19-1.09,0.74-1.57,1.14c-0.5,0.42-0.87,1.03-1.2,1.58c-0.4,0.65,0.42,1.57,1.09,1.09
			c0.54-0.39,1.05-0.79,1.49-1.3c0.38-0.45,0.92-1.07,1.06-1.65C163.07,307.58,162.61,307.04,162.09,307.21z"/>
		<path class="st54" d="M164.98,316.37c-1.21,0.26-2.3,0.74-3.44,1.2c-0.95,0.39-0.6,1.71,0.42,1.54c1.21-0.21,2.39-0.38,3.56-0.79
			C166.74,317.88,166.26,316.1,164.98,316.37z"/>
		<path class="st54" d="M139,323.2c-0.92,0.02-1.83,0.15-2.75,0.07c-0.57-0.05-1.05,0.52-1.05,1.05c0,0.63,0.48,0.99,1.05,1.05
			c0.53,0.06,1.05,0.07,1.59,0.02c0.61-0.05,1.09-0.23,1.62-0.54C140.21,324.42,139.89,323.19,139,323.2z"/>
		<path class="st54" d="M142.46,327.53c-0.75,0.75-1.23,1.68-1.77,2.58c-0.62,1.02,0.92,1.88,1.58,0.92c0.6-0.88,1.23-1.69,1.6-2.69
			C144.19,327.53,143.03,326.96,142.46,327.53z"/>
		<path class="st17" d="M150.1,317.91c-0.73,0.44-1.33,0.94-1.7,1.72c-0.38,0.79-0.56,1.54-0.42,2.41c0.11,0.66,1.13,0.76,1.41,0.18
			c0.55-1.11,1-2.26,1.76-3.25C151.66,318.33,150.73,317.54,150.1,317.91z"/>
		<path class="st55" d="M228.54,391.11c3.38,9.83,4.03,20.64,0.69,30.43c-4.07,11.91-14.59,21.84-27.07,23.52
			c-4.49,0.6-9,0.17-13.52-0.32c-0.41,1.34-0.84,2.67-1.28,4c4.78,2.71,10.36,3.63,15.84,4.05c11.15,0.85,22.44-0.19,33.25-3.06
			c1.12-0.3,2.26-0.63,3.17-1.34c1.52-1.19,2.12-3.2,2.44-5.1c1.52-8.94-1.01-18.03-3.66-26.71
			C235.75,407.9,232.82,399.06,228.54,391.11z"/>
		<path class="st56" d="M236.59,464.65c0.09-1.04-0.85-2.27-2.38-3.37c-0.13,0.13-0.26,0.25-0.39,0.37
			c-2.22,2.04-5.35,2.84-8.36,2.81c-2.63-0.03-5.2-0.62-7.75-1.29c-0.01,0.82,0.06,1.6,0.35,1.7
			C220.81,465.8,236.37,467.07,236.59,464.65z"/>
		<path class="st56" d="M192.88,461.83c-1.11,0.95-1.76,1.95-1.68,2.82c0.22,2.43,15.78,1.16,18.53,0.22c0.32-0.11,0.37-1,0.35-1.89
			C204.34,463.8,198.45,463.4,192.88,461.83z"/>
		<path class="st14" d="M188.89,348.75c-1.15-2.86-4.19-4.84-7.24-3.38c-2.95,1.42-4.35,5.33-2.6,8.21c0.61,1,2.02,0.53,2.1-0.57
			c0.12-1.75,0.01-3.7,1.68-4.78c1.84-1.19,3,0.48,4.3,1.54C187.84,350.36,189.33,349.84,188.89,348.75z"/>
		<path class="st14" d="M208.19,333.34c-3.16,0.81-3.85,4.74-2.95,7.43c0.37,1.09,2.25,0.98,2.12-0.29
			c-0.15-1.41-0.21-3.62,1.14-4.52c1.02-0.68,3.54,1.49,4.08,2.24c0.73,0.99,2.11,0.38,1.93-0.81
			C214.14,335.02,210.52,332.74,208.19,333.34z"/>
		<path class="st15" d="M205.84,348.24c-2.37-1.82-5.74-0.53-6.4,2.35c-0.29,1.29,1.67,1.84,1.99,0.55
			c0.35-1.41,1.87-2.16,3.09-1.18c1.52,1.22,0.07,3-0.62,4.2c-0.48,0.83,0.48,1.81,1.31,1.31
			C207.7,353.98,208.24,350.08,205.84,348.24z"/>
		<path class="st57" d="M194.58,363.33"/>
		<path class="st0" d="M195.53,363.09c0,0,12.53-1.54,18.21-9.1c2.6-3.47,12.57,5.2,0,13.44
			C201.16,375.66,192.64,369.44,195.53,363.09z"/>
		<path class="st16" d="M211.75,360.76c-3.3,2.3-6.69,4.3-10.59,5.38c-0.71,0.2-0.41,1.26,0.3,1.1c4.1-0.94,7.94-2.64,10.96-5.61
			C212.85,361.19,212.27,360.4,211.75,360.76z"/>
		<path class="st16" d="M215.99,357.29c-0.26,0.2-0.53,0.4-0.79,0.6c-0.42,0.32-0.58,0.89-0.17,1.31c0.41,0.41,0.99,0.25,1.31-0.17
			c0.2-0.26,0.4-0.53,0.6-0.79C217.34,357.69,216.53,356.88,215.99,357.29z"/>
		<path class="st57" d="M221.05,336.83c-0.84,0.01-1.51,0.34-2.14,0.9c-0.56,0.49-1.05,0.94-1.48,1.55c-0.62,0.9,0.4,1.87,1.3,1.69
			c0.67-0.14,1.24-0.43,1.85-0.73c0.68-0.33,1.27-0.76,1.57-1.46C222.54,337.91,222.12,336.83,221.05,336.83z"/>
		<path class="st57" d="M183.15,356.93c-0.96-0.66-2-0.05-2.91,0.36c-0.03,0.01-0.09,0.04-0.2,0.08c-0.32,0.13-0.63,0.24-0.94,0.38
			c-0.6,0.27-1.17,0.68-1.45,1.29c-0.51,1.11-0.16,2.59,1.18,2.91c1.57,0.37,2.65-0.58,3.78-1.5c0.43-0.35,0.78-0.69,1.09-1.16
			C184.23,358.49,183.88,357.43,183.15,356.93z"/>
	</g>
	<g>
		<path class="st9" d="M268.25,420.87c-0.01,0.91,0.33,1.78,0.7,2.61c0.47,1.05,1.02,2.1,1.88,2.88c0.85,0.78,2.07,1.24,3.18,0.93
			c0.98-0.27,1.71-1.08,2.32-1.9c0.86-1.15,1.61-2.44,1.81-3.86c0.27-1.97-0.64-4.06-2.27-5.21c-0.8-0.56-1.74-0.9-2.68-1.17
			c-0.5-0.14-1.02-0.27-1.54-0.21c-0.98,0.12-1.72,0.89-2.39,1.62"/>
		<path class="st58" d="M286.81,383.65c-2.25,0.06-4.38,1-6.38,2.04c-6.22,3.22-10.67,9.14-13.11,15.61
			c-2.31,6.11-4.06,15.08,0.07,20.8c3-0.42,6.01-0.72,9.03-0.92c1.73-11.03,6.11-21.63,12.67-30.67"/>
		<path class="st59" d="M265.78,418.89c0.39,1.14,0.91,2.23,1.62,3.21c3-0.42,6.01-0.72,9.03-0.92c0.2-1.3,0.45-2.59,0.72-3.87
			C273.36,416.23,269.14,416.85,265.78,418.89z"/>
		<path class="st60" d="M278.35,458.57c-0.23,0.36-0.42,0.76-0.42,1.18c-0.01,1.02,1.03,1.72,2.01,2.04
			c1.77,0.57,3.69,0.52,5.53,0.29c1.42-0.18,3.03-0.61,3.63-1.91c0.16-0.36,0.23-0.76,0.27-1.15c0.13-1.49-0.34-3.21-1.68-3.88
			c-0.75-0.38-1.64-0.36-2.48-0.26C282.54,455.19,279.78,456.3,278.35,458.57z"/>
		<path class="st60" d="M309.25,458.57c0.23,0.36,0.42,0.76,0.42,1.18c0.01,1.02-1.03,1.72-2.01,2.04
			c-1.77,0.57-3.69,0.52-5.53,0.29c-1.42-0.18-3.03-0.61-3.63-1.91c-0.16-0.36-0.23-0.76-0.27-1.15c-0.13-1.49,0.34-3.21,1.68-3.88
			c0.75-0.38,1.64-0.36,2.48-0.26C305.06,455.19,307.82,456.3,309.25,458.57z"/>
		<path class="st61" d="M273.7,424.77c0,0,4.73,27.87,7.18,30.59c1.4,1.56,4.53,1.72,6.87,0.47s2.5-12.8,3.75-14.98
			c1.25-2.19,4.21-1.4,4.68-0.31c0.47,1.09,0.47,14.2,1.87,15.14c1.4,0.94,4.37,1.56,6.4,0.16c2.03-1.4,7.8-27,6.71-32.62
			C310.06,417.59,273.7,424.77,273.7,424.77z"/>
		<path class="st9" d="M326.34,379.99c0.8-1.87,1.59-3.74,2.39-5.6c0.23-0.54,0.74-1.2,1.26-0.92c0.23,0.12,0.34,0.39,0.4,0.64
			c0.22,0.84,0.18,1.75-0.12,2.57c0.55-2,2.24-3.63,4.26-4.11c0.14-0.03,0.3-0.06,0.44-0.02c0.43,0.14,0.4,0.76,0.25,1.19
			c-0.51,1.49-1.34,2.86-2.41,4.01c0.91-1.09,2.23-1.83,3.64-2.05c0.29-0.04,0.63-0.05,0.81,0.17c0.12,0.14,0.14,0.33,0.14,0.52
			c0,1.58-1.44,2.73-2.75,3.62c0.49-0.29,1.02-0.49,1.58-0.6c0.54-0.11,1.17-0.09,1.54,0.32c0.4,0.44,0.29,1.17-0.08,1.63
			c-0.37,0.47-0.92,0.73-1.46,0.98c-0.98,0.45-1.95,0.91-2.93,1.36c-1.1,0.51-2.21,1.03-3.4,1.26c-1.96,0.38-3.97-0.03-5.93-0.45"/>
		<path class="st58" d="M301.5,383.87c8.19,3.5,18.46,1.36,24.58-5.11c1.49,2.18,2.98,4.36,4.47,6.54c0.17,0.25-7.65,7.42-8.44,8.05
			c-6.32,5.03-13.48,8.52-21.61,5.83"/>
		<path class="st59" d="M293.43,382.63c-9.65,0-14.78,4.65-17.51,12.45c-2.73,7.8-4.16,26.69-2.15,30.59
			c2.01,3.9,32.86,3.15,36.16,1.5c3.3-1.65,2.3-27.74-0.29-34.49C307.06,385.93,300.17,382.63,293.43,382.63z"/>
		<path class="st58" d="M301.99,387.55c0.47-0.75,0.86-1.57,1.12-2.43c-2.89-1.67-6.3-2.5-9.68-2.5c-3.74,0-6.79,0.7-9.3,2.01
			c0.05,3.83,3.27,7.39,7.1,8.07C295.39,393.44,299.75,391.13,301.99,387.55z"/>
		<path class="st58" d="M294.59,424.47c-7.35,0.33-14.85-0.47-21.67-3.19c0.13,1.99,0.41,3.53,0.84,4.38
			c2.01,3.9,32.86,3.15,36.16,1.5c0.8-0.4,1.35-2.26,1.68-4.94C305.98,423.31,300.32,424.22,294.59,424.47z"/>
		<path class="st5" d="M287.34,383.58c0.08,1.54,0.23,3.25,1.36,4.3c0.46,0.43,1.04,0.71,1.64,0.91c0.77,0.26,1.59,0.41,2.41,0.33
			c1.5-0.15,2.86-1.11,3.69-2.37c0.83-1.26,1.18-2.8,1.2-4.31c0-0.23-0.17-0.56-0.36-0.43"/>
		<path class="st5" d="M263.13,350.96c-0.35-2.14-1.89-3.92-3.6-5.25c-3.83-2.99-9.41-4.3-13.61-1.85c-2.62,1.53-4.4,4.42-4.57,7.45
			c-0.17,3.03,1.26,6.1,3.7,7.92c2.44,1.82,5.61,2.32,8.66,2.44c1.45,0.06,2.96,0.03,4.24-0.64c1.24-0.64,2.11-1.79,2.89-2.95
			C262.26,355.96,263.54,353.48,263.13,350.96z"/>
		<path class="st5" d="M322.41,348.39c0.35-2.14,1.89-3.92,3.6-5.25c3.83-2.99,9.41-4.3,13.61-1.85c2.62,1.53,4.4,4.42,4.57,7.45
			c0.17,3.03-1.26,6.1-3.7,7.92c-2.44,1.82-5.61,2.32-8.66,2.44c-1.45,0.06-2.96,0.03-4.24-0.64c-1.23-0.64-2.11-1.79-2.89-2.95
			C323.28,353.38,322,350.91,322.41,348.39z"/>
		<path class="st9" d="M251.23,340.81c-0.29,6.5-0.1,13.09,1.57,19.38c2.89,10.88,12.72,18.4,23.23,21.74
			c11.75,3.73,24.81,3.36,35.82-1.8c11.65-5.46,20.89-15.21,22.45-28.07c0.96-7.98,0.74-16.21,0.5-23.9
			c-0.24-7.69,0.32-14.37-4.92-20c-4.27-4.58-10.18-7.39-16.26-8.89c-6.08-1.5-12.39-1.79-18.65-1.97
			c-7.87-0.23-15.9-0.3-23.42,2.02c-13.13,4.06-23.56,15.78-26.08,29.29"/>
		<path class="st5" d="M329.88,308.16c-4.27-4.58-10.18-7.39-16.26-8.89c-6.08-1.5-12.39-1.79-18.65-1.97
			c-5.02-0.15-10.11-0.22-15.09,0.34c-10.98,4.4-21.12,10.58-29.66,18.65c-2.29,3.79-3.94,7.96-4.75,12.32l5.77,12.21
			c-0.17,3.76-0.16,7.55,0.19,11.3c0.04-0.02,0.09-0.03,0.13-0.04c4.68-1.81,6.97-6.99,8.68-11.71c1.71-4.72,3.71-9.93,8.22-12.14
			c3.96,3.68,11.04,3.16,14.42-1.05c0.08,0.74,0.16,1.48,0.24,2.22c10.82,0.69,21.86-3.74,29.19-11.73c1.19-1.3,2.5-2.79,4.26-2.87
			c2.06-0.1,3.64,1.78,4.67,3.57c2.42,4.18,3.91,8.9,4.32,13.71c0.29,3.39,0.08,6.96,1.56,10.03c1.37,2.85,4.96,4.95,7.73,3.71
			c0.31-5.96,0.15-11.95-0.03-17.64C334.56,320.47,335.12,313.78,329.88,308.16z"/>
		<path class="st21" d="M288.1,324.13c-1.4-0.86-1.78-2.82-1.31-4.4c0.47-1.58,1.6-2.86,2.69-4.09c-4.08,3.84-8.91,6.9-14.13,8.94
			c-1.49,0.58-3.06,1.09-4.65,0.96c-1.59-0.13-3.21-1.06-3.73-2.57c-0.62-1.81,0.45-3.72,1.48-5.33
			c-5.39,4.26-10.92,9.19-12.56,15.87c-0.78,3.16-0.61,6.5-1.53,9.62c-0.91,3.12-3.44,6.18-6.69,6.1c-3.84-0.09-6.18-4.34-6.79-8.13
			c-0.8-5.02,0-10.15,0.91-15.16c1.42-7.8,3.2-15.82,7.9-22.2c5.48-7.45,14.32-11.76,23.25-14.17c11.86-3.2,24.87-3.43,36.1,1.55
			c-1.4-0.94-2.18-2.71-1.93-4.37c1.4-0.64,3.09-0.2,4.33,0.71c1.24,0.91,2.11,2.22,2.95,3.5c1.49-2.03,3.81-3.42,6.3-3.77
			c1.28-0.18,2.85,0.06,3.41,1.22c0.45,0.93,0.03,2.08-0.71,2.8c-0.74,0.71-1.74,1.08-2.7,1.44c7.99,0.04,15.29,5.52,19.06,12.56
			c3.77,7.04,4.44,15.38,3.61,23.32c-0.66,6.3-2.55,13.02-7.61,16.82c-0.86,0.64-1.91,1.21-2.95,0.97c-1.48-0.34-2.15-2.05-2.4-3.55
			c-1.33-7.71,1.62-16.15-1.75-23.21c-2.79-5.85-9.11-9.01-15-11.71c-4.14,8.54-12.52,14.9-21.87,16.58
			C290.54,324.67,289.18,324.79,288.1,324.13z"/>
		<path class="st22" d="M335.97,340.89c-2.51-1.8-2.39-5.48-2.36-8.57c0.09-9.95-3.59-19.89-10.15-27.38
			c-1.02-1.16-2.2-2.32-3.72-2.62c-1.52-0.29-3.36,0.71-3.37,2.25c-0.82-0.85-1.64-1.7-2.46-2.55c-3.89,2.86-7.78,5.71-11.66,8.57
			c-1.64,1.21-3.46,2.47-5.5,2.38c-2.04-0.09-4.01-2.34-3.02-4.13c-3.12,0.57-5.61,2.81-8.09,4.78c-2.48,1.98-5.42,3.86-8.57,3.49
			c-3.15-0.36-5.85-4.2-4.02-6.78c-6.77,2.63-12.8,7.15-17.21,12.92c-0.38-1.43-0.76-2.86-1.14-4.29
			c-2.42,5.82-4.85,11.64-7.27,17.46c-0.66,1.58-1.38,3.24-2.75,4.26c-1.05,0.78-2.43,1.06-3.71,0.83c0.71,3.68,3.02,7.61,6.71,7.7
			c3.25,0.08,5.78-2.98,6.69-6.1c0.91-3.12,0.75-6.46,1.53-9.62c1.64-6.68,7.17-11.6,12.56-15.87c-1.03,1.61-2.1,3.52-1.48,5.33
			c0.52,1.51,2.14,2.43,3.73,2.57c1.59,0.13,3.16-0.37,4.65-0.96c5.22-2.05,10.05-5.1,14.13-8.94c-1.1,1.23-2.22,2.51-2.69,4.09
			c-0.47,1.58-0.09,3.54,1.31,4.4c1.07,0.66,2.44,0.54,3.68,0.31c9.34-1.68,17.73-8.04,21.87-16.58c5.89,2.7,12.21,5.86,15,11.71
			c3.37,7.07,0.42,15.5,1.75,23.22c0.26,1.5,0.92,3.21,2.4,3.55c1.04,0.24,2.1-0.33,2.95-0.97c1.34-1.01,2.45-2.22,3.38-3.57
			C337.99,341.79,336.9,341.56,335.97,340.89z"/>
		<path class="st23" d="M306.58,299.58c-1.92,2.15-4.31,3.46-6.94,4.53c-0.86,0.35-0.55,1.58,0.39,1.4
			c3.06-0.58,5.64-2.53,7.55-4.94C308.12,299.88,307.19,298.89,306.58,299.58z"/>
		<path class="st23" d="M302.22,295.29c-8.73,4.85-17.8,6.91-27.5,8.79c-1.54,0.3-1.14,2.67,0.36,2.67
			c10.13,0.03,19.92-4.01,28.36-9.36C304.78,296.55,303.6,294.52,302.22,295.29z"/>
		<path class="st23" d="M297.59,292.47c-16.93-1.71-34.67,3.89-46.6,16.27c-0.92,0.95,0.44,2.25,1.43,1.43
			c12.86-10.77,28.27-16.83,45.17-16.05C298.66,294.16,298.62,292.57,297.59,292.47z"/>
		<path class="st23" d="M325.67,302.14c-1.01-1.32-1.98-2.77-2.7-4.28c-0.22-0.45-1-0.13-0.81,0.34c0.67,1.73,1.53,3.15,2.89,4.42
			C325.36,302.92,325.96,302.51,325.67,302.14z"/>
		<path class="st23" d="M330.1,300.63c-0.67-1.04-2.29-0.11-1.66,0.97c3.6,6.14,8.27,13.9,5.6,21.17c-0.42,1.15,1.27,1.73,1.88,0.79
			C340.62,316.39,333.99,306.7,330.1,300.63z"/>
		<g>
			<path class="st62" d="M297.28,453.39c0.2,1.2,0.44,2.06,0.77,2.28c1.4,0.94,4.37,1.56,6.4,0.16c0.49-0.34,1.21-2.12,1.99-4.69
				C303.47,452.2,300.4,452.94,297.28,453.39z"/>
			<path class="st62" d="M287.74,455.83c0.49-0.26,0.89-0.98,1.22-1.97c-3.14-0.1-6.26-0.51-9.32-1.24
				c0.45,1.36,0.87,2.34,1.23,2.75C282.28,456.92,285.4,457.07,287.74,455.83z"/>
		</g>
		<path class="st59" d="M330.54,385.3c-1.49-2.18-2.98-4.36-4.47-6.54c-0.74,0.79-1.55,1.5-2.4,2.16c0.29,1.55,0.65,3.07,1.28,4.51
			c0.53,1.21,1.27,2.36,2.21,3.3C329,387,330.62,385.42,330.54,385.3z"/>
		<path class="st14" d="M276.05,339.07c-3.84,0.13-7.58,5.06-6.58,8.79c0.21,0.8,1.23,1.03,1.8,0.48c1.83-1.77,1.78-4.55,4.55-5.52
			c3.22-1.12,4.99,2.8,6.44,4.77c0.77,1.05,2.98,0.89,2.8-0.76C284.56,342.39,280.52,338.93,276.05,339.07z"/>
		<path class="st14" d="M309.62,337.71c-4.8,0.07-8.15,3.98-8.63,8.59c-0.13,1.24,1.65,1.55,2.23,0.6c1.53-2.51,3.16-6.02,6.75-5.51
			c3.17,0.45,3.31,4.55,4.75,6.62c0.83,1.2,2.4,0.66,2.58-0.7C317.82,343.27,314.01,337.65,309.62,337.71z"/>
		<path class="st15" d="M297.16,351.9c-1.33-2.98-5.08-3.08-7.19-0.9c-0.97,1,0.51,2.47,1.52,1.52c1.02-0.95,3.26-1.19,3.45,0.67
			c0.13,1.22-1.84,2.31-2.67,2.89c-0.95,0.66-0.39,2.39,0.83,1.97C295.65,357.19,298.53,354.96,297.16,351.9z"/>
		<path class="st57" d="M276.63,364.04c3.26-4.24,28.33-5.33,33.94-0.69c5.61,4.63-5.08,16.67-18.44,15.74
			C278.77,378.16,273.96,367.51,276.63,364.04z"/>
		<path class="st63" d="M292.78,368.04c5.72-0.31,11.52,1.43,16.15,4.79c3.27-3.37,4.32-7.27,1.64-9.48
			c-5.61-4.63-30.67-3.55-33.94,0.69c-1.43,1.85-0.72,5.76,2.29,9.13C282.9,370.15,287.79,368.31,292.78,368.04z"/>
		<path class="st57" d="M324.11,352.79c-0.76-3.27-5.5-2.06-7.3-0.43c-1.06,0.96-0.17,2.56,1.09,2.63c0.54,0.03,1.09-0.03,1.64-0.01
			c0.48,0.02,0.94,0.18,1.41,0.25c0.83,0.12,1.93,0.15,2.51-0.59C323.92,354.06,324.29,353.58,324.11,352.79z"/>
		<path class="st57" d="M273.36,351.79c-1.14-1.01-2.63-1.59-4.14-1.75c-1.5-0.15-3.47,0.28-4.14,1.8
			c-0.39,0.88-0.36,1.73,0.32,2.47c0.9,0.98,2.18,1.06,3.42,1.07c1.2,0.01,2.48-0.12,3.66-0.28
			C273.96,354.9,274.4,352.71,273.36,351.79z"/>
		<path class="st22" d="M314.53,330.47c-2.01-4.05-9.19-3.77-9.92,1.06c-0.17,1.16,0.88,2.2,2.03,1.56
			c1.17-0.66,2.14-0.87,3.36-0.31c0.9,0.42,1.39,1.25,2.49,1.25c0.91,0,1.54-0.44,2.04-1.17
			C315.02,332.14,314.9,331.21,314.53,330.47z"/>
		<path class="st22" d="M279.91,332.26c-0.9-1.13-2.42-1.8-3.88-1.71c-1.63,0.1-2.81,1.02-3.76,2.28c-1.03,1.37,0.88,2.7,2.12,2.12
			c1.1-0.52,2.9-0.47,4.06-0.18C280.01,335.15,280.81,333.39,279.91,332.26z"/>
		<path class="st58" d="M307.75,392.37c-4.1,1.01-7.9,2.85-12.06,3.73c-6.37,1.35-11.8-1.15-17.06-4.42
			c-0.99-0.61-1.84,0.9-0.9,1.54c4.69,3.21,9.05,5.43,14.8,5.7c5.34,0.24,11.61-1.61,16.24-4.14
			C310.1,394.04,309.17,392.02,307.75,392.37z"/>
		<path class="st58" d="M307.38,403.39c-4.68,0.43-9.12,1.71-13.88,1.81c-5.88,0.13-11.28-1.36-16.88-2.9
			c-1.09-0.3-1.8,1.3-0.78,1.84c8.82,4.67,23.08,6.48,32.21,1.73C309.19,405.29,308.71,403.27,307.38,403.39z"/>
		<path class="st58" d="M308.57,415.14c-5.58,0.92-10.65,2.25-16.4,2.02c-5.57-0.22-11.19-1.85-16.39-3.79
			c-1.25-0.46-2.09,1.56-0.9,2.14c9.87,4.84,24.73,8.79,34.81,2.28C311.14,416.87,310.17,414.88,308.57,415.14z"/>
	</g>
</g>
<g id="DESIGNED_BY_FREEPIK">
</g>
</svg>
