<svg xmlns="http://www.w3.org/2000/svg" width="439.02" height="342.6" viewBox="0 0 439.02 342.6">
  <defs>
    <style>
      .cls-1, .cls-9 {
        fill: #868686;
      }

      .cls-1 {
        opacity: 0.4;
      }

      .cls-2, .cls-4, .cls-5 {
        fill: #425473;
      }

      .cls-3 {
        fill: #94a4ff;
      }

      .cls-22, .cls-4, .cls-7 {
        opacity: 0.3;
      }

      .cls-10, .cls-18, .cls-24, .cls-28, .cls-5 {
        opacity: 0.5;
      }

      .cls-6 {
        fill: #ffd4a1;
      }

      .cls-26, .cls-8 {
        fill: #e8eff9;
      }

      .cls-10, .cls-11 {
        fill: #eabb88;
      }

      .cls-12 {
        fill: #5e4f45;
      }

      .cls-13 {
        fill: #3d3632;
      }

      .cls-14 {
        fill: #ffa08a;
      }

      .cls-15 {
        fill: #91d8e2;
      }

      .cls-16 {
        fill: #efc597;
      }

      .cls-17 {
        fill: #a37e4e;
      }

      .cls-18, .cls-19 {
        fill: #d8a36f;
      }

      .cls-20 {
        fill: #fff;
      }

      .cls-21 {
        fill: #c8cfe8;
      }

      .cls-22 {
        fill: #a1bfa8;
      }

      .cls-23 {
        fill: #ffd9b0;
      }

      .cls-24, .cls-25 {
        fill: #efbe8e;
      }

      .cls-26 {
        opacity: 0.1;
      }

      .cls-27 {
        fill: #ffdfb8;
      }

      .cls-28, .cls-29 {
        fill: #f9ca9b;
      }
    </style>
  </defs>
  <title>med1</title>
  <g id="OBJECTS">
    <g>
      <ellipse class="cls-1" cx="53.15" cy="273.2" rx="53.15" ry="10.01"/>
      <g>
        <g>
          <path class="cls-2" d="M72.7,359.32v3.58s-14.83,5.42-16.49,8.22S83,367.71,83,365.22v-5.9Z" transform="translate(-32.4 -99.67)"/>
          <path class="cls-2" d="M105.41,359.32v3.58s14.83,5.42,16.49,8.22-26.84-3.41-26.84-5.9v-5.9Z" transform="translate(-32.4 -99.67)"/>
          <g>
            <g>
              <path class="cls-3" d="M112.5,259.61s-.11,3.7-.28,9.72c0,.63,0,1.29-.06,2-.79,26.86-2.73,90.69-3.27,91.41-.68.94-14.2,1.55-16,0S90,281.35,90,281.35H87.21s-1.37,81-1.86,81.23-10.53,2.51-16-.27c-2.41-1.25-4.17-64.35-4.8-91,0-.8,0-1.55-.06-2.29-.14-5.82-.21-9.4-.21-9.4Z" transform="translate(-32.4 -99.67)"/>
              <path class="cls-4" d="M112.5,259.61s-.11,3.7-.28,9.72c0,.63,0,1.29-.06,2A80.73,80.73,0,0,1,87.52,275a64.88,64.88,0,0,1-22.93-3.73c0-.8,0-1.55-.06-2.29-.14-5.82-.21-9.4-.21-9.4Z" transform="translate(-32.4 -99.67)"/>
            </g>
            <path class="cls-5" d="M85.55,357.82a22.71,22.71,0,0,1-4.21,1.11,28.8,28.8,0,0,1-4.35.37,22.65,22.65,0,0,1-4.35-.41,17.18,17.18,0,0,1-4.14-1.36A27.5,27.5,0,0,0,77,358.76a36.3,36.3,0,0,0,4.29-.25C82.71,358.35,84.13,358.12,85.55,357.82Z" transform="translate(-32.4 -99.67)"/>
            <path class="cls-5" d="M92.32,357.82c1.42.3,2.84.53,4.27.69a36.3,36.3,0,0,0,4.29.25,27.5,27.5,0,0,0,8.49-1.23,17.18,17.18,0,0,1-4.14,1.36,22.65,22.65,0,0,1-4.35.41,28.8,28.8,0,0,1-4.35-.37A22.71,22.71,0,0,1,92.32,357.82Z" transform="translate(-32.4 -99.67)"/>
          </g>
        </g>
        <g>
          <path class="cls-3" d="M114.59,263.72c-.65,2.41-12.79,6.48-26,6.48-14.83,0-25.37-4.07-26-6.48s6.7-73.91,8-76.68,15.49-7,18-7,16.75,4.17,18,7S115.23,261.31,114.59,263.72Z" transform="translate(-32.4 -99.67)"/>
          <path class="cls-6" d="M65.3,223.85,64,227.63c-4.76-.77-9.83-4-12.46-6.31.65-2.18,1.11-3.64,1.11-3.64C56.17,218.36,65.3,223.85,65.3,223.85Z" transform="translate(-32.4 -99.67)"/>
          <path class="cls-3" d="M76.5,183.55s-2.07,43.39-9.34,44.19a11.82,11.82,0,0,1-3.13-.11c-4.76-.77-9.83-4-12.46-6.31a6.48,6.48,0,0,1-1.82-2.13C49.26,217.42,63,191,65.55,188.71S76.5,183.55,76.5,183.55Z" transform="translate(-32.4 -99.67)"/>
          <g class="cls-7">
            <path class="cls-2" d="M65.58,227.63c0-2.3.12-4.58.26-6.86s.34-4.56.55-6.84.48-4.54.8-6.8l.49-3.4c.2-1.13.37-2.26.6-3.38,0,1.15,0,2.29-.07,3.44L68,207.21c-.13,2.28-.34,4.56-.55,6.83s-.48,4.55-.8,6.81S66,225.38,65.58,227.63Z" transform="translate(-32.4 -99.67)"/>
            <path class="cls-2" d="M65.58,201.25a5.84,5.84,0,0,1,2.18,4.42,5.1,5.1,0,0,1-1.58-2A5.31,5.31,0,0,1,65.58,201.25Z" transform="translate(-32.4 -99.67)"/>
          </g>
          <g>
            <g>
              <path class="cls-8" d="M80.84,205.11c3.68,15.9,2.93,19.73,1.56,21.5a10.55,10.55,0,0,1-3.79,2.88l-.45-1.06.23.53-.23-.53a9.4,9.4,0,0,0,3.33-2.52c1-1.28,1.88-4.8-1.76-20.54Z" transform="translate(-32.4 -99.67)"/>
              <rect class="cls-2" x="76.97" y="227.06" width="2.44" height="3.97" rx="1.11" transform="translate(-122.05 303.73) rotate(-117.24)"/>
            </g>
            <g>
              <path class="cls-8" d="M70.54,205.2c-3.49,11.79-4.44,18.27-3,20.4a9.45,9.45,0,0,0,3.18,2.71l-.51,1a10.47,10.47,0,0,1-3.61-3.1c-1.72-2.54-.9-8.73,2.84-21.37Z" transform="translate(-32.4 -99.67)"/>
              <rect class="cls-2" x="69.43" y="226.93" width="2.44" height="3.97" rx="1.11" transform="translate(-194.68 73.25) rotate(-59.33)"/>
            </g>
          </g>
          <path class="cls-6" d="M127.29,240.28c-1.7,1.6-12.19,3.08-32.41-4.94l.12,0s-6.86-4.9-14.35-6.18c0,0-3.31.1-7.42.32-1.06.05-2.17.13-3.3.2a23,23,0,0,1,12-4.13c14.44-1.1,28,3.2,32,3.65l-2.08-5.32s9.12-5.49,12.62-6.17C124.44,217.68,131,236.82,127.29,240.28Z" transform="translate(-32.4 -99.67)"/>
          <path class="cls-3" d="M100.54,183.55s8.36,2.9,10.94,5.16,16.28,28.71,15.8,30.48-10.16,9.36-17.42,8.55S100.54,183.55,100.54,183.55Z" transform="translate(-32.4 -99.67)"/>
          <path class="cls-9" d="M75.45,186.87c.52-5.61,9.53-6.53,13.77-6.59,5.4-.08,10,1,11.71,6.46s2,11.48,2.13,17.14a.82.82,0,0,0,1.64,0c-.1-6.52.34-18.81-5.57-23.08s-24.44-3.43-25.32,6.07c-.1,1,1.55,1,1.64,0Z" transform="translate(-32.4 -99.67)"/>
          <path class="cls-6" d="M95,235.31l-.12,0q-3.91,1.24-7.61,2.24c-22.68,6.08-38.67,5.21-39.64,2.52-.8-2.18,2.22-13,3.94-18.78,2.63,2.32,7.7,5.54,12.46,6.31l-.87,2.59c2-.23,4.42-.41,6.76-.57h0c1.13-.07,2.24-.15,3.3-.2,4.11-.22,7.42-.32,7.42-.32C88.14,230.41,95,235.31,95,235.31Z" transform="translate(-32.4 -99.67)"/>
          <path class="cls-10" d="M95,235.31q-4,1.26-7.73,2.27c-6.61-2.46-7.94-7.1-17.88-7.89,4.11-.22,11.26-.56,11.26-.56C88.14,230.41,95,235.31,95,235.31Z" transform="translate(-32.4 -99.67)"/>
          <g>
            <path class="cls-2" d="M107.65,207a3.78,3.78,0,1,1-3.77-3.78A3.77,3.77,0,0,1,107.65,207Z" transform="translate(-32.4 -99.67)"/>
            <path class="cls-8" d="M106.15,207a2.27,2.27,0,1,1-2.27-2.28A2.27,2.27,0,0,1,106.15,207Z" transform="translate(-32.4 -99.67)"/>
          </g>
          <path class="cls-5" d="M77.23,184.51a56.25,56.25,0,0,0,5.06,4.34A19.24,19.24,0,0,0,88,192h-.18a32.55,32.55,0,0,0,5.86-3.17,24.85,24.85,0,0,0,2.67-2,24.17,24.17,0,0,0,2.42-2.33A21.76,21.76,0,0,1,94,189.2a31.17,31.17,0,0,1-5.91,3.33l-.08,0-.09,0a14.69,14.69,0,0,1-3.09-1.42A24.28,24.28,0,0,1,82,189.18,36.61,36.61,0,0,1,77.23,184.51Z" transform="translate(-32.4 -99.67)"/>
          <path class="cls-2" d="M69.06,204.36a67.65,67.65,0,0,1,2.28-7.71,6.83,6.83,0,0,1,2.38-2.74c.23,0,.19-2,.12-3.66-.06-1.45-.16-3.13.2-3.58a1.13,1.13,0,0,1,1.57,0c.38.44.35,2.13.36,3.57,0,1.64.06,3.65.29,3.65a7.55,7.55,0,0,1,2.36,2.67,53.49,53.49,0,0,1,2.5,7.84c.32,1.7-.24,1.9-.73,2-.7.21-1.12-.27-1.6-2.15-.76-3-1.69-8-3.75-8.06h0c-2.05.14-3,5.4-3.79,8.32-.47,1.84-.86,2-1.56,1.82C69.19,206.21,68.69,206,69.06,204.36Z" transform="translate(-32.4 -99.67)"/>
          <g class="cls-7">
            <path class="cls-2" d="M111.59,227.63c-.45-2.25-.78-4.52-1.09-6.78s-.57-4.54-.81-6.81-.42-4.55-.55-6.83l-.18-3.42c0-1.15-.08-2.29-.07-3.44.23,1.12.4,2.25.6,3.38l.49,3.4c.33,2.26.57,4.53.8,6.8s.43,4.55.55,6.84S111.59,225.33,111.59,227.63Z" transform="translate(-32.4 -99.67)"/>
            <path class="cls-2" d="M111.59,201.25a5.31,5.31,0,0,1-.6,2.45,5.1,5.1,0,0,1-1.58,2,5.84,5.84,0,0,1,2.18-4.42Z" transform="translate(-32.4 -99.67)"/>
          </g>
          <path class="cls-5" d="M111.12,223.59a12.3,12.3,0,0,0,2.08-.57,20.22,20.22,0,0,0,2-.81,29.75,29.75,0,0,0,3.74-2.09,42.73,42.73,0,0,0,3.51-2.48c1.13-.89,2.22-1.83,3.34-2.76-.48.55-1,1.07-1.48,1.6s-1,1-1.59,1.48a34,34,0,0,1-3.48,2.62,24.58,24.58,0,0,1-3.88,2A12.88,12.88,0,0,1,111.12,223.59Z" transform="translate(-32.4 -99.67)"/>
          <path class="cls-5" d="M66.22,223.59a13,13,0,0,1-4.23-1,24.48,24.48,0,0,1-3.87-2A33,33,0,0,1,54.64,218c-.54-.48-1.07-1-1.59-1.48s-1-1-1.48-1.6c1.11.93,2.2,1.87,3.34,2.76a42.57,42.57,0,0,0,3.5,2.48,29.87,29.87,0,0,0,3.75,2.09,20.22,20.22,0,0,0,2,.81A12.19,12.19,0,0,0,66.22,223.59Z" transform="translate(-32.4 -99.67)"/>
          <path class="cls-5" d="M62.49,261.27a58.82,58.82,0,0,0,6.35,2.07c1.07.3,2.15.55,3.23.82l3.26.68a75.61,75.61,0,0,0,13.25,1.31c2.22.09,4.43-.08,6.65-.19,1.1-.1,2.2-.26,3.31-.39l1.65-.21,1.63-.32c1.09-.22,2.19-.4,3.27-.66l3.21-.9c.53-.16,1.08-.28,1.6-.46l1.56-.58,3.14-1.17a57.13,57.13,0,0,1-12.7,4.18l-1.64.36c-.55.09-1.1.15-1.66.23-1.11.14-2.21.3-3.33.42-2.23.12-4.46.31-6.7.24a71.83,71.83,0,0,1-13.32-1.45A64.46,64.46,0,0,1,62.49,261.27Z" transform="translate(-32.4 -99.67)"/>
          <path class="cls-6" d="M97.91,227s9.75-3.72,10.62-3.47-1.86,1.73-1.86,1.73,5.63-1.72,6.37-1-3,2.21-3,2.21,4.3-.94,4.38-.17-4,2.4-4,2.4Z" transform="translate(-32.4 -99.67)"/>
        </g>
        <g>
          <g>
            <path class="cls-6" d="M96,182.73c-1.47,3.59-8,6-8,6s-6.55-2.39-8-6c-.17-.4,2.46-1.44,2.46-2.48,0-.38-.07-2.19-.16-4.33-.14-3.61-.35-8.14-.35-8.14H94s-.21,4.6-.38,8.24c-.08,2.09-.15,3.86-.15,4.23C93.49,181.29,96.13,182.33,96,182.73Z" transform="translate(-32.4 -99.67)"/>
            <path class="cls-10" d="M94,167.78s-.21,4.6-.38,8.24a16.73,16.73,0,0,1-11.39-.1c-.14-3.61-.35-8.14-.35-8.14Z" transform="translate(-32.4 -99.67)"/>
          </g>
          <g>
            <path class="cls-6" d="M65.16,147.5a4.87,4.87,0,0,0-6.59-.72c-4.42,3-2,14.9,8.44,11.21Z" transform="translate(-32.4 -99.67)"/>
            <path class="cls-11" d="M60.35,155.64a3.67,3.67,0,0,1,1.74-1.58,2.85,2.85,0,0,1,1.23-.25,3.5,3.5,0,0,1,1.24.24l-.52.4a7.22,7.22,0,0,0-1.7-3.56,2.66,2.66,0,0,0-1.73-.7,4.43,4.43,0,0,0-1,.08c-.34.07-.67.2-1,.29a4.35,4.35,0,0,1,2-.85,2.92,2.92,0,0,1,2.22.63,5.16,5.16,0,0,1,1.36,1.84,8.08,8.08,0,0,1,.61,2.16l.09.67-.6-.27a3,3,0,0,0-2-.2A4.39,4.39,0,0,0,60.35,155.64Z" transform="translate(-32.4 -99.67)"/>
          </g>
          <g>
            <path class="cls-6" d="M110.74,147.5a4.88,4.88,0,0,1,6.6-.72c4.41,3,2,14.9-8.44,11.21Z" transform="translate(-32.4 -99.67)"/>
            <path class="cls-11" d="M115.56,155.64a4.37,4.37,0,0,0-1.91-1.1,3,3,0,0,0-2,.2l-.6.27.08-.67a8.1,8.1,0,0,1,.62-2.16,5,5,0,0,1,1.36-1.84,2.9,2.9,0,0,1,2.22-.63,4.35,4.35,0,0,1,2,.85c-.36-.09-.68-.22-1-.29a4.35,4.35,0,0,0-1-.08,2.66,2.66,0,0,0-1.73.7,7.22,7.22,0,0,0-1.7,3.56l-.52-.4a3.5,3.5,0,0,1,1.24-.24,2.85,2.85,0,0,1,1.23.25A3.67,3.67,0,0,1,115.56,155.64Z" transform="translate(-32.4 -99.67)"/>
          </g>
          <path class="cls-6" d="M106.8,165.58c-6.71,7.63-18.84,7.59-18.84,7.59s-12.13,0-18.85-7.59c-7.24-8.24-8.85-32.54-2.75-40.27,5.67-7.17,14.82-9,21.6-9s15.91,1.85,21.58,9C115.64,133,114.05,157.34,106.8,165.58Z" transform="translate(-32.4 -99.67)"/>
          <path class="cls-12" d="M62.6,149c2.23,6.56,5.63-18.54,5.63-18.54s2.39,2.69,9,3.36c15.21,1.55,28.93-6.46,28.93-6.46s4.16,22.74,6.5,22.74,3.76-20,1.26-25.11a9.22,9.22,0,0,0-7.76-5s-20.26-17.44-37.89-5.76c-6.53,4.32-3.85,11.67-3.85,11.67S56.51,131.11,62.6,149Z" transform="translate(-32.4 -99.67)"/>
          <path class="cls-13" d="M78,150.48a2.44,2.44,0,1,1-2.44-2.56A2.49,2.49,0,0,1,78,150.48Z" transform="translate(-32.4 -99.67)"/>
          <path class="cls-12" d="M71.51,146.15s1.92-3.33,6.26-1.42" transform="translate(-32.4 -99.67)"/>
          <path class="cls-13" d="M97.5,150.48a2.43,2.43,0,1,0,2.43-2.56A2.49,2.49,0,0,0,97.5,150.48Z" transform="translate(-32.4 -99.67)"/>
          <path class="cls-12" d="M104,146.15s-1.92-3.33-6.25-1.42" transform="translate(-32.4 -99.67)"/>
          <path class="cls-11" d="M88,144.14a53.77,53.77,0,0,1,.54,8.1l-.54-.55c1.11,0,2.23,0,3.34.07l.73,0-.29.62a5.72,5.72,0,0,1-.72,1.11,5,5,0,0,1-.91.93,3.8,3.8,0,0,1-2.35.92A4.65,4.65,0,0,0,89.69,154a7.65,7.65,0,0,0,.67-.94,7.46,7.46,0,0,0,.51-1l.43.65c-1.11,0-2.23.07-3.34.07h-.55v-.55A53.79,53.79,0,0,1,88,144.14Z" transform="translate(-32.4 -99.67)"/>
          <g>
            <path class="cls-13" d="M92.83,162.38a7.28,7.28,0,0,1-9.74,0c-1-1.09-1.15-2.36-.69-3,.89-1.23,4.16-.44,5.56-.44s4.67-.79,5.56.44C94,160,93.8,161.3,92.83,162.38Z" transform="translate(-32.4 -99.67)"/>
            <path class="cls-14" d="M92.83,162.38a7.28,7.28,0,0,1-9.74,0,8.85,8.85,0,0,1,9.74,0Z" transform="translate(-32.4 -99.67)"/>
          </g>
        </g>
      </g>
    </g>
    <g>
      <ellipse class="cls-1" cx="223.06" cy="298.86" rx="58" ry="10.92"/>
      <g>
        <g>
          <path class="cls-13" d="M236.84,384.93v4s-16.67,6.09-18.53,9.23,30.17-3.83,30.17-6.63v-6.63Z" transform="translate(-32.4 -99.67)"/>
          <path class="cls-13" d="M273.62,384.93v4s16.67,6.09,18.53,9.23S262,394.36,262,391.56v-6.63Z" transform="translate(-32.4 -99.67)"/>
          <g>
            <g>
              <path class="cls-15" d="M281.59,272.84s-.12,4.16-.32,10.92c0,.72,0,1.46-.06,2.23-.89,30.19-3.07,101.95-3.69,102.76-.76,1.05-16,1.74-18,0s-3.25-91.48-3.25-91.48h-3.08s-1.54,91-2.09,91.32-11.84,2.82-17.95-.3c-2.71-1.41-4.68-72.34-5.39-102.31,0-.9,0-1.75-.07-2.58-.16-6.54-.23-10.56-.23-10.56Z" transform="translate(-32.4 -99.67)"/>
              <path class="cls-4" d="M281.59,272.84s-.12,4.16-.32,10.92c0,.72,0,1.46-.06,2.23a91,91,0,0,1-27.7,4.18c-11.72,0-20.19-2.08-25.78-4.19,0-.9,0-1.75-.07-2.58-.16-6.54-.23-10.56-.23-10.56Z" transform="translate(-32.4 -99.67)"/>
            </g>
            <path class="cls-5" d="M251.29,383.24a25,25,0,0,1-4.73,1.25,33.39,33.39,0,0,1-4.89.42,26.73,26.73,0,0,1-4.89-.46,19.66,19.66,0,0,1-4.65-1.53,31,31,0,0,0,4.73,1.06,29.75,29.75,0,0,0,4.81.31,40.87,40.87,0,0,0,4.82-.27C248.1,383.84,249.69,383.58,251.29,383.24Z" transform="translate(-32.4 -99.67)"/>
            <path class="cls-5" d="M258.91,383.24c1.59.34,3.19.6,4.79.78a41.16,41.16,0,0,0,4.83.27,29.82,29.82,0,0,0,4.81-.31,31.31,31.31,0,0,0,4.73-1.06,20,20,0,0,1-4.65,1.53,26.73,26.73,0,0,1-4.89.46,33.27,33.27,0,0,1-4.89-.42A24.78,24.78,0,0,1,258.91,383.24Z" transform="translate(-32.4 -99.67)"/>
          </g>
        </g>
        <g>
          <path class="cls-16" d="M294.05,229.23s2.89,38.24-2.37,54.31c0,0-5.11,1.61-7.73,0,0,0-3.35-42.16-2.36-50.17S294.05,229.23,294.05,229.23Z" transform="translate(-32.4 -99.67)"/>
          <path class="cls-15" d="M283.94,277.46c-.73,2.71-14.39,7.28-29.26,7.28-16.67,0-28.53-4.57-29.27-7.28s7.54-83.09,9-86.21,17.41-7.82,20.28-7.82,18.82,4.69,20.27,7.82S284.66,274.75,283.94,277.46Z" transform="translate(-32.4 -99.67)"/>
          <path class="cls-16" d="M228.53,232.63l-1.43,4.25c-5.35-.86-11-4.48-14-7.09.73-2.45,1.25-4.09,1.25-4.09C218.27,226.46,228.53,232.63,228.53,232.63Z" transform="translate(-32.4 -99.67)"/>
          <path class="cls-15" d="M241.11,187.33s-2.32,48.78-10.49,49.68a13.09,13.09,0,0,1-3.52-.13c-5.35-.86-11-4.48-14-7.09a7.26,7.26,0,0,1-2-2.39c-.56-2,14.87-31.73,17.76-34.27S241.11,187.33,241.11,187.33Z" transform="translate(-32.4 -99.67)"/>
          <g class="cls-7">
            <path class="cls-2" d="M228.84,236.88c0-2.58.14-5.14.29-7.71s.38-5.12.62-7.68.54-5.11.9-7.65l.55-3.82c.23-1.27.42-2.54.68-3.8,0,1.29,0,2.57-.08,3.86l-.21,3.85c-.14,2.57-.37,5.12-.61,7.68s-.54,5.11-.91,7.65S229.35,234.35,228.84,236.88Z" transform="translate(-32.4 -99.67)"/>
            <path class="cls-2" d="M228.84,207.23a6.55,6.55,0,0,1,2.45,5,5.93,5.93,0,0,1-1.78-2.21A6.25,6.25,0,0,1,228.84,207.23Z" transform="translate(-32.4 -99.67)"/>
          </g>
          <g>
            <g>
              <path class="cls-8" d="M246,211.57c4.14,17.87,3.29,22.18,1.75,24.17a11.92,11.92,0,0,1-4.26,3.24l-.5-1.19.25.59-.25-.59a10.68,10.68,0,0,0,3.74-2.83c1.11-1.44,2.11-5.41-2-23.1Z" transform="translate(-32.4 -99.67)"/>
              <rect class="cls-2" x="241.65" y="236.24" width="2.74" height="4.46" rx="1.11" transform="translate(109.76 464) rotate(-117.23)"/>
            </g>
            <g>
              <path class="cls-8" d="M234.42,211.67c-3.92,13.25-5,20.54-3.37,22.93a10.54,10.54,0,0,0,3.57,3.05L234,238.8a11.63,11.63,0,0,1-4-3.48c-1.94-2.85-1-9.81,3.19-24Z" transform="translate(-32.4 -99.67)"/>
              <rect class="cls-2" x="233.17" y="236.1" width="2.74" height="4.46" rx="1.11" transform="translate(-122.49 218.8) rotate(-59.33)"/>
            </g>
          </g>
          <path class="cls-15" d="M268.14,187.33s9.4,3.26,12.3,5.8,18.31,32.28,17.76,34.27-11.42,10.52-19.58,9.61S268.14,187.33,268.14,187.33Z" transform="translate(-32.4 -99.67)"/>
          <path class="cls-9" d="M239.94,191.06c.59-6.3,10.71-7.34,15.48-7.41,6.07-.08,11.19,1.11,13.16,7.27s2.29,12.9,2.39,19.27a.93.93,0,0,0,1.85,0c-.11-7.34.38-21.15-6.26-25.95s-27.48-3.85-28.46,6.82c-.11,1.19,1.73,1.18,1.84,0Z" transform="translate(-32.4 -99.67)"/>
          <g>
            <path class="cls-2" d="M276.14,213.68a4.25,4.25,0,1,1-4.24-4.24A4.24,4.24,0,0,1,276.14,213.68Z" transform="translate(-32.4 -99.67)"/>
            <path class="cls-8" d="M274.45,213.68a2.56,2.56,0,1,1-2.55-2.56A2.55,2.55,0,0,1,274.45,213.68Z" transform="translate(-32.4 -99.67)"/>
          </g>
          <path class="cls-5" d="M241.94,188.42a64.14,64.14,0,0,0,5.69,4.87,22,22,0,0,0,6.45,3.56h-.2a38.13,38.13,0,0,0,6.59-3.56,31.38,31.38,0,0,0,3-2.26,27.94,27.94,0,0,0,2.71-2.62,24.74,24.74,0,0,1-5.44,5.27,35.1,35.1,0,0,1-6.63,3.74l-.1,0-.1,0a16.34,16.34,0,0,1-3.47-1.6,27,27,0,0,1-3.1-2.18A41.81,41.81,0,0,1,241.94,188.42Z" transform="translate(-32.4 -99.67)"/>
          <path class="cls-2" d="M232.76,210.73a72.72,72.72,0,0,1,2.56-8.67A7.69,7.69,0,0,1,238,199c.26,0,.22-2.27.14-4.12-.07-1.62-.18-3.51.22-4a1.27,1.27,0,0,1,1.77,0c.43.49.4,2.39.4,4,0,1.85.07,4.1.33,4.1a8.52,8.52,0,0,1,2.66,3,61.41,61.41,0,0,1,2.8,8.82c.36,1.91-.27,2.13-.82,2.3-.78.24-1.25-.3-1.8-2.42-.86-3.36-1.9-9-4.21-9.06h0c-2.31.16-3.42,6.07-4.26,9.36-.53,2.06-1,2.25-1.76,2C232.9,212.81,232.34,212.56,232.76,210.73Z" transform="translate(-32.4 -99.67)"/>
          <g class="cls-7">
            <path class="cls-2" d="M280.56,236.88c-.5-2.53-.87-5.07-1.22-7.62s-.64-5.1-.91-7.65-.47-5.11-.62-7.68l-.2-3.85c0-1.29-.1-2.57-.08-3.86.26,1.26.45,2.53.68,3.8l.55,3.82c.36,2.54.63,5.1.9,7.65s.47,5.11.61,7.68S280.56,234.3,280.56,236.88Z" transform="translate(-32.4 -99.67)"/>
            <path class="cls-2" d="M280.56,207.23a6,6,0,0,1-.67,2.76,5.81,5.81,0,0,1-1.77,2.21,5.92,5.92,0,0,1,.67-2.75A6,6,0,0,1,280.56,207.23Z" transform="translate(-32.4 -99.67)"/>
          </g>
          <path class="cls-5" d="M280,232.34a13.16,13.16,0,0,0,2.33-.64c.77-.26,1.51-.58,2.24-.91a32.74,32.74,0,0,0,4.21-2.35,46.76,46.76,0,0,0,3.94-2.79c1.28-1,2.5-2.05,3.75-3.09-.54.61-1.1,1.19-1.66,1.79s-1.18,1.12-1.79,1.67a36.3,36.3,0,0,1-3.91,2.94,27.33,27.33,0,0,1-4.36,2.27A14.44,14.44,0,0,1,280,232.34Z" transform="translate(-32.4 -99.67)"/>
          <path class="cls-5" d="M229.57,232.34a14.56,14.56,0,0,1-4.76-1.11,27.23,27.23,0,0,1-4.35-2.27,36.42,36.42,0,0,1-3.92-2.94c-.61-.55-1.19-1.11-1.79-1.67s-1.12-1.18-1.66-1.79c1.25,1,2.48,2.1,3.75,3.09a46.91,46.91,0,0,0,3.95,2.79,32.08,32.08,0,0,0,4.21,2.35c.73.33,1.47.65,2.23.91A13.5,13.5,0,0,0,229.57,232.34Z" transform="translate(-32.4 -99.67)"/>
          <path class="cls-5" d="M225.37,274.71A66.62,66.62,0,0,0,232.5,277c1.21.34,2.43.61,3.64.92l3.67.77a84.6,84.6,0,0,0,14.88,1.47c2.5.1,5-.09,7.48-.21,1.25-.12,2.48-.3,3.72-.44l1.86-.24,1.83-.36c1.23-.25,2.46-.45,3.68-.74l3.6-1c.6-.17,1.22-.31,1.81-.51l1.75-.66,3.53-1.3a65.58,65.58,0,0,1-14.27,4.7l-1.85.4c-.62.1-1.24.17-1.87.25-1.24.16-2.49.35-3.74.47-2.51.15-5,.36-7.53.27a80.88,80.88,0,0,1-15-1.62A72.37,72.37,0,0,1,225.37,274.71Z" transform="translate(-32.4 -99.67)"/>
          <g>
            <rect class="cls-17" x="231.73" y="208.1" width="37.61" height="48.96" rx="4.09" transform="matrix(1, -0.07, 0.07, 1, -48.95, -80.45)"/>
            <g>
              <rect class="cls-8" x="239.98" y="205.64" width="17.83" height="5.4" rx="1.69" transform="matrix(1, -0.07, 0.07, 1, -46.94, -80.94)"/>
              <path class="cls-8" d="M253.35,202.52l.2,2.77-2.19.16-.09-1.27a1.22,1.22,0,0,0-1.31-1.12l-2.89.21a1.21,1.21,0,0,0-1.12,1.3l.09,1.27-2.19.16-.2-2.77a1.75,1.75,0,0,1,1.63-1.88l6.18-.46A1.78,1.78,0,0,1,253.35,202.52Z" transform="translate(-32.4 -99.67)"/>
            </g>
          </g>
          <path class="cls-16" d="M261.92,245.52l-.14,0c-2.93.94-5.79,1.78-8.56,2.52-25.49,6.83-43.46,5.86-44.56,2.83-.9-2.45,2.5-14.62,4.43-21.11,3,2.61,8.66,6.23,14,7.09l-1,2.92c2.3-.26,5-.47,7.6-.64h0c1.27-.08,2.51-.17,3.7-.23,4.62-.25,16.56-.6,16.56-.6C262.42,239.77,261.92,245.52,261.92,245.52Z" transform="translate(-32.4 -99.67)"/>
          <path class="cls-16" d="M253.76,247.93c.53-.06,7.58.56,9.36.14s7.1-2,7.37-3.41c.17-.88-.29-1-.29-1a1,1,0,0,0,.62-.74.9.9,0,0,0-.29-.9,1.79,1.79,0,0,0,.73-1.8c-.14-.59-1.3-.86-1.3-.86s1-.7.51-1.41-6.46.54-6.6.38c-.87-1,4.48.36,4.27-1.1-.07-.49-6.23-3.29-8.85-1.82a61.81,61.81,0,0,1-7,2.93Z" transform="translate(-32.4 -99.67)"/>
          <path class="cls-16" d="M292.52,279.71c0,.58,2.5,7.83,2.19,9.79s-1.88,7-2.79,7.37-.92-.27-.92-.27-1.29,2.95-1.93,3.13-.82-.14-.82-.14S287,301,286.3,301s-1-1.77-1-1.77-.62,1.11-1.48.66c-.64-.33.28-9.19.1-9.32-1.18-.87.06,5.18-1.53,5.07-.53,0-3-6.3-1.66-9.25,1.17-2.48,2.9-6.76,2.9-6.76Z" transform="translate(-32.4 -99.67)"/>
        </g>
        <g>
          <g>
            <path class="cls-16" d="M263,186.41c-1.65,4-9,6.72-9,6.72s-7.37-2.68-9-6.72c-.18-.45,2.78-1.62,2.78-2.79,0-.43-.09-2.46-.19-4.86-.16-4.07-.39-9.15-.39-9.15h13.62s-.23,5.17-.42,9.26c-.1,2.35-.17,4.33-.17,4.75C260.22,184.79,263.19,186,263,186.41Z" transform="translate(-32.4 -99.67)"/>
            <path class="cls-18" d="M260.81,169.61s-.23,5.17-.42,9.26a18.85,18.85,0,0,1-12.81-.11c-.16-4.07-.39-9.15-.39-9.15Z" transform="translate(-32.4 -99.67)"/>
          </g>
          <g>
            <path class="cls-16" d="M228.37,146.81A5.48,5.48,0,0,0,221,146c-5,3.41-2.29,16.75,9.49,12.6Z" transform="translate(-32.4 -99.67)"/>
            <path class="cls-19" d="M223,156a4.08,4.08,0,0,1,1.95-1.78,3.22,3.22,0,0,1,1.38-.28,3.9,3.9,0,0,1,1.39.27l-.58.45a8.09,8.09,0,0,0-1.91-4,3,3,0,0,0-1.95-.79,5.59,5.59,0,0,0-1.14.09c-.38.08-.75.23-1.15.32a4.86,4.86,0,0,1,2.27-1,3.27,3.27,0,0,1,2.5.71,5.56,5.56,0,0,1,1.52,2.07,9.17,9.17,0,0,1,.7,2.43l.1.74-.68-.29a3.41,3.41,0,0,0-2.27-.23A4.88,4.88,0,0,0,223,156Z" transform="translate(-32.4 -99.67)"/>
          </g>
          <g>
            <path class="cls-16" d="M279.61,146.81A5.49,5.49,0,0,1,287,146c5,3.41,2.29,16.75-9.49,12.6Z" transform="translate(-32.4 -99.67)"/>
            <path class="cls-19" d="M285,156a4.88,4.88,0,0,0-2.13-1.24,3.41,3.41,0,0,0-2.27.23l-.68.29.1-.74a8.81,8.81,0,0,1,.7-2.43,5.56,5.56,0,0,1,1.52-2.07,3.27,3.27,0,0,1,2.5-.71,4.9,4.9,0,0,1,2.27,1c-.4-.09-.77-.24-1.15-.32a5.59,5.59,0,0,0-1.14-.09,3,3,0,0,0-1.95.79,8.09,8.09,0,0,0-1.91,4l-.58-.45a3.9,3.9,0,0,1,1.39-.27,3.22,3.22,0,0,1,1.38.28A4.08,4.08,0,0,1,285,156Z" transform="translate(-32.4 -99.67)"/>
          </g>
          <path class="cls-16" d="M275.17,167.13c-7.53,8.58-21.17,8.53-21.17,8.53s-13.64.05-21.19-8.53c-8.14-9.26-9.95-36.58-3.09-45.27,6.38-8.06,16.66-10.14,24.28-10.14s17.89,2.08,24.26,10.14C285.12,130.55,283.33,157.87,275.17,167.13Z" transform="translate(-32.4 -99.67)"/>
          <path class="cls-13" d="M242.83,150.15a2.74,2.74,0,1,1-2.73-2.87A2.81,2.81,0,0,1,242.83,150.15Z" transform="translate(-32.4 -99.67)"/>
          <path class="cls-13" d="M235.51,145.29s2.16-3.75,7-1.6" transform="translate(-32.4 -99.67)"/>
          <path class="cls-13" d="M264.72,150.15a2.74,2.74,0,1,0,2.74-2.87A2.82,2.82,0,0,0,264.72,150.15Z" transform="translate(-32.4 -99.67)"/>
          <path class="cls-13" d="M272,145.29s-2.16-3.75-7-1.6" transform="translate(-32.4 -99.67)"/>
          <path class="cls-19" d="M254.84,143a61.85,61.85,0,0,0-.62,9.1l.62-.61c-1.26,0-2.51,0-3.76.08l-.83,0,.34.7a6.35,6.35,0,0,0,.8,1.25,7.23,7.23,0,0,0,1,1,4.28,4.28,0,0,0,2.65,1,5.15,5.15,0,0,1-2.17-1.52,9,9,0,0,1-.76-1.07,7.5,7.5,0,0,1-.56-1.14l-.49.73c1.25.06,2.5.08,3.76.09h.62v-.62A60.5,60.5,0,0,0,254.84,143Z" transform="translate(-32.4 -99.67)"/>
          <path class="cls-20" d="M259.47,163.53a8.17,8.17,0,0,1-10.94,0c-1.08-1.22-1.3-2.65-.78-3.37,1-1.39,4.68-.49,6.25-.49s5.25-.9,6.25.49C260.76,160.88,260.57,162.32,259.47,163.53Z" transform="translate(-32.4 -99.67)"/>
          <path class="cls-13" d="M225.49,147.28c.95,2.72,4.8-10.4,5-13.43l.82,5.94s13.78-2.11,28.2-15.18V130s9.15.26,15.88-6.2c0,0,4,23.29,6.73,23.46s6.07-25.49-4-28.35c0,0-5.3-15.78-31.7-11C221.88,112.44,221.3,135.24,225.49,147.28Z" transform="translate(-32.4 -99.67)"/>
          <g class="cls-7">
            <path class="cls-9" d="M247.56,161.73a30,30,0,0,0,6.41.64,47.84,47.84,0,0,0,6.43-.47,30.25,30.25,0,0,1-6.43.72A22,22,0,0,1,247.56,161.73Z" transform="translate(-32.4 -99.67)"/>
          </g>
        </g>
      </g>
    </g>
    <g>
      <ellipse class="cls-1" cx="133.84" cy="329.62" rx="68.98" ry="12.99"/>
      <g>
        <g>
          <g>
            <g>
              <path class="cls-12" d="M145.82,413.7v4.47s-18.47,6.75-20.54,10.23,33.43-4.25,33.43-7.35V413.7Z" transform="translate(-32.4 -99.67)"/>
              <path class="cls-12" d="M187.4,413.7v4.47s18.47,6.75,20.53,10.23-33.42-4.25-33.42-7.35V413.7Z" transform="translate(-32.4 -99.67)"/>
            </g>
            <path class="cls-2" d="M198.18,282.42s-.15,4.87-.38,12.77c0,.83,0,1.69-.07,2.6-1,35.27-3.58,119.11-4.3,120.06-.89,1.23-18.65,2-21.07,0S168.56,311,168.56,311H165s-1.8,106.36-2.45,106.7-13.83,3.29-21-.36c-3.16-1.64-5.47-84.52-6.3-119.53,0-1,0-2-.07-3-.19-7.64-.28-12.35-.28-12.35Z" transform="translate(-32.4 -99.67)"/>
          </g>
          <path class="cls-8" d="M209.92,323.2c-.19,2.35-27.17,10-40,10-1.38,0-3.14-10.17-3.14-10.17s-1.77,10.17-3.15,10.17c-12.82,0-39.79-7.69-40-10s11.91-119.11,12.26-122.79,15.93-15.58,15.93-15.58l14.95,1.57,15-1.57s15.57,11.91,15.92,15.58S210.12,320.83,209.92,323.2Z" transform="translate(-32.4 -99.67)"/>
          <polygon class="cls-15" points="143.5 85.02 134.51 138.81 128.02 99.94 128.01 99.92 125.52 85.02 143.5 85.02"/>
          <path class="cls-21" d="M166.54,233v28.15c-.39-14.65-11.95-43.4-19.23-52.94-1.64-2.15,4.53-10,4.53-10s-8.19-.46-9.13-1.76c-.18-.24,0-.77.47-1.5,1.95-3.22,8.66-10.07,8.66-10.07l4.79,3.8C163.13,200.83,165.66,218.27,166.54,233Z" transform="translate(-32.4 -99.67)"/>
          <path class="cls-21" d="M167.22,233v28.15c.39-14.65,11.94-43.4,19.23-52.94,1.64-2.15-4.53-10-4.53-10s8.19-.46,9.13-1.76c.17-.24,0-.77-.47-1.5-2-3.22-8.66-10.07-8.66-10.07l-4.79,3.8C170.62,200.83,168.09,218.27,167.22,233Z" transform="translate(-32.4 -99.67)"/>
          <path class="cls-21" d="M166.79,323.07c-.23-5.34-.33-10.68-.42-16s-.08-10.67-.13-16,0-10.67.13-16l.15-8c.09-2.67.14-5.33.27-8,.12,2.67.17,5.33.27,8l.15,8c.09,5.33.08,10.67.12,16s0,10.67-.12,16S167,317.73,166.79,323.07Z" transform="translate(-32.4 -99.67)"/>
          <path class="cls-8" d="M142.65,192.45s-15.47,13.82-16.19,19.13-13.28,57.53-13.29,60.94c0,9.31,17.34,32.29,17.34,32.29S138.6,298.27,141,290c0,0-11.35-18.38-11.3-22.58C129.71,266,142.65,192.45,142.65,192.45Z" transform="translate(-32.4 -99.67)"/>
          <path class="cls-8" d="M191.1,192.45s15.47,13.82,16.18,19.13,13.29,57.53,13.3,60.94c0,9.31-17.34,32.29-17.34,32.29s-8.09-6.54-10.49-14.84c0,0,11.35-18.38,11.3-22.58C204,266,191.1,192.45,191.1,192.45Z" transform="translate(-32.4 -99.67)"/>
          <path class="cls-21" d="M141.7,286a17,17,0,0,1-1.09,6.45,24.63,24.63,0,0,1-3.05,5.84,28.26,28.26,0,0,1-9.82,8.54,47.29,47.29,0,0,0,8.93-9.18,32,32,0,0,0,3.15-5.52A25.19,25.19,0,0,0,141.7,286Z" transform="translate(-32.4 -99.67)"/>
          <path class="cls-21" d="M191.87,286a25.21,25.21,0,0,0,1.89,6.13,34.25,34.25,0,0,0,3.14,5.53c.65.84,1.25,1.72,2,2.5.35.4.67.82,1,1.2l1.12,1.15c.72.79,1.56,1.46,2.33,2.21s1.66,1.37,2.47,2.11c-1-.53-1.88-1.1-2.8-1.68s-1.79-1.26-2.59-2a29.2,29.2,0,0,1-4.44-4.85,25.42,25.42,0,0,1-3-5.85A17.13,17.13,0,0,1,191.87,286Z" transform="translate(-32.4 -99.67)"/>
          <g>
            <path class="cls-22" d="M175.9,184.69l-2.49,14.9h0s-4.81-3.37-6.49-7.94c-1.68,4.57-6.49,7.94-6.49,7.94h0l-2.49-14.9Z" transform="translate(-32.4 -99.67)"/>
            <polygon class="cls-2" points="139.31 110.12 134.53 138.81 134.51 131.32 134.51 138.81 129.72 110.16 132.71 93.75 134.51 93.75 134.53 93.75 136.32 93.75 139.31 110.12"/>
          </g>
          <path class="cls-8" d="M166.54,261.14c0-20-9.69-44.41-17.52-54.32a.16.16,0,0,1,0-.07c-.23-.48.22-1.76.92-3.26,1.47-3.1,4-7.16,4-7.16S146,196,143.18,194.9c-.56-.22-.92-.46-1-.74-.34-1.71,9.75-11.52,10.17-11.54a1,1,0,0,1,.53.23,39.77,39.77,0,0,1,3.72,5.78c6.5,12.2,9,29.64,9.91,44.36A235.21,235.21,0,0,1,166.54,261.14Z" transform="translate(-32.4 -99.67)"/>
          <path class="cls-8" d="M180.83,182.86a.91.91,0,0,1,.52-.24c.44,0,10.52,9.83,10.18,11.54s-11.71,2.17-11.71,2.17,5.85,9.29,4.9,10.49c-7.84,9.91-17.52,34.26-17.52,54.32C167.2,261.14,163.1,205.54,180.83,182.86Z" transform="translate(-32.4 -99.67)"/>
          <g>
            <g>
              <g>
                <path class="cls-9" d="M158.86,207.14c4,17.28,3.18,21.45,1.69,23.38a11.53,11.53,0,0,1-4.12,3.13L156,232.5l.24.57-.25-.57a10.09,10.09,0,0,0,3.62-2.74c1.08-1.39,2.05-5.23-1.91-22.34Z" transform="translate(-32.4 -99.67)"/>
                <rect class="cls-2" x="154.65" y="231" width="2.65" height="4.31" rx="1.11" transform="translate(-12.39 378.86) rotate(-117.23)"/>
              </g>
              <g>
                <path class="cls-9" d="M147.66,207.23c-3.8,12.82-4.83,19.87-3.26,22.18a10,10,0,0,0,3.45,3l-.56,1.11a11.33,11.33,0,0,1-3.92-3.37c-1.87-2.75-1-9.48,3.09-23.23Z" transform="translate(-32.4 -99.67)"/>
                <rect class="cls-2" x="146.45" y="230.87" width="2.65" height="4.31" rx="1.11" transform="matrix(0.51, -0.86, 0.86, 0.51, -160.43, 141.55)"/>
              </g>
            </g>
            <path class="cls-9" d="M153,187.3c.56-6.09,10.35-7.1,15-7.17,5.87-.08,10.82,1.07,12.73,7s2.22,12.48,2.32,18.64a.89.89,0,0,0,1.78,0c-.11-7.1.37-20.46-6.05-25.1s-26.58-3.73-27.54,6.6c-.1,1.15,1.68,1.14,1.79,0Z" transform="translate(-32.4 -99.67)"/>
            <path class="cls-2" d="M188,209.18a4.11,4.11,0,1,1-4.1-4.11A4.1,4.1,0,0,1,188,209.18Z" transform="translate(-32.4 -99.67)"/>
            <circle class="cls-8" cx="151.51" cy="109.51" r="2.47"/>
            <path class="cls-2" d="M146.05,206.32a71.13,71.13,0,0,1,2.48-8.38,7.4,7.4,0,0,1,2.58-3c.25,0,.21-2.2.14-4-.07-1.58-.18-3.4.21-3.9a1.22,1.22,0,0,1,1.71,0c.42.47.38,2.3.39,3.88,0,1.78.06,4,.31,4a8,8,0,0,1,2.57,2.9,59.14,59.14,0,0,1,2.72,8.52c.34,1.85-.27,2.06-.8,2.23-.75.23-1.21-.29-1.73-2.34-.83-3.25-1.84-8.71-4.08-8.76h0c-2.24.16-3.31,5.88-4.12,9.06-.51,2-.94,2.17-1.7,2C146.19,208.34,145.64,208.09,146.05,206.32Z" transform="translate(-32.4 -99.67)"/>
          </g>
          <g class="cls-7">
            <path class="cls-21" d="M137.52,220.18l-1.46,9-1.53,9c-1,6-2.12,12-3.08,18-.52,3-1,6-1.41,9l-.12,1.12a6.39,6.39,0,0,0,0,1,8.51,8.51,0,0,0,.38,1c.14.34.29.69.45,1l1.93,4.13,8,16.43q-4.59-7.92-8.8-16.05c-.7-1.36-1.4-2.72-2-4.12-.17-.34-.33-.69-.48-1.06a9.2,9.2,0,0,1-.43-1.13,6.93,6.93,0,0,1-.05-1.29l.11-1.16c.35-3.06.83-6.06,1.32-9.08,1-6,2.14-12,3.33-18S136.14,226.13,137.52,220.18Z" transform="translate(-32.4 -99.67)"/>
            <path class="cls-21" d="M139,223.49a4.75,4.75,0,0,1-2.59,2.87,4.75,4.75,0,0,1,2.59-2.87Z" transform="translate(-32.4 -99.67)"/>
          </g>
          <g class="cls-7">
            <path class="cls-21" d="M196.13,220.18c1.38,5.95,2.62,11.92,3.82,17.9s2.28,12,3.33,18c.49,3,1,6,1.32,9.08l.11,1.16a6.93,6.93,0,0,1-.05,1.29,11.17,11.17,0,0,1-.43,1.13c-.15.37-.31.72-.48,1.06-.63,1.4-1.33,2.76-2,4.12q-4.22,8.13-8.8,16.05l8-16.43,1.93-4.13c.16-.34.31-.69.45-1a8.51,8.51,0,0,0,.38-1,6.39,6.39,0,0,0,0-1l-.13-1.12c-.37-3-.89-6-1.4-9-1-6-2.06-12-3.08-18l-1.53-9Z" transform="translate(-32.4 -99.67)"/>
            <path class="cls-21" d="M194.61,223.49a4.73,4.73,0,0,1,2.6,2.87,4.32,4.32,0,0,1-1.6-1.16A4.42,4.42,0,0,1,194.61,223.49Z" transform="translate(-32.4 -99.67)"/>
          </g>
          <g>
            <g>
              <path class="cls-21" d="M178,240.67c2.89.12,5.79.16,8.68.08s5.78-.22,8.65-.5l.43,0,0,.45c.24,4.37.38,8.74.57,13.12l.07,1.64,0,.82,0,.41a.55.55,0,0,1,0,.17,1,1,0,0,1-.1.28,1.33,1.33,0,0,1-.21.27,6.29,6.29,0,0,1-1.51,1q-.75.39-1.5.72c-2,.9-4.06,1.69-6.16,2.41a4.64,4.64,0,0,1-.45.12,1,1,0,0,1-.39,0l-.24-.06a7.07,7.07,0,0,1-.82-.3c-.52-.21-1-.44-1.52-.67-1-.46-2-.95-3-1.46-.49-.26-1-.53-1.45-.81l-.71-.43a4,4,0,0,1-.76-.58,2.63,2.63,0,0,1-.22-1l0-.84c0-.55,0-1.1,0-1.65C177.43,249.4,177.68,245,178,240.67Zm0,0c0,4.37,0,8.75.11,13.1,0,.55,0,1.09.06,1.63l.07.8.05.38c0,.17,0,.12,0,.2a4,4,0,0,0,.57.38l.7.39c.47.26.95.5,1.44.74q1.45.73,2.94,1.41c.49.22,1,.44,1.48.63a6.34,6.34,0,0,0,.72.26l.15,0s0,0,0,0l.34-.1c2-.71,4.06-1.54,6-2.43.49-.23,1-.46,1.44-.71a6.83,6.83,0,0,0,1.24-.79l.05,0s0,.05,0,.09v-.44l0-.82,0-1.63c-.12-4.36-.29-8.72-.37-13.08l.46.4c-2.91.18-5.82.25-8.72.19S180.86,241,178,240.67Z" transform="translate(-32.4 -99.67)"/>
              <path class="cls-21" d="M177.84,245.15c1.47.19,2.95.3,4.42.36s2.94.1,4.41.07c3,0,5.89-.23,8.84-.43a40.14,40.14,0,0,1-4.39.71c-1.47.17-3,.22-4.44.27s-3,0-4.45-.2A24.19,24.19,0,0,1,177.84,245.15Z" transform="translate(-32.4 -99.67)"/>
            </g>
            <g>
              <path class="cls-2" d="M181.19,240.68a3.71,3.71,0,0,0,2.78,0s.17-8.29-1.39-8.29S181.19,240.68,181.19,240.68Z" transform="translate(-32.4 -99.67)"/>
              <path class="cls-2" d="M182.58,235.72a20.49,20.49,0,0,1,0,9.43,20.49,20.49,0,0,1,0-9.43Z" transform="translate(-32.4 -99.67)"/>
            </g>
            <g>
              <path class="cls-14" d="M185.29,240.68a3.69,3.69,0,0,0,2.77,0s.18-8.29-1.38-8.29S185.29,240.68,185.29,240.68Z" transform="translate(-32.4 -99.67)"/>
              <path class="cls-14" d="M186.68,235.72a20.49,20.49,0,0,1,0,9.43,20.49,20.49,0,0,1,0-9.43Z" transform="translate(-32.4 -99.67)"/>
            </g>
          </g>
        </g>
        <g>
          <g>
            <path class="cls-23" d="M175.9,181.57c-1.65,4-9,6.71-9,6.71s-7.35-2.68-9-6.71c-.19-.44,2.76-1.61,2.76-2.78,0-.43-.08-2.45-.18-4.85-.16-4.06-.39-9.13-.39-9.13h13.59s-.23,5.16-.42,9.24c-.1,2.35-.17,4.33-.17,4.74C173.12,180,176.08,181.13,175.9,181.57Z" transform="translate(-32.4 -99.67)"/>
            <path class="cls-24" d="M173.71,164.81s-.23,5.16-.42,9.24a18.82,18.82,0,0,1-12.78-.11c-.16-4.06-.39-9.13-.39-9.13Z" transform="translate(-32.4 -99.67)"/>
          </g>
          <g>
            <path class="cls-23" d="M141.35,142.06a5.47,5.47,0,0,0-7.4-.81c-4.95,3.4-2.29,16.71,9.47,12.57Z" transform="translate(-32.4 -99.67)"/>
            <path class="cls-25" d="M136,151.19a4.06,4.06,0,0,1,2-1.77,3.2,3.2,0,0,1,1.37-.28,4.08,4.08,0,0,1,1.39.26l-.58.45a7.94,7.94,0,0,0-1.91-4,2.9,2.9,0,0,0-1.94-.79,4.38,4.38,0,0,0-1.13.09c-.39.07-.75.22-1.15.32a4.86,4.86,0,0,1,2.26-1,3.27,3.27,0,0,1,2.5.7,5.79,5.79,0,0,1,1.52,2.07,9.19,9.19,0,0,1,.69,2.42l.1.75-.68-.3a3.38,3.38,0,0,0-2.26-.23A4.88,4.88,0,0,0,136,151.19Z" transform="translate(-32.4 -99.67)"/>
          </g>
          <g>
            <path class="cls-23" d="M192.47,142.06a5.47,5.47,0,0,1,7.4-.81c4.95,3.4,2.29,16.71-9.47,12.57Z" transform="translate(-32.4 -99.67)"/>
            <path class="cls-25" d="M197.87,151.19a4.94,4.94,0,0,0-2.13-1.24,3.38,3.38,0,0,0-2.26.23l-.68.3.1-.75a8.83,8.83,0,0,1,.69-2.42,5.68,5.68,0,0,1,1.52-2.07,3.25,3.25,0,0,1,2.49-.7,4.86,4.86,0,0,1,2.27,1c-.4-.1-.77-.25-1.15-.32a4.43,4.43,0,0,0-1.14-.09,2.94,2.94,0,0,0-1.94.79,8,8,0,0,0-1.91,4l-.58-.45a4.14,4.14,0,0,1,1.4-.26,3.2,3.2,0,0,1,1.37.28A4.11,4.11,0,0,1,197.87,151.19Z" transform="translate(-32.4 -99.67)"/>
          </g>
          <path class="cls-23" d="M188,162.34c-7.52,8.56-21.13,8.51-21.13,8.51s-13.6.05-21.14-8.51c-8.12-9.24-9.93-36.5-3.08-45.17,6.36-8,16.62-10.12,24.22-10.12s17.85,2.08,24.21,10.12C198,125.84,196.18,153.1,188,162.34Z" transform="translate(-32.4 -99.67)"/>
          <path class="cls-13" d="M155.77,145.4a2.73,2.73,0,1,1-2.73-2.87A2.8,2.8,0,0,1,155.77,145.4Z" transform="translate(-32.4 -99.67)"/>
          <path class="cls-17" d="M148.46,138.35s2.16-3.73,7-1.59" transform="translate(-32.4 -99.67)"/>
          <path class="cls-13" d="M177.61,145.4a2.73,2.73,0,1,0,2.73-2.87A2.8,2.8,0,0,0,177.61,145.4Z" transform="translate(-32.4 -99.67)"/>
          <path class="cls-17" d="M184.92,138.35s-2.16-3.73-7-1.59" transform="translate(-32.4 -99.67)"/>
          <path class="cls-25" d="M166.91,138.29a61.58,61.58,0,0,1,.62,9.08l-.62-.61c1.25,0,2.5,0,3.75.08l.82,0-.33.7a6.66,6.66,0,0,1-.8,1.25,6.27,6.27,0,0,1-1,1,4.19,4.19,0,0,1-2.64,1,5,5,0,0,0,2.17-1.51,9.8,9.8,0,0,0,.75-1.07,7.5,7.5,0,0,0,.56-1.14l.49.73c-1.25.06-2.5.08-3.75.09h-.62v-.62A60.23,60.23,0,0,1,166.91,138.29Z" transform="translate(-32.4 -99.67)"/>
          <path class="cls-13" d="M160.83,154.61a8.41,8.41,0,0,0,3.49,3,6,6,0,0,0,2.16.42,11.7,11.7,0,0,0,1.18,0c.4,0,.8-.1,1.23-.12a7,7,0,0,1-1.1.64,5.2,5.2,0,0,1-1.24.36,4.71,4.71,0,0,1-2.64-.26,5.07,5.07,0,0,1-3.08-4Z" transform="translate(-32.4 -99.67)"/>
          <rect class="cls-26" x="112.24" y="40.84" width="16.8" height="11.07" rx="4.45"/>
          <rect class="cls-26" x="139.54" y="40.84" width="16.8" height="11.07" rx="4.45"/>
          <path class="cls-2" d="M156.57,152.13h-7.06a5.42,5.42,0,0,1-5.41-5.42v-1.33a5.42,5.42,0,0,1,5.41-5.42h7.06a5.42,5.42,0,0,1,5.42,5.42v1.33A5.42,5.42,0,0,1,156.57,152.13Zm-7.06-11.07a4.33,4.33,0,0,0-4.32,4.32v1.33a4.33,4.33,0,0,0,4.32,4.33h7.06a4.33,4.33,0,0,0,4.32-4.33v-1.33a4.33,4.33,0,0,0-4.32-4.32Z" transform="translate(-32.4 -99.67)"/>
          <path class="cls-2" d="M183.87,152.13h-7.06a5.42,5.42,0,0,1-5.42-5.42v-1.33a5.42,5.42,0,0,1,5.42-5.42h7.06a5.42,5.42,0,0,1,5.42,5.42v1.33A5.42,5.42,0,0,1,183.87,152.13Zm-7.06-11.07a4.33,4.33,0,0,0-4.32,4.32v1.33a4.33,4.33,0,0,0,4.32,4.33h7.06a4.33,4.33,0,0,0,4.32-4.33v-1.33a4.33,4.33,0,0,0-4.32-4.32Z" transform="translate(-32.4 -99.67)"/>
          <path class="cls-2" d="M171.64,145.84c-4.89-3.17-9.85,0-9.9,0l-.6-.92c.06,0,5.62-3.55,11.1,0Z" transform="translate(-32.4 -99.67)"/>
          <rect class="cls-2" x="140.51" y="138.46" width="1.1" height="8.24" transform="translate(-85.07 94.85) rotate(-60.31)"/>
          <rect class="cls-2" x="188.2" y="142.04" width="8.24" height="1.1" transform="translate(-77.76 14.22) rotate(-29.67)"/>
          <path class="cls-17" d="M188.38,122.05s1.15,20.48,5.68,20.48c3.63,0,3.13-20.48,3.13-20.48Z" transform="translate(-32.4 -99.67)"/>
          <path class="cls-17" d="M140.08,142.53c3,0,4-15.91,4-15.91s14.13,5.65,28,3.72l-7.74-3.72s21.45,7.06,38.76-5.55l-7.64-2.89s-8.28-14.07-23.91-15.29c-7.68-.6-19.51-.68-28.23,10.66,0,0-5.9,1.77-7.54,6.74C133.34,127.44,136.42,142.53,140.08,142.53Z" transform="translate(-32.4 -99.67)"/>
        </g>
        <path class="cls-2" d="M171.46,187.34,170.05,192a2,2,0,0,1-1.92,1.42h-2.44a2,2,0,0,1-1.92-1.42l-1.4-4.69a2,2,0,0,1,1.92-2.58h5.25A2,2,0,0,1,171.46,187.34Z" transform="translate(-32.4 -99.67)"/>
        <g>
          <path class="cls-15" d="M166.91,184.75s-7.77-4.51-8.56-4.74-5.11,3-5.11,3,5,11.1,6.29,11.1S166.91,184.75,166.91,184.75Z" transform="translate(-32.4 -99.67)"/>
          <path class="cls-15" d="M166.87,184.75s7.78-4.51,8.56-4.74,5.12,3,5.12,3-5,11.1-6.29,11.1S166.87,184.75,166.87,184.75Z" transform="translate(-32.4 -99.67)"/>
        </g>
      </g>
    </g>
    <g>
      <ellipse class="cls-1" cx="385.87" cy="273.2" rx="53.15" ry="10.01"/>
      <g>
        <path class="cls-2" d="M407.47,363.77l-.05,3.58s-14.92,5.18-16.62,8,26.89-3,26.93-5.48.09-5.9.09-5.9Z" transform="translate(-32.4 -99.67)"/>
        <path class="cls-2" d="M433.63,369.27l-.05,3.58s13.92,9.48,13.35,12.68c-1.11,6.29-23.78-8-23.74-10.53s.09-5.9.09-5.9Z" transform="translate(-32.4 -99.67)"/>
        <path class="cls-3" d="M440.81,369.88c-1.7,2.34-18.48,3.06-20.22-.32a30.3,30.3,0,0,1-.74-3.92,20.87,20.87,0,0,1-15.62-.45c-.76-.32-9.61-63.66-13.85-94.32-.12-.82-.22-1.63-.33-2.39-1.16-8.45-1.91-13.88-1.91-13.88l50.28.8s.27,7.24.63,18.07c0,1,.06,2,.1,3C440.24,309.05,442,368.19,440.81,369.88Z" transform="translate(-32.4 -99.67)"/>
        <path class="cls-4" d="M439.05,273.47c-25.19,5.84-41.1-.23-49-5-1.16-8.45-1.91-13.88-1.91-13.88l50.28.8S438.69,262.64,439.05,273.47Z" transform="translate(-32.4 -99.67)"/>
        <g>
          <path class="cls-3" d="M407,177.58s-2.76,43.34-10,44a12.52,12.52,0,0,1-4-.35,29.12,29.12,0,0,1-11.81-6.66,5.25,5.25,0,0,1-1.42-1.81c-.45-1.79,13.67-28,16.28-30.23S407,177.58,407,177.58Z" transform="translate(-32.4 -99.67)"/>
          <path class="cls-3" d="M440.64,265.85c-.25.87-2,1.95-4.71,3-.33.11-.64-2.16-1-4.5s-.71-5-1.11-4.88-.6,2.8-.94,5.47-.61,5-.91,5.12a72.48,72.48,0,0,1-18.74,2.18c-15.55-.25-26.53-4.69-27.17-7.22a16.82,16.82,0,0,1,.27-3.5c.87-6.88,3.41-22.68,4.81-38.63.15-1.78-3.08-8.94-2.15-13.58,1.64-8.12,7.53-18.37,11-23,1.91-2.6,5.9-10,14.8-9.83,6.87.11,17.45,6,18.76,8.94,1.16,2.58,6.39,61.51,7.08,76.9A22,22,0,0,1,440.64,265.85Z" transform="translate(-32.4 -99.67)"/>
          <path class="cls-3" d="M426.3,180.68s8.32,3,10.86,5.33,16.1,28.86,15.31,31.9c-.46,1.78-10.3,8-17.54,7.1S426.3,180.68,426.3,180.68Z" transform="translate(-32.4 -99.67)"/>
          <path class="cls-5" d="M440.7,262.23a14.59,14.59,0,0,1-2.77,1.3,15,15,0,0,1-3,.78,15.1,15.1,0,0,1,2.77-1.29A15.91,15.91,0,0,1,440.7,262.23Z" transform="translate(-32.4 -99.67)"/>
          <path class="cls-5" d="M432.92,264.9a60.64,60.64,0,0,1-11.73,2.34,71.65,71.65,0,0,1-12,.07,78.85,78.85,0,0,1-11.82-2,60.6,60.6,0,0,1-11.28-3.95,84.87,84.87,0,0,0,11.43,3.34,87.78,87.78,0,0,0,11.74,1.78,77.12,77.12,0,0,0,11.87.12l3-.24c1-.1,2-.28,2.94-.41l1.48-.19,1.46-.29Z" transform="translate(-32.4 -99.67)"/>
          <g class="cls-7">
            <path class="cls-2" d="M391,220.7a24.88,24.88,0,0,1-2.53-7.59,16.2,16.2,0,0,1-.15-4.06,14.23,14.23,0,0,1,1-3.94,69.36,69.36,0,0,1,3.46-7.22c1.29-2.33,2.64-4.63,4.13-6.84-1.19,2.38-2.4,4.75-3.57,7.13s-2.33,4.76-3.26,7.23a13.56,13.56,0,0,0-1.06,3.72,18.84,18.84,0,0,0,0,3.9,26,26,0,0,0,.72,3.88A34.61,34.61,0,0,0,391,220.7Z" transform="translate(-32.4 -99.67)"/>
            <path class="cls-2" d="M394.82,191a7.29,7.29,0,0,1-.06,3.93,6.35,6.35,0,0,1-.25-2A7,7,0,0,1,394.82,191Z" transform="translate(-32.4 -99.67)"/>
          </g>
          <g class="cls-7">
            <path class="cls-2" d="M437.8,225.09a8.94,8.94,0,0,1-4.31-.49,4.51,4.51,0,0,1-1.83-1.29,4.34,4.34,0,0,1-.91-2.08l-1.36-8.56c-.44-2.86-.82-5.72-1.22-8.58s-.71-5.74-1-8.63c.61,2.83,1.12,5.68,1.62,8.53s.94,5.7,1.35,8.56.81,5.73,1.09,8.61a3.94,3.94,0,0,0,2.34,3.16A9.59,9.59,0,0,0,437.8,225.09Z" transform="translate(-32.4 -99.67)"/>
            <path class="cls-2" d="M425.21,197.57a4.66,4.66,0,0,1,1.67,1.23,4.76,4.76,0,0,1,1.07,1.78,4.67,4.67,0,0,1-1.68-1.23A4.88,4.88,0,0,1,425.21,197.57Z" transform="translate(-32.4 -99.67)"/>
          </g>
          <path class="cls-5" d="M451,213.11a17.17,17.17,0,0,1-4.3,3.46,27.94,27.94,0,0,1-5.05,2.27,32.41,32.41,0,0,1-5.41,1.17c-.91.14-1.84.15-2.76.23s-1.84,0-2.75,0c1.83-.16,3.65-.3,5.45-.62a38.24,38.24,0,0,0,5.3-1.28,31.6,31.6,0,0,0,5-2.12A22.2,22.2,0,0,0,451,213.11Z" transform="translate(-32.4 -99.67)"/>
          <path class="cls-27" d="M393.66,268.64a4.91,4.91,0,0,0-.39-1.42c-.31-.76-.75-1.76-1.31-2.94-.66-1.4-1.48-3-2.36-4.83l-2.18-4.37c-3.09-6.22-6.37-13.07-7.4-17.16-1.38-5.47,1.33-18.54,1.69-22.72a28.36,28.36,0,0,0,9,5.39,6.64,6.64,0,0,1,.5,2s-1.12,10.4-1.13,11.15c0,.58,2.91,7.48,6.05,14.8l.84,2c.8,1.89,1.62,3.76,2.4,5.53l2.23,5.16c.66,1.52,1.22,2.78,1.61,3.7s.61,1.43.65,1.56C404.19,267.46,393.63,271,393.66,268.64Z" transform="translate(-32.4 -99.67)"/>
          <path class="cls-27" d="M393.41,267.62c.16.53.87,7.9,1.64,9.65s3.47,6.07,4.4,6.18.8-.48.8-.48,1.92,2.44,2.56,2.45.74-.33.74-.33,1.54,1,2.14.8.49-1.9.49-1.9.85.89,1.55.26c.51-.46-2.52-8.49-2.38-8.66.88-1.1,1.21,4.84,2.66,4.35.49-.17,1.3-6.62-.72-9a63.63,63.63,0,0,1-4-5.68Z" transform="translate(-32.4 -99.67)"/>
          <path class="cls-27" d="M450.89,219.65a25.11,25.11,0,0,1-14.44,5.45s.79,3.37.78,3.84-28.1,13.7-39.91,22.42c-2.42,1.78,1.41,7.55,3.38,7.92s45.41-14.44,50.75-23.07C452.39,234.69,450.5,215.48,450.89,219.65Z" transform="translate(-32.4 -99.67)"/>
          <path class="cls-27" d="M404.36,258.36l-.18.21a16.84,16.84,0,0,1-2.61,2.6,13.51,13.51,0,0,1-9.61,3.11,4.26,4.26,0,0,1-.84-.19,1.8,1.8,0,0,1-1-2.13c-1.33-.26-.93-1.86-.93-1.86a1.84,1.84,0,0,1-.54-.29,2.21,2.21,0,0,1-.68-2.17c-1.92-.82-.52-2.56-.52-2.56h0a17.82,17.82,0,0,0,9.52-4.6l-.84-2a10.22,10.22,0,0,1,3.69.71C404.32,251.14,404.36,258.36,404.36,258.36Z" transform="translate(-32.4 -99.67)"/>
          <path class="cls-5" d="M401.77,179.51c.2,1.32.47,2.62.76,3.9s.66,2.55,1.09,3.79a32.13,32.13,0,0,0,1.47,3.66c.54,1.2,1.21,2.33,1.88,3.5a16,16,0,0,1-2.45-3.21,19.06,19.06,0,0,1-1.67-3.68A19.83,19.83,0,0,1,401.77,179.51Z" transform="translate(-32.4 -99.67)"/>
          <path class="cls-5" d="M424.78,179.12a28.11,28.11,0,0,1-6,7.72,46.52,46.52,0,0,1-7.89,5.86l-2.16,1.19c-.72.39-1.47.72-2.21,1.08-1.47.73-3,1.31-4.53,1.89s-3.12,1-4.67,1.51-3.18.77-4.77,1.11l4.65-1.49c1.52-.58,3.07-1.08,4.56-1.72a66.27,66.27,0,0,0,8.71-4.27,51.56,51.56,0,0,0,7.89-5.62,35.84,35.84,0,0,0,3.46-3.4A25.39,25.39,0,0,0,424.78,179.12Z" transform="translate(-32.4 -99.67)"/>
          <path class="cls-5" d="M381.17,208.64a32.07,32.07,0,0,0,3.71,3.3c.65.5,1.33,1,2,1.41s1.42.84,2.15,1.27a12.75,12.75,0,0,1-4.51-2.25,13.67,13.67,0,0,1-1.87-1.7A10.55,10.55,0,0,1,381.17,208.64Z" transform="translate(-32.4 -99.67)"/>
          <g>
            <g>
              <g>
                <path class="cls-8" d="M405.15,203.91c3.72,17.34,2.83,21.5,1.32,23.4a11.38,11.38,0,0,1-4.17,3.06l-.47-1.15.23.58-.23-.58a10.39,10.39,0,0,0,3.66-2.68c1.1-1.38,2.13-5.2-1.56-22.37Z" transform="translate(-32.4 -99.67)"/>
                <rect class="cls-2" x="400.53" y="227.72" width="2.65" height="4.31" rx="1.11" transform="translate(341.57 592.33) rotate(-116.32)"/>
              </g>
              <g>
                <path class="cls-8" d="M393.94,203.82c-4,12.76-5.14,19.79-3.61,22.13a10.33,10.33,0,0,0,3.4,3l-.57,1.1a11.26,11.26,0,0,1-3.87-3.43c-1.83-2.78-.82-9.5,3.46-23.18Z" transform="translate(-32.4 -99.67)"/>
                <rect class="cls-2" x="392.32" y="227.46" width="2.65" height="4.31" rx="1.11" transform="translate(-40.5 345.08) rotate(-58.42)"/>
              </g>
            </g>
            <path class="cls-9" d="M399.6,184c.66-6.09,10.46-6.94,15.08-6.93,5.88,0,10.8,1.24,12.62,7.23s2,12.51,2,18.67a.9.9,0,0,0,1.79,0c0-7.1.69-20.45-5.66-25.19s-26.52-4.15-27.64,6.16c-.12,1.14,1.67,1.16,1.79,0Z" transform="translate(-32.4 -99.67)"/>
            <path class="cls-2" d="M434.26,206.41a4.11,4.11,0,1,1-4-4.17A4.11,4.11,0,0,1,434.26,206.41Z" transform="translate(-32.4 -99.67)"/>
            <path class="cls-8" d="M432.63,206.38a2.47,2.47,0,1,1-2.43-2.51A2.46,2.46,0,0,1,432.63,206.38Z" transform="translate(-32.4 -99.67)"/>
            <path class="cls-2" d="M392.35,202.89a69.8,69.8,0,0,1,2.61-8.34,7.47,7.47,0,0,1,2.63-3c.25,0,.24-2.19.2-4,0-1.58-.13-3.41.27-3.9a1.23,1.23,0,0,1,1.71,0c.41.48.35,2.31.33,3.88,0,1.79,0,4,.25,4a8.1,8.1,0,0,1,2.53,2.94,59.58,59.58,0,0,1,2.58,8.57c.31,1.85-.3,2.05-.83,2.21-.76.22-1.21-.31-1.7-2.37-.78-3.26-1.7-8.73-3.94-8.82h0c-2.24.13-3.4,5.83-4.27,9-.54,2-1,2.16-1.73,2C392.46,204.9,391.91,204.65,392.35,202.89Z" transform="translate(-32.4 -99.67)"/>
          </g>
          <g>
            <g>
              <path class="cls-27" d="M420,180c-1.42,3.61-12.7,9.8-12.7,9.8a48.4,48.4,0,0,1-2.91-9.13c-.06-.42,2.45-1.47,2.44-2.51,0-.38-.11-2.19-.22-4.33-.19-3.61-.46-8.13-.46-8.13l12.12-.16s-.15,4.61-.27,8.25c-.06,2.09-.1,3.86-.1,4.23C417.92,179.06,420.16,179.6,420,180Z" transform="translate(-32.4 -99.67)"/>
              <path class="cls-28" d="M418.27,165.54s-.15,4.61-.27,8.25a16.76,16.76,0,0,1-11.39,0c-.19-3.61-.46-8.13-.46-8.13Z" transform="translate(-32.4 -99.67)"/>
            </g>
            <g>
              <path class="cls-27" d="M390.73,146.1a4.87,4.87,0,0,0-6.58-.83c-4.47,3-2.28,14.86,8.26,11.34Z" transform="translate(-32.4 -99.67)"/>
              <path class="cls-29" d="M385.79,154.16a3.73,3.73,0,0,1,1.76-1.56,3,3,0,0,1,1.23-.22,3.31,3.31,0,0,1,1.24.25l-.52.39a7.18,7.18,0,0,0-1.65-3.58,2.74,2.74,0,0,0-1.72-.73,4.33,4.33,0,0,0-1,.07c-.35.06-.68.19-1,.27a4.25,4.25,0,0,1,2-.82,2.89,2.89,0,0,1,2.21.66,5.06,5.06,0,0,1,1.33,1.87,8.1,8.1,0,0,1,.58,2.17l.08.66-.6-.27a3,3,0,0,0-2-.23A4.24,4.24,0,0,0,385.79,154.16Z" transform="translate(-32.4 -99.67)"/>
            </g>
            <path class="cls-27" d="M436.55,145.17c0,.05,0,.1,0,.16-.17,1.47-.39,2.93-.68,4.36-.1.56-.22,1.1-.35,1.65s-.29,1.2-.46,1.78c-.07.26-.15.51-.22.76a32.93,32.93,0,0,1-1.4,3.89,24.17,24.17,0,0,1-1.22,2.5,16.21,16.21,0,0,1-3.07,4.08,31.39,31.39,0,0,1-8.35,5.63,21.72,21.72,0,0,1-2.46,1,24.06,24.06,0,0,1-11.7,1.2,24.69,24.69,0,0,1-15-8.56,19.47,19.47,0,0,1-3.53-6.38,31.39,31.39,0,0,1-1.13-3.88l-.09-.38c-.3-1.36-.55-2.79-.73-4.24,0-.17-.05-.33-.07-.5-.13-1.23-.23-2.48-.29-3.74a1.71,1.71,0,0,1,0-.32c-.35-8.66,1.33-17.4,4.83-21.28,6.11-6.79,15.37-8.06,22.12-7.62s15.77,2.85,21,10.37C436.51,129.67,437.38,137.45,436.55,145.17Z" transform="translate(-32.4 -99.67)"/>
            <g>
              <path class="cls-13" d="M421.64,145.23s-1.87-3.36-6.24-1.52Z" transform="translate(-32.4 -99.67)"/>
              <path class="cls-13" d="M390.32,144.74s2-3.3,6.28-1.32Z" transform="translate(-32.4 -99.67)"/>
              <path class="cls-29" d="M405.22,143a53.73,53.73,0,0,0-.67,8.09l.55-.54c-1.11,0-2.23,0-3.34,0l-.73,0,.28.62a6.72,6.72,0,0,0,.7,1.13,5.66,5.66,0,0,0,.89.94,3.79,3.79,0,0,0,2.34.95,4.53,4.53,0,0,1-1.91-1.38,7.71,7.71,0,0,1-.65-1,6.87,6.87,0,0,1-.49-1l-.45.65c1.12.07,2.23.1,3.35.13h.55v-.55A53.83,53.83,0,0,0,405.22,143Z" transform="translate(-32.4 -99.67)"/>
              <g>
                <path class="cls-13" d="M396.77,149.17a2.44,2.44,0,1,1-2.4-2.6A2.49,2.49,0,0,1,396.77,149.17Z" transform="translate(-32.4 -99.67)"/>
                <path class="cls-13" d="M389.12,147.71a2,2,0,0,0,1.22.87,1.15,1.15,0,0,0,1.09-.55,6.15,6.15,0,0,1,1.27-1.21,2.18,2.18,0,0,1,1.78-.25,3.12,3.12,0,0,0-1.39.76c-.37.36-.65.79-1,1.25a2.42,2.42,0,0,1-.8.61,1.52,1.52,0,0,1-1.07,0A1.71,1.71,0,0,1,389.12,147.71Z" transform="translate(-32.4 -99.67)"/>
              </g>
              <g>
                <path class="cls-13" d="M415.05,149.46a2.44,2.44,0,1,0,2.48-2.52A2.5,2.5,0,0,0,415.05,149.46Z" transform="translate(-32.4 -99.67)"/>
                <path class="cls-13" d="M422.85,148.25a1.7,1.7,0,0,1-1.1,1.45,1.52,1.52,0,0,1-1.07,0,2.4,2.4,0,0,1-.78-.64c-.38-.47-.65-.91-1-1.28a3.06,3.06,0,0,0-1.36-.8,2.14,2.14,0,0,1,1.76.3,6.09,6.09,0,0,1,1.24,1.25,1.16,1.16,0,0,0,1.07.59A2.06,2.06,0,0,0,422.85,148.25Z" transform="translate(-32.4 -99.67)"/>
              </g>
              <g>
                <g>
                  <path class="cls-13" d="M414.83,160.52a6.81,6.81,0,0,1-9,1.38,2.43,2.43,0,0,1-1.06-2.67.58.58,0,0,1,.13-.2c.86-1,3.73-.81,4.95-1s4.2-1.4,5.2-.38a.91.91,0,0,1,.22.35A2.84,2.84,0,0,1,414.83,160.52Z" transform="translate(-32.4 -99.67)"/>
                  <path class="cls-14" d="M405.82,161.9a6.81,6.81,0,0,0,9-1.38,8.29,8.29,0,0,0-9,1.38Z" transform="translate(-32.4 -99.67)"/>
                </g>
                <path class="cls-20" d="M415.26,158a19.5,19.5,0,0,1-4.17,1.08,14.8,14.8,0,0,1-6.2-.05c.86-1,3.73-.81,4.95-1s4.2-1.4,5.2-.38A.91.91,0,0,1,415.26,158Z" transform="translate(-32.4 -99.67)"/>
              </g>
            </g>
            <path class="cls-13" d="M413.82,123.28a21.83,21.83,0,0,0,9,16.37c8.39,6.23,6.36,11.84,8.19,11.82s.45-6.08,5.92-6.16c2.64,0,6.68-28.31-17.81-30,0,0-15.92-8.3-27.84,3.53S385,144.25,386,144.3s1.38-4.23,7.5-8C397,134.13,406.92,130.72,413.82,123.28Z" transform="translate(-32.4 -99.67)"/>
            <g>
              <path class="cls-27" d="M433.6,146.78a4.87,4.87,0,0,1,6.6-.62c4.37,3.1,1.81,14.93-8.61,11.07Z" transform="translate(-32.4 -99.67)"/>
              <path class="cls-29" d="M438.28,155a4.28,4.28,0,0,0-1.88-1.13,3,3,0,0,0-2,.17l-.6.25.09-.66a8,8,0,0,1,.65-2.15,5.09,5.09,0,0,1,1.39-1.82,2.93,2.93,0,0,1,2.23-.6,4.37,4.37,0,0,1,2,.89c-.36-.09-.68-.23-1-.31a4.45,4.45,0,0,0-1-.09,2.67,2.67,0,0,0-1.74.67,7.11,7.11,0,0,0-1.75,3.53l-.52-.41a3.83,3.83,0,0,1,1.25-.22,3,3,0,0,1,1.22.27A3.72,3.72,0,0,1,438.28,155Z" transform="translate(-32.4 -99.67)"/>
            </g>
          </g>
          <path class="cls-13" d="M437.69,194.23c-17.19,11.85-15.3,26.9-15.3,26.9-10-19.89,2.77-29.63,5.68-35.23s-2.79-8.43-5.95-13.27a11.58,11.58,0,0,1-1.3-2.65,31.72,31.72,0,0,0,8.35-5.63,16.43,16.43,0,0,0,3.06-4.08C440,164.24,453.21,183.54,437.69,194.23Z" transform="translate(-32.4 -99.67)"/>
        </g>
        <path class="cls-4" d="M407.43,280.85a6.29,6.29,0,0,1,2.53,1,4.31,4.31,0,0,1,1,.94,4.56,4.56,0,0,1,.38.59,4.32,4.32,0,0,1,.19.68c.35,1.8.59,3.6.86,5.41.47,3.61.9,7.23,1.33,10.86.84,7.24,1.57,14.49,2.33,21.74s1.4,14.52,2,21.78l.93,10.9.83,10.9-1.23-10.87-1.16-10.87-2.22-21.75-2.13-21.77L412,289.51c-.2-1.81-.37-3.63-.66-5.42a3.32,3.32,0,0,0-.15-.64,3.38,3.38,0,0,0-.34-.58,4.46,4.46,0,0,0-.94-.95A6.39,6.39,0,0,0,407.43,280.85Z" transform="translate(-32.4 -99.67)"/>
        <path class="cls-5" d="M441.21,364.3a17.12,17.12,0,0,1-5.1,2.08,27.54,27.54,0,0,1-5.5.72,30.9,30.9,0,0,1-5.52-.43c-.91-.13-1.8-.38-2.7-.57s-1.76-.53-2.63-.81c1.79.38,3.58.76,5.4,1a36.6,36.6,0,0,0,5.44.29A30.88,30.88,0,0,0,436,366,22.14,22.14,0,0,0,441.21,364.3Z" transform="translate(-32.4 -99.67)"/>
        <path class="cls-5" d="M419.31,361.17a15.14,15.14,0,0,1-4,1.21,22.17,22.17,0,0,1-4.15.29,22.87,22.87,0,0,1-4.13-.52c-.68-.13-1.34-.35-2-.53s-1.3-.48-1.94-.74c1.35.32,2.67.66,4,.86a29.72,29.72,0,0,0,8.14.22A23.23,23.23,0,0,0,419.31,361.17Z" transform="translate(-32.4 -99.67)"/>
        <path class="cls-28" d="M403.18,264.87c-3.49,2.11-8.15,2.35-9.91,2.35-.31-.76-.75-1.76-1.31-2.94a13.51,13.51,0,0,0,9.61-3.11C402.23,262.69,402.79,264,403.18,264.87Z" transform="translate(-32.4 -99.67)"/>
        <path class="cls-28" d="M387.42,255.08s5.83-.72,9.52-4.6l-1.36-3.17a32,32,0,0,1-9.32,5.41Z" transform="translate(-32.4 -99.67)"/>
      </g>
    </g>
    <g>
      <ellipse class="cls-1" cx="307.65" cy="329.62" rx="68.98" ry="12.99"/>
      <g>
        <g>
          <path class="cls-23" d="M320.42,322.73s-1.21,17.73-1,22.58,8.05,58.89,7.71,60.06-17.24,11.9-15.9,13.74,27.45-7.55,27.45-9.55a41.48,41.48,0,0,1,0-5c3.53-21.81,10.38-39.74-1.17-61.4l2.67-20.41Z" transform="translate(-32.4 -99.67)"/>
          <path class="cls-28" d="M320.42,322.73s-1.21,17.73-1,22.58,8.05,58.89,7.71,60.06-17.24,11.9-15.9,13.74,27.45-7.55,27.45-9.55a41.48,41.48,0,0,1,0-5c3.53-21.81,10.38-39.74-1.17-61.4l2.67-20.41Z" transform="translate(-32.4 -99.67)"/>
          <path class="cls-13" d="M322,409.45s-15.12,9.87-13.25,11.38c4.05,3.27,25.82-5.69,25.82-5.69v2.3s2.72,1.22,4.74,0c0,0,2.34-6.49-.67-9.39,0,0-22.15,9.85-23.53,7.9C314.19,414.66,322,409.45,322,409.45Z" transform="translate(-32.4 -99.67)"/>
          <path class="cls-23" d="M336.48,322.73s-1.3,19-1.1,24.21,8.63,63.14,8.27,64.4-22.06,17.4-20.63,19.37,33-12.73,33-14.89a43.32,43.32,0,0,1,0-5.38c3.79-23.38,11.13-42.6-1.26-65.83l2.87-21.88Z" transform="translate(-32.4 -99.67)"/>
          <path class="cls-13" d="M306.07,291.45l61.42.68s5.91,25.14-1.94,51.76c-.75,2.56-36.2,11.1-53.84-1.8C310.09,340.91,306.07,291.45,306.07,291.45Z" transform="translate(-32.4 -99.67)"/>
          <path class="cls-13" d="M331.73,421.55s-4.85,3.59-4.43,5.08c.25.86,15.46-3.24,28.72-11.83,0,0,3.71,4.06.45,13.58,0,0-2.08,1.42-5.84,0v-2.5s-26.54,7.86-28.29,4.53C321.45,428.71,331.73,421.55,331.73,421.55Z" transform="translate(-32.4 -99.67)"/>
        </g>
        <path class="cls-12" d="M316.37,106.49s11.44-7.93,21.73-6.69c11.33,1.36,32.1,21.93,31,39.15-1.07,16.66-12.22,19.56-12.64,32s8.14,16.23,6.6,29.27S349,220.44,349,220.44s6.11-15.74-.31-25.87-42.72-19-51.07-34.19c-8.72-15.85-6.53-38.46,1-46.6A23.46,23.46,0,0,1,316.37,106.49Z" transform="translate(-32.4 -99.67)"/>
        <g>
          <path class="cls-27" d="M299.69,285.61c-.05.56-2.16,7.7-2.1,9.62s1,7,1.77,7.42.92-.15.92-.15.88,3,1.47,3.25.81,0,.81,0,1.06,1.51,1.7,1.55,1.17-1.58,1.17-1.58.46,1.14,1.34.82c.65-.24.86-8.87,1.05-9,1.24-.69-.7,5,.84,5.06.52,0,3.71-5.68,2.73-8.69a62.34,62.34,0,0,1-1.55-6.79Z" transform="translate(-32.4 -99.67)"/>
          <path class="cls-8" d="M321.24,180.69s-14.31,11.38-17,21.86-6.1,85.08-6,86.7,5.3,6.19,10.75,6.11,5.21-86.63,6.14-89.23S321.24,180.69,321.24,180.69Z" transform="translate(-32.4 -99.67)"/>
          <path class="cls-8" d="M371.52,306.81c-1.68,1.95-16.23,16.71-48,9-1.19-.3-4.29-14.26-4.29-14.26s-2.4,12.15-3.73,12.73-8-1.93-10.65-4.83c-1.11-1.22-2.28-94.32,4.22-111,2.45-6.27,12.22-20.88,18.56-21.65,11.47-1.39,28,13.14,31,18.55,1.74,3.18,6.46,40.58,9.7,71.2h0c.26,2.36.49,4.68.73,6.94C371,291.72,372.13,306.1,371.52,306.81Z" transform="translate(-32.4 -99.67)"/>
          <path class="cls-21" d="M369.11,273.49c-1.1,5.84-11.06,17.66-11.06,17.66l8.68-27.38a10.78,10.78,0,0,1,1.64,2.77h0C368.64,268.91,368.87,271.23,369.11,273.49Z" transform="translate(-32.4 -99.67)"/>
          <path class="cls-8" d="M349.05,185.5s13.83,11.77,15.63,16.83c4.63,13,8.25,53.35,7.92,55.69-1.31,9.22-15.54,34.93-15.54,34.93s-10.33-2.11-12.27-10.53c0,0,13-23.88,13.15-28.07C358,253,349.05,185.5,349.05,185.5Z" transform="translate(-32.4 -99.67)"/>
          <g class="cls-7">
            <path class="cls-21" d="M351.78,208.2c1.16,6.36,2.18,12.75,3.17,19.14s1.85,12.8,2.67,19.22c.19,1.61.36,3.21.52,4.83.07.81.14,1.62.18,2.44a6.7,6.7,0,0,1,0,1.34,7.54,7.54,0,0,1-.47,1.23c-1.35,3-2.74,5.86-4.19,8.76-2.88,5.79-5.81,11.55-8.86,17.26l4-8.83,4.09-8.8c1.33-2.94,2.76-5.85,4-8.79a7.21,7.21,0,0,0,.39-1,6.71,6.71,0,0,0,0-1.08c0-.8-.13-1.6-.21-2.4l-.56-4.8c-.73-6.42-1.61-12.82-2.41-19.23l-1.21-9.63Z" transform="translate(-32.4 -99.67)"/>
            <path class="cls-21" d="M348.8,210.58a7.5,7.5,0,0,1,3.91,4,6.5,6.5,0,0,1-2.35-1.62A6.66,6.66,0,0,1,348.8,210.58Z" transform="translate(-32.4 -99.67)"/>
          </g>
          <g class="cls-7">
            <path class="cls-21" d="M304.18,295.12C304,288,304,280.87,304,273.74s.12-14.25.23-21.37.37-14.25.73-21.37a205,205,0,0,1,1.86-21.29c-.36,3.54-.56,7.09-.67,10.65s-.26,7.12-.34,10.68c-.19,7.11-.37,14.23-.48,21.35l-.49,21.36C304.62,280.87,304.45,288,304.18,295.12Z" transform="translate(-32.4 -99.67)"/>
            <path class="cls-21" d="M304.47,211.47a5.23,5.23,0,0,1,1.41,4.41,5.14,5.14,0,0,1-1.41-4.41Z" transform="translate(-32.4 -99.67)"/>
          </g>
          <path class="cls-21" d="M320.12,234.49l-.21,4.19-.13,4.19c-.07,2.8-.15,5.59-.17,8.38-.08,5.59-.16,11.18-.13,16.77l-.08,16.77,0,8.39-.1,8.39c-.36-5.58-.55-11.18-.7-16.77s-.16-11.19-.18-16.78.14-11.2.39-16.79S319.35,240,320.12,234.49Z" transform="translate(-32.4 -99.67)"/>
          <path class="cls-21" d="M324.13,247.79H324a1.75,1.75,0,0,1-1.64-1.83,1.74,1.74,0,0,1,3-1.06,1.69,1.69,0,0,1,.44,1.25h0a1.74,1.74,0,0,1-1.73,1.64Zm0-2.38a.63.63,0,0,0-.43.17.58.58,0,0,0-.21.44.64.64,0,0,0,.6.67.57.57,0,0,0,.46-.16.58.58,0,0,0,.21-.44h0a.59.59,0,0,0-.16-.46.63.63,0,0,0-.44-.22Z" transform="translate(-32.4 -99.67)"/>
          <path class="cls-21" d="M323.68,261.92h-.1a1.74,1.74,0,0,1-1.64-1.83,1.77,1.77,0,0,1,1.83-1.64,1.68,1.68,0,0,1,1.2.58,1.73,1.73,0,0,1-1.29,2.89Zm0-2.38a.65.65,0,0,0-.64.61.61.61,0,0,0,.16.46.62.62,0,0,0,.44.21.65.65,0,0,0,.68-.6h0a.64.64,0,0,0-.17-.47.66.66,0,0,0-.44-.21Z" transform="translate(-32.4 -99.67)"/>
          <path class="cls-21" d="M323.71,276.07h-.1a1.72,1.72,0,0,1-1.2-.58,1.69,1.69,0,0,1-.44-1.25,1.74,1.74,0,0,1,3.47.19,1.74,1.74,0,0,1-1.73,1.64Zm0-2.37a.64.64,0,0,0-.64.6.6.6,0,0,0,.17.46.63.63,0,0,0,.44.22.7.7,0,0,0,.46-.16.66.66,0,0,0,.21-.45h0a.61.61,0,0,0-.16-.46.62.62,0,0,0-.44-.21Z" transform="translate(-32.4 -99.67)"/>
          <path class="cls-21" d="M323.68,290.23h-.1a1.73,1.73,0,0,1-1.2-.57,1.73,1.73,0,0,1,1.39-2.89,1.73,1.73,0,0,1,1.64,1.82A1.74,1.74,0,0,1,323.68,290.23Zm0-2.38a.64.64,0,0,0-.64.6.63.63,0,0,0,.6.68.65.65,0,0,0,.68-.61h0a.65.65,0,0,0-.16-.46.7.7,0,0,0-.45-.21Z" transform="translate(-32.4 -99.67)"/>
          <path class="cls-21" d="M343.76,280.47a23.65,23.65,0,0,0,3.46,4,26.29,26.29,0,0,0,4.16,3.22,23.56,23.56,0,0,0,2.3,1.28l1.19.59,1.22.5c.81.36,1.67.58,2.51.9s1.72.47,2.59.76c-.9,0-1.81-.12-2.71-.24a21.44,21.44,0,0,1-7.68-2.86,19.06,19.06,0,0,1-4.19-3.56A14.47,14.47,0,0,1,343.76,280.47Z" transform="translate(-32.4 -99.67)"/>
          <path class="cls-21" d="M346.17,187.61s2.64,7.43,1.78,8.44-7.82-1.56-7.82-1.56,7.26,7.84,6.41,8.72c-10.32,10.8-25.69,30.13-25.69,30.13L340.61,185Z" transform="translate(-32.4 -99.67)"/>
          <path class="cls-21" d="M313.06,188.43a8.31,8.31,0,0,0,3.7,2.06s-6.66,6.14-6.78,8.31,5.18,28.64,9.77,35l.19-46.46Z" transform="translate(-32.4 -99.67)"/>
          <g>
            <path class="cls-21" d="M334.44,224.29c2.75.1,5.51.11,8.25,0s5.49-.27,8.22-.57l.42-.05,0,.44c.28,4.27.44,8.56.67,12.84l.08,1.61,0,.8,0,.41a1.07,1.07,0,0,1-.08.63,2.5,2.5,0,0,1-.75.75c-.24.17-.48.31-.72.45-.48.27-1,.52-1.46.76-2,.93-3.92,1.76-6,2.51-.14,0-.24.08-.45.13a1.35,1.35,0,0,1-.4,0l-.23-.07a8.32,8.32,0,0,1-.8-.3c-.51-.21-1-.44-1.48-.67-1-.46-1.94-.95-2.89-1.45l-1.41-.81-.7-.44c-.12-.09-.23-.16-.36-.27a2,2,0,0,1-.2-.21,2.85,2.85,0,0,1-.12-.31,10.81,10.81,0,0,1-.14-1.71l0-1.61C334,232.84,334.19,228.57,334.44,224.29Zm0,0c.07,4.28.12,8.57.25,12.83l.07,1.6a13.7,13.7,0,0,0,.16,1.48c-.08.08.18.2.37.34l.68.4,1.4.74c.94.49,1.9,1,2.86,1.4.48.22,1,.44,1.45.63.24.1.49.19.71.26l.16.05s0,0,0,0l.32-.11c2-.74,3.94-1.6,5.83-2.53.47-.23.94-.48,1.38-.74.22-.13.45-.26.65-.4a1.92,1.92,0,0,0,.41-.34c-.05.24,0,0,0-.15l0-.4,0-.8L351,237c-.15-4.27-.36-8.54-.45-12.82l.45.39c-2.76.21-5.53.31-8.29.28S337.18,224.63,334.44,224.29Z" transform="translate(-32.4 -99.67)"/>
            <path class="cls-21" d="M334.35,228.74c1.4.17,2.8.26,4.2.31s2.8.07,4.2,0c2.8,0,5.59-.29,8.41-.51a37.16,37.16,0,0,1-4.17.74c-1.4.19-2.81.26-4.23.31a39.77,39.77,0,0,1-4.23-.15A23.6,23.6,0,0,1,334.35,228.74Z" transform="translate(-32.4 -99.67)"/>
          </g>
          <g>
            <g>
              <g>
                <path class="cls-9" d="M338.69,205.12c-4,17.28-3.18,21.45-1.69,23.38a11.31,11.31,0,0,0,4.12,3.12l.49-1.14-.25.57.25-.57a10.32,10.32,0,0,1-3.62-2.74c-1.08-1.4-2.05-5.23,1.92-22.34Z" transform="translate(-32.4 -99.67)"/>
                <rect class="cls-2" x="340.25" y="228.98" width="2.65" height="4.31" rx="1.11" transform="translate(-52.6 329.49) rotate(-62.78)"/>
              </g>
              <g>
                <path class="cls-9" d="M349.9,205.21c3.79,12.82,4.82,19.87,3.25,22.18a10.2,10.2,0,0,1-3.44,3l.55,1.12a11.44,11.44,0,0,0,3.93-3.37c1.86-2.75,1-9.49-3.1-23.23Z" transform="translate(-32.4 -99.67)"/>
                <rect class="cls-2" x="348.45" y="228.84" width="2.65" height="4.31" rx="1.11" transform="translate(297.17 550.02) rotate(-120.68)"/>
              </g>
            </g>
            <path class="cls-9" d="M344.55,185.28c-.56-6.1-10.35-7.1-15-7.17-5.87-.08-10.82,1.07-12.73,7s-2.22,12.48-2.31,18.64a.9.9,0,0,1-1.79,0c.11-7.1-.37-20.46,6.05-25.1s26.58-3.73,27.54,6.6c.11,1.14-1.68,1.14-1.79,0Z" transform="translate(-32.4 -99.67)"/>
            <path class="cls-2" d="M309.54,207.16a4.11,4.11,0,1,0,4.1-4.11A4.11,4.11,0,0,0,309.54,207.16Z" transform="translate(-32.4 -99.67)"/>
            <circle class="cls-8" cx="281.24" cy="107.49" r="2.47"/>
            <path class="cls-2" d="M351.5,204.3a72.34,72.34,0,0,0-2.47-8.38,7.54,7.54,0,0,0-2.59-3c-.25,0-.21-2.19-.13-4,.06-1.57.17-3.4-.22-3.89a1.23,1.23,0,0,0-1.71,0c-.41.48-.38,2.31-.39,3.89,0,1.78-.06,4-.31,4a8.09,8.09,0,0,0-2.57,2.91,59.14,59.14,0,0,0-2.72,8.52c-.34,1.85.27,2.06.8,2.23.75.23,1.21-.29,1.74-2.34.83-3.25,1.83-8.71,4.08-8.76h0c2.23.16,3.3,5.88,4.11,9.06.51,2,.94,2.17,1.7,2C351.36,206.31,351.91,206.07,351.5,204.3Z" transform="translate(-32.4 -99.67)"/>
          </g>
          <path class="cls-14" d="M331.55,177.39c-4.8-.27-9.79.44-13.81,10.36s2.53,45.13,2.53,45.13,19-38.41,20.28-43S342.82,178,331.55,177.39Z" transform="translate(-32.4 -99.67)"/>
          <g>
            <g>
              <g>
                <path class="cls-23" d="M339.52,181.57c-4.92,4.71-14.25,13.53-14.25,13.53a131.42,131.42,0,0,1-3-13.42c-.05-.48,2-1.72,2-2.89,0-.43-.08-2.45-.18-4.85-.16-4.06-.39-9.13-.39-9.13h13.59s-.23,5.16-.42,9.24c-.1,2.35-.17,4.33-.17,4.74C336.74,180,339.86,181.24,339.52,181.57Z" transform="translate(-32.4 -99.67)"/>
                <path class="cls-24" d="M337.33,164.81s-.23,5.16-.42,9.24a18.82,18.82,0,0,1-12.78-.11c-.16-4.06-.39-9.13-.39-9.13Z" transform="translate(-32.4 -99.67)"/>
              </g>
              <g>
                <path class="cls-23" d="M305,142.06a5.45,5.45,0,0,0-7.39-.81c-5,3.4-2.29,16.71,9.47,12.57Z" transform="translate(-32.4 -99.67)"/>
                <path class="cls-25" d="M299.57,151.19a4.06,4.06,0,0,1,1.95-1.77,3.2,3.2,0,0,1,1.37-.28,4.08,4.08,0,0,1,1.39.26l-.58.45a7.94,7.94,0,0,0-1.91-4,2.9,2.9,0,0,0-1.94-.79,4.38,4.38,0,0,0-1.13.09c-.39.07-.75.22-1.15.32a4.86,4.86,0,0,1,2.26-1,3.27,3.27,0,0,1,2.5.7,5.79,5.79,0,0,1,1.52,2.07,9.19,9.19,0,0,1,.69,2.42l.1.75-.68-.3a3.38,3.38,0,0,0-2.26-.23A4.88,4.88,0,0,0,299.57,151.19Z" transform="translate(-32.4 -99.67)"/>
              </g>
              <g>
                <path class="cls-23" d="M356.09,142.06a5.47,5.47,0,0,1,7.4-.81c4.95,3.4,2.29,16.71-9.47,12.57Z" transform="translate(-32.4 -99.67)"/>
                <path class="cls-25" d="M361.49,151.19a4.94,4.94,0,0,0-2.13-1.24,3.38,3.38,0,0,0-2.26.23l-.68.3.1-.75a8.83,8.83,0,0,1,.69-2.42,5.68,5.68,0,0,1,1.52-2.07,3.24,3.24,0,0,1,2.49-.7,4.86,4.86,0,0,1,2.27,1c-.4-.1-.77-.25-1.15-.32a4.46,4.46,0,0,0-1.14-.09,2.94,2.94,0,0,0-1.94.79,8,8,0,0,0-1.91,4l-.58-.45a4.13,4.13,0,0,1,1.39-.26,3.22,3.22,0,0,1,1.38.28A4.11,4.11,0,0,1,361.49,151.19Z" transform="translate(-32.4 -99.67)"/>
              </g>
              <path class="cls-23" d="M351.66,162.34c-7.52,8.56-21.13,8.51-21.13,8.51s-13.6.05-21.14-8.51c-8.12-9.24-9.93-36.5-3.08-45.17,6.36-8,16.62-10.12,24.22-10.12s17.85,2.08,24.21,10.12C361.59,125.84,359.8,153.1,351.66,162.34Z" transform="translate(-32.4 -99.67)"/>
              <ellipse class="cls-13" cx="284.26" cy="45.73" rx="2.73" ry="2.87"/>
              <ellipse class="cls-13" cx="311.51" cy="45.73" rx="2.73" ry="2.87"/>
              <path class="cls-12" d="M312.08,138.35s2.16-3.73,7-1.59" transform="translate(-32.4 -99.67)"/>
              <path class="cls-12" d="M348.54,138.35s-2.16-3.73-7-1.59" transform="translate(-32.4 -99.67)"/>
              <path class="cls-25" d="M330.1,138.29a60.23,60.23,0,0,0-.61,9.08l.61-.61c-1.25,0-2.5,0-3.75.08l-.82,0,.33.7a7.14,7.14,0,0,0,1.82,2.29,4.21,4.21,0,0,0,2.64,1,5.07,5.07,0,0,1-2.16-1.51,8.59,8.59,0,0,1-.75-1.07,7.58,7.58,0,0,1-.57-1.14l-.49.73c1.25.06,2.5.08,3.75.09h.62v-.62A61.58,61.58,0,0,0,330.1,138.29Z" transform="translate(-32.4 -99.67)"/>
              <path class="cls-13" d="M332.42,156.89a8.42,8.42,0,0,0,4.56-.37,5.9,5.9,0,0,0,1.83-1.23c.3-.24.52-.56.81-.84s.49-.64.79-1a8.94,8.94,0,0,1-.33,1.23,5.66,5.66,0,0,1-.62,1.13,4.79,4.79,0,0,1-2.06,1.68,4.94,4.94,0,0,1-2.62.34A4.83,4.83,0,0,1,332.42,156.89Z" transform="translate(-32.4 -99.67)"/>
              <path class="cls-13" d="M349.55,144.08a1.82,1.82,0,0,1-1.16,1.52,1.61,1.61,0,0,1-1.12,0,2.43,2.43,0,0,1-.82-.67c-.41-.5-.7-1-1.08-1.36a3.39,3.39,0,0,0-1.46-.84,2.31,2.31,0,0,1,1.86.34,6.49,6.49,0,0,1,1.3,1.33,1.28,1.28,0,0,0,1.17.63A2.17,2.17,0,0,0,349.55,144.08Z" transform="translate(-32.4 -99.67)"/>
              <path class="cls-13" d="M311.11,144.08a2.16,2.16,0,0,0,1.32.9,1.28,1.28,0,0,0,1.16-.63,6.76,6.76,0,0,1,1.3-1.33,2.34,2.34,0,0,1,1.87-.34,3.37,3.37,0,0,0-1.47.84c-.38.39-.67.86-1.07,1.36a2.64,2.64,0,0,1-.82.67,1.64,1.64,0,0,1-1.13,0A1.82,1.82,0,0,1,311.11,144.08Z" transform="translate(-32.4 -99.67)"/>
            </g>
            <path class="cls-12" d="M301.12,140.14c.43,1.87,1.08,7.16,2.73,7.17s.83-11,2.12-13.94,16.15.76,37.94-18.47c0,0,2.85,13.44,11.71,22.32,1.88,1.89-.93,9.26,1.59,10.09s13.62-41.43-26.68-41.43C299.5,105.88,298.56,129.15,301.12,140.14Z" transform="translate(-32.4 -99.67)"/>
          </g>
          <path class="cls-8" d="M324.09,178.59s-8.78,3.92-13,9.79c-.59.82,5.55,1.66,5.55,1.66s-6.11,4.75-6,6.77,3.6,29.15,8.89,38.48C319.49,235.29,319.53,188.34,324.09,178.59Z" transform="translate(-32.4 -99.67)"/>
          <path class="cls-8" d="M320.12,234.49s11-17.38,16.35-23.29,8.36-9.36,9.54-10.41-6.28-8.28-6.28-8.28,8.11,2.82,8.31,1.71-.27-7.53-8.78-14.83C339.26,179.39,322,211.92,320.12,234.49Z" transform="translate(-32.4 -99.67)"/>
        </g>
      </g>
    </g>
  </g>
</svg>
