<svg width="666.66669" height="576.66669" xmlns="http://www.w3.org/2000/svg">
 <metadata id="metadata8">image/svg+xml</metadata>
 <defs>
  <clipPath clipPathUnits="userSpaceOnUse" id="clipPath18">
   <path d="m-59.545405,430.006413l500,0l0,-500l-500,0l0,500z" id="path16"/>
  </clipPath>
  <clipPath clipPathUnits="userSpaceOnUse" id="clipPath38">
   <path d="m191.045595,284.740413c-30.681,31.28 -81.817,18.347 -92.043,-16.546l0,0c-10.228,-34.892 24.664,-113.7 92.043,-132.951l0,0c67.377,19.251 102.269,98.059 92.043,132.951l0,0c-6.222,21.226 -27.143,34.549 -49.75,34.552l0,0c-14.555,0.001 -29.806,-5.519 -42.293,-18.006" id="path36"/>
  </clipPath>
  <clipPath clipPathUnits="userSpaceOnUse" id="clipPath398">
   <path d="m207.891595,321.840413l52.46,0l0,-204.853l-52.46,0l0,204.853z" id="path396"/>
  </clipPath>
  <clipPath clipPathUnits="userSpaceOnUse" id="clipPath414">
   <path d="m-59.545405,430.006413l500,0l0,-500l-500,0l0,500z" id="path412"/>
  </clipPath>
  <clipPath clipPathUnits="userSpaceOnUse" id="clipPath422">
   <path d="m123.835595,270.728413l106.795,0l0,-95.354l-106.795,0l0,95.354z" id="path420"/>
  </clipPath>
  <clipPath clipPathUnits="userSpaceOnUse" id="clipPath438">
   <path d="m108.559595,302.745413l176.286,0l0,-145.41l-176.286,0l0,145.41z" id="path436"/>
  </clipPath>
 </defs>
 <g>
  <title>background</title>
  <rect fill="none" id="canvas_background" height="578.66669" width="668.66669" y="-1" x="-1"/>
 </g>
 <g>
  <title>Layer 1</title>
  <g id="g10" transform="matrix(2.237752570662577,0,0,-2.237752570662577,-111.22724860936113,819.2520522204566) ">
   <g id="g12">
    <g id="g14" clip-path="url(#clipPath18)">
     <g id="g20">
      <path fill="none" stroke="#3a6670" stroke-width="9" stroke-miterlimit="10" d="m226.872594,119.779819c31.818,-18.421 46.039,51.039 62.798,85.824c19.162,39.773 36.423,26.376 36.423,26.376" id="path22"/>
     </g>
     <g id="g24">
      <path fill="none" stroke="#3a6670" stroke-width="9" stroke-miterlimit="10" d="m89.146993,249.711002c-12.129,-55.238 -23.363,-115.015 14.617,-123.599c53.498,-12.091 76.604,209.276 136.506,190.336" id="path26"/>
     </g>
     <g id="g28">
      <path fill="#38a8f4" fill-rule="nonzero" d="m283.087895,268.194401c-10.227,34.893 -60.159,48.428 -92.043,16.546c-30.681,31.281 -81.816,18.347 -92.043,-16.546c-10.227,-34.892 24.665,-113.7 92.043,-132.951c67.378,19.251 102.27,98.059 92.043,132.951" id="path30"/>
     </g>
    </g>
   </g>
   <g id="g32">
    <g id="g34" clip-path="url(#clipPath38)">
     <g id="g40">
      <path fill="#9fe250" fill-rule="nonzero" d="m104.891088,240.485905c0.14,-0.096 -0.085,0.059 -0.31,0.214c0.111,-0.179 0.347,-0.486 0.315,-0.517c-0.34,-0.328 -0.722,-0.613 -1.093,-0.909c-0.03,0.263 -0.069,0.526 -0.079,0.791c-0.002,0.032 0.176,0.049 0.223,0.11c0.041,0.053 0.046,0.177 0.011,0.238c-0.489,0.859 -0.953,1.737 -1.499,2.558c-0.266,0.402 -0.684,0.706 -1.046,1.039c-0.726,0.668 -1.447,1.344 -2.219,1.954c-0.058,0.045 -0.507,-0.405 -0.774,-0.625c0.967,-1.046 1.931,-2.094 2.901,-3.138c0.184,-0.199 0.384,-0.384 0.577,-0.575c-0.187,0.074 -0.37,0.165 -0.563,0.216c-0.103,0.027 -0.315,0.003 -0.321,-0.028c-0.035,-0.177 0.005,-0.368 -0.032,-0.544c-0.071,-0.337 -0.167,-0.671 -0.28,-0.996c-0.017,-0.048 -0.181,-0.045 -0.277,-0.065c0.076,0.174 0.265,0.441 0.21,0.507c-0.511,0.625 -1.059,1.219 -1.604,1.815c-0.557,0.606 -1.229,1.138 -1.661,1.821c-0.817,1.296 -1.402,0.171 -2.083,-0.089c-0.221,-0.084 -0.479,-0.085 -0.684,-0.193c-0.452,-0.238 -0.901,-0.493 -1.315,-0.792c-0.441,-0.318 -0.954,-0.622 -1.234,-1.06c-0.576,-0.899 -0.823,-2.116 -1.581,-2.757c-0.547,-0.463 -1.706,-0.287 -2.583,-0.239c-0.413,0.023 -1.106,0.367 -1.152,0.649c-0.156,0.977 -0.037,1.993 -0.108,2.989c-0.215,3.034 2.085,0.518 2.914,1.314c0.237,0.228 1.055,0.11 1.082,0.251c0.137,0.712 0.305,1.536 0.062,2.167c-0.205,0.538 -0.955,0.865 -1.458,1.291c-0.059,0.05 -0.135,0.173 -0.115,0.203c0.086,0.127 0.183,0.28 0.314,0.337c0.856,0.371 1.832,0.572 2.557,1.113c0.849,0.634 1.438,1.605 2.229,2.332c0.405,0.371 1.092,0.437 1.493,0.811c0.309,0.288 0.405,0.832 0.537,1.28c0.178,0.602 0.276,1.228 0.473,1.823c0.028,0.087 0.409,0.057 0.627,0.08c-0.027,-0.402 -0.123,-0.815 -0.064,-1.206c0.085,-0.567 0.283,-1.601 0.428,-1.6c1.052,0.005 2.101,0.239 3.155,0.364c0.567,0.066 1.392,-0.163 1.661,0.136c0.51,0.565 0.693,1.42 1.033,2.145c0.082,0.177 0.223,0.347 0.381,0.454c0.053,0.037 0.24,-0.146 0.375,-0.206c0.223,-0.099 0.453,-0.179 0.681,-0.268c0.057,0.333 0.178,0.671 0.151,0.996c-0.023,0.291 -0.209,0.569 -0.323,0.852c0.464,0.112 0.928,0.231 1.394,0.335c0.643,0.144 1.288,0.276 1.93,0.423c0.022,0.006 0.043,0.164 0.024,0.174c-0.312,0.163 -0.633,0.443 -0.947,0.437c-0.533,-0.012 -1.087,-0.141 -1.589,-0.334c-1.776,-0.686 -2.274,0.484 -2.071,1.737c0.137,0.85 1.118,1.547 1.657,2.355c0.17,0.255 0.136,0.647 0.195,0.977c-0.492,0.064 -1.256,0.36 -1.43,0.155c-1.019,-1.199 -1.93,-2.495 -2.798,-3.811c-0.148,-0.225 -0.044,-0.868 0.167,-1.037c1.031,-0.821 0.614,-0.997 -0.377,-1.027c-0.106,-0.003 -0.21,-0.092 -0.314,-0.141c0.023,-0.042 0.038,-0.095 0.072,-0.125c0.578,-0.519 -0.126,-2.444 -0.877,-2.909c-1.911,-1.181 -0.888,1.116 -1.644,1.375c-0.25,0.086 -0.171,0.928 -0.427,1.296c-0.096,0.139 -0.723,-0.049 -1.091,-0.15c-0.495,-0.134 -0.975,-0.328 -1.461,-0.496c-0.105,0.315 -0.301,0.633 -0.292,0.944c0.013,0.425 0.185,0.844 0.283,1.267c0.014,0.059 0.006,0.176 -0.011,0.18c-0.08,0.018 -0.168,0.012 -0.252,0.003c-0.169,-0.018 -0.337,-0.043 -0.505,-0.066c0,0.106 -0.032,0.29 0.004,0.304c0.161,0.065 0.345,0.071 0.514,0.116c0.146,0.04 0.284,0.104 0.426,0.158c-0.122,0.094 -0.231,0.216 -0.367,0.277c-0.151,0.067 -0.328,0.08 -0.493,0.116c0.111,0.146 0.196,0.328 0.338,0.431c0.341,0.246 0.693,0.492 1.071,0.671c0.417,0.198 0.883,0.293 1.297,0.494c0.204,0.099 0.339,0.338 0.505,0.514c-0.146,-0.015 -0.292,-0.036 -0.438,-0.041c-0.077,-0.003 -0.155,0.023 -0.233,0.036c0.031,0.058 0.049,0.129 0.093,0.173c0.651,0.649 1.346,1.259 1.944,1.954c0.382,0.445 0.575,1.051 0.939,1.516c0.299,0.381 0.683,0.744 1.107,0.966c0.708,0.37 1.479,0.619 2.222,0.924c0.465,0.192 0.915,0.43 1.394,0.576c0.23,0.07 0.511,-0.045 0.768,-0.04c0.28,0.005 0.559,0.049 0.838,0.084c0.555,0.068 1.107,0.174 1.664,0.197c0.214,0.009 0.435,-0.17 0.652,-0.263c-0.141,-0.102 -0.291,-0.196 -0.421,-0.311c-0.068,-0.06 -0.102,-0.157 -0.152,-0.237c0.274,-0.038 0.556,-0.045 0.82,-0.118c1.235,-0.343 2.471,-0.686 3.694,-1.069c0.514,-0.16 1.052,-0.344 1.474,-0.658c0.27,-0.201 0.348,-0.66 0.513,-1.003c-0.744,-0.226 -1.478,-0.583 -2.234,-0.635c-0.564,-0.04 -1.153,0.32 -1.734,0.49c-0.3,0.087 -0.608,0.148 -0.912,0.221c0.216,-0.21 0.48,-0.39 0.638,-0.637c0.221,-0.345 0.297,-0.795 0.554,-1.1c0.391,-0.464 0.868,-0.865 1.349,-1.24c0.09,-0.071 0.369,0.1 0.561,0.159c-0.101,0.125 -0.21,0.244 -0.3,0.375c-0.11,0.16 -0.204,0.33 -0.304,0.495c0.158,-0.052 0.313,-0.126 0.475,-0.151c0.446,-0.069 0.895,-0.117 1.343,-0.173c-0.038,0.245 -0.197,0.583 -0.092,0.718c0.245,0.315 0.583,0.606 0.946,0.765c0.264,0.115 0.629,-0.022 0.945,0.004c0.198,0.017 0.56,0.139 0.556,0.194c-0.045,0.674 -0.145,1.344 -0.23,2.015c-0.007,0.056 -0.008,0.112 -0.012,0.169c0.422,-0.097 0.846,-0.19 1.263,-0.306c0.014,-0.004 -0.006,-0.261 -0.066,-0.369c-0.134,-0.24 -0.303,-0.46 -0.458,-0.688c0.476,-0.033 1.034,-0.241 1.412,-0.065c1.057,0.493 2.039,1.146 3.051,1.736c0.015,0.008 0.046,0.017 0.05,0.01c1.062,-1.289 2.091,0.058 3.136,0.042c0.369,-0.006 1.06,0.009 1.063,0.049c0.113,1.754 1.276,0.418 1.863,0.548c0.46,0.101 1.057,-0.53 1.623,-0.765c0.339,-0.141 0.734,-0.148 1.104,-0.215c-0.187,0.381 -0.41,0.75 -0.552,1.148c-0.183,0.51 -0.528,1.438 -0.413,1.503c0.913,0.521 1.017,2.434 2.681,1.643c0.179,-0.084 0.448,-0.266 0.445,-0.398c-0.018,-0.954 -0.138,-1.906 -0.137,-2.859c0.001,-0.461 0.437,-1.103 0.254,-1.345c-0.369,-0.49 -1.024,-0.768 -1.567,-1.123c-0.118,-0.077 -0.262,-0.112 -0.393,-0.167c0.049,-0.105 0.094,-0.298 0.149,-0.301c0.575,-0.034 1.343,-0.27 1.682,0.007c0.515,0.421 0.722,1.211 1.081,1.832c0.089,0.156 0.285,0.396 0.382,0.375c0.336,-0.075 0.709,-0.182 0.953,-0.404c0.21,-0.193 0.263,-0.558 0.385,-0.847c0.141,0.089 0.412,0.202 0.4,0.262c-0.049,0.255 -0.113,0.607 -0.296,0.719c-0.573,0.352 -1.203,0.613 -1.813,0.907c-0.109,0.052 -0.326,0.109 -0.322,0.133c0.138,0.776 0.279,1.552 0.463,2.318c0.066,0.272 0.243,0.516 0.37,0.774c-0.03,-0.375 -0.218,-0.962 -0.057,-1.082c0.415,-0.312 0.984,-0.423 1.497,-0.599c0.051,-0.018 0.138,0.066 0.207,0.102c-0.133,0.128 -0.25,0.282 -0.404,0.376c-0.132,0.08 -0.359,0.045 -0.444,0.145c-0.065,0.077 -0.027,0.357 0.059,0.422c0.192,0.143 0.468,0.326 0.664,0.283c0.777,-0.168 1.56,-0.365 2.288,-0.675c0.177,-0.075 0.139,-0.623 0.237,-0.942c0.032,-0.102 0.174,-0.185 0.284,-0.239c0.029,-0.013 0.197,0.156 0.184,0.179c-0.32,0.608 -0.651,1.21 -0.992,1.807c-0.184,0.324 -0.389,0.637 -0.584,0.956c0.23,0.121 0.448,0.304 0.693,0.352c0.558,0.109 1.13,0.201 1.695,0.196c0.224,-0.002 0.448,-0.277 0.666,-0.436c0.097,-0.072 0.247,-0.243 0.258,-0.234c0.202,0.173 0.395,0.357 0.569,0.558c0.051,0.06 0.079,0.229 0.042,0.262c-1.4,1.25 0.513,1.466 0.711,1.507c1.775,0.37 3.588,0.549 5.386,0.821c0.166,0.025 0.264,0.379 0.445,0.45c1.058,0.411 2.131,0.788 3.204,1.16c0.073,0.025 0.19,-0.078 0.287,-0.122c-0.096,-0.045 -0.209,-0.071 -0.282,-0.14c-0.075,-0.072 -0.112,-0.184 -0.165,-0.279c0.703,-0.155 1.409,-0.301 2.11,-0.468c0.912,-0.217 1.82,-0.452 2.731,-0.68c-0.395,-0.466 -0.712,-1.049 -1.201,-1.376c-0.943,-0.632 -1.985,-1.118 -2.982,-1.672c-0.059,-0.034 -0.077,-0.142 -0.114,-0.215c0.1,-0.006 0.207,-0.037 0.301,-0.014c1.142,0.283 2.279,0.583 3.425,0.848c0.101,0.023 0.26,-0.162 0.377,-0.267c0.118,-0.104 0.228,-0.336 0.323,-0.326c0.848,0.082 1.726,0.41 2.529,0.272c1.498,-0.256 2.955,-0.763 4.42,-1.197c0.265,-0.079 0.471,-0.345 0.735,-0.445c0.092,-0.034 0.361,0.287 0.404,0.254c0.33,-0.25 0.584,-0.693 0.94,-0.793c0.462,-0.129 0.998,-0.009 1.499,0.032c0.201,0.016 0.398,0.165 0.594,0.158c1.223,-0.04 2.445,-0.111 3.669,-0.155c0.06,-0.002 0.17,0.144 0.182,0.232c0.255,1.86 1.638,0.97 2.596,1.018c0.18,0.009 0.39,-0.471 0.573,-0.735c0.039,-0.057 0.01,-0.224 0.025,-0.226c0.132,-0.013 0.268,0.009 0.401,0.002c0.671,-0.04 1.363,0.005 2.006,-0.15c0.777,-0.188 1.529,-0.818 2.262,-0.773c1.401,0.088 2.675,0.387 3.247,-1.415c0.612,-1.931 0.599,0.301 1.088,0.238c0.795,-0.101 1.64,0.294 2.472,0.337c0.415,0.021 0.847,-0.275 1.272,-0.426c-0.032,0.273 -0.101,0.551 -0.077,0.821c0.011,0.123 0.2,0.33 0.311,0.332c2.702,0.053 5.214,-0.533 7.347,-2.291c0.171,-0.14 0.15,-0.647 0.283,-0.674c0.349,-0.074 0.756,0.111 1.102,0.031c0.576,-0.133 1.121,-0.394 1.68,-0.601c-0.325,-0.236 -0.77,-0.401 -0.954,-0.719c-1.307,-2.251 -2.3,0.961 -3.522,0.207c-0.013,-0.008 -0.322,0.461 -0.493,0.708c-0.104,-1.577 -1.245,-1.487 -2.346,-1.462c0.244,-0.206 0.54,-0.376 0.721,-0.628c0.305,-0.423 0.559,-0.889 0.782,-1.362c0.043,-0.094 -0.2,-0.446 -0.231,-0.436c-1.911,0.632 -2.9,-0.95 -4.232,-1.716c-0.229,-0.132 -0.586,-0.044 -0.884,-0.051c-0.308,-0.007 -0.631,0.052 -0.922,-0.019c-0.555,-0.137 -1.086,-0.376 -1.643,-0.504c-0.139,-0.032 -0.498,0.232 -0.483,0.298c0.126,0.561 0.3,1.114 0.502,1.653c0.04,0.107 0.261,0.146 0.398,0.216c-0.16,0.099 -0.346,0.303 -0.476,0.271c-0.202,-0.048 -0.447,-0.218 -0.53,-0.402c-0.299,-0.664 -0.531,-1.357 -0.807,-2.033c-0.036,-0.088 -0.174,-0.135 -0.265,-0.201c-0.076,0.113 -0.199,0.219 -0.218,0.341c-0.029,0.192 0.011,0.395 0.021,0.593c-0.547,-0.051 -1.291,0.101 -1.598,-0.197c-0.513,-0.5 -0.743,-1.289 -1.107,-1.948c-0.035,-0.063 -0.178,-0.096 -0.27,-0.092c-0.394,0.016 -0.795,0.012 -1.178,0.09c-0.477,0.098 -0.936,0.372 -1.408,0.386c-0.539,0.017 -1.119,-0.341 -1.62,-0.238c-3.267,0.674 -4.045,-2.71 -6.238,-3.764c-0.065,-0.031 -0.104,-0.317 -0.055,-0.354c0.339,-0.261 0.675,-0.582 1.068,-0.702c0.617,-0.187 1.327,-0.124 1.897,-0.385c0.248,-0.115 0.452,-0.853 0.326,-1.167c-0.761,-1.909 -1.581,-3.799 -2.476,-5.648c-0.322,-0.666 -1.007,-1.768 -1.359,-1.706c-2.089,0.363 -2.52,-1.377 -3.456,-2.455c-0.17,-0.197 -0.197,-0.641 -0.107,-0.91c0.138,-0.412 0.568,-0.751 0.629,-1.157c0.073,-0.475 -0.01,-1.046 -0.233,-1.465c-0.153,-0.287 -0.66,-0.385 -1.009,-0.567c-0.032,0.507 0.015,1.037 -0.121,1.515c-0.102,0.358 -0.466,0.633 -0.657,0.977c-0.071,0.129 0.076,0.369 0.021,0.521c-0.122,0.331 -0.267,0.87 -0.478,0.908c-0.414,0.074 -0.882,-0.124 -1.322,-0.233c-0.107,-0.027 -0.192,-0.145 -0.288,-0.221c-0.024,0.079 -0.064,0.156 -0.071,0.235c-0.088,1.031 -0.09,1.036 -1.097,0.429c-0.362,-0.219 -0.748,-0.429 -1.04,-0.724c-0.139,-0.141 -0.197,-0.615 -0.098,-0.692c0.359,-0.283 0.784,-0.508 1.218,-0.658c0.193,-0.066 0.471,0.155 0.704,0.14c0.197,-0.013 0.384,-0.178 0.576,-0.276c-0.228,-0.105 -0.472,-0.186 -0.681,-0.32c-1.349,-0.861 -0.683,-1.841 -0.187,-2.837c0.072,-0.145 -0.093,-0.416 -0.168,-0.622c-0.018,-0.048 -0.12,-0.066 -0.183,-0.098c0.22,-0.352 0.465,-0.691 0.648,-1.061c0.06,-0.122 -0.067,-0.324 -0.064,-0.49c0.005,-0.422 0.222,-0.99 0.025,-1.242c-1.095,-1.398 -2.217,-2.792 -3.483,-4.029c-0.483,-0.474 -1.363,-0.574 -2.085,-0.755c-0.281,-0.071 -0.583,-1.121 -0.93,-0.053c-0.545,-0.18 -1.469,-0.25 -1.558,-0.562c-0.215,-0.744 -0.345,-1.816 0.042,-2.372c0.999,-1.435 2.279,-2.675 0.774,-4.474c-0.347,-0.415 -0.745,-0.904 -1.216,-1.052c-0.238,-0.075 -0.714,0.51 -1.043,0.837c-0.639,0.633 -1.243,1.3 -1.883,1.931c-0.053,0.053 -0.343,-0.014 -0.399,-0.103c-0.767,-1.208 -0.119,-3.669 0.804,-4.723c0.731,-0.832 1.005,-2.067 1.466,-3.129c0.019,-0.044 -0.143,-0.231 -0.169,-0.22c-0.188,0.076 -0.451,0.14 -0.529,0.291c-0.648,1.246 -1.314,2.487 -1.863,3.777c-0.268,0.629 -0.308,1.358 -0.436,2.044c-0.276,1.495 -0.542,2.992 -0.812,4.487c-0.263,-0.125 -0.526,-0.251 -0.79,-0.376c-0.251,-0.119 -0.502,-0.237 -0.752,-0.356c-0.032,0.273 -0.028,0.556 -0.102,0.816c-0.19,0.658 -0.394,1.311 -0.63,1.953c-0.312,0.849 -0.642,1.693 -1.008,2.519c-0.073,0.166 -0.344,0.245 -0.524,0.363c0.035,-0.162 0.153,-0.373 0.092,-0.478c-0.198,-0.336 -0.413,-0.696 -0.714,-0.928c-0.428,-0.333 -1.008,-0.483 -1.399,-0.846c-1.148,-1.064 -2.246,-2.183 -3.337,-3.307c-0.227,-0.234 -0.4,-0.564 -0.493,-0.88c-0.412,-1.4 -0.781,-2.813 -1.203,-4.209c-0.011,-0.034 -0.654,0.007 -0.688,0.113c-0.798,2.498 -1.559,5.008 -2.305,7.523c-0.055,0.182 0.092,0.415 0.078,0.62c-0.028,0.402 -0.104,0.801 -0.16,1.202c-0.14,-0.234 -0.244,-0.503 -0.432,-0.688c-0.147,-0.144 -0.459,-0.309 -0.588,-0.245c-0.318,0.156 -0.572,0.44 -0.852,0.673c0.113,0.124 0.242,0.238 0.334,0.377c0.066,0.1 0.146,0.314 0.113,0.339c-0.563,0.427 -1.1,0.924 -1.731,1.215c-0.625,0.289 -1.341,0.454 -2.031,0.516c-1.343,0.12 -2.913,-0.569 -3.732,1.197c-0.041,0.088 -0.321,0.168 -0.409,0.116c-1.512,-0.883 -2.089,0.405 -2.877,1.214c-0.378,0.388 -0.755,0.784 -1.185,1.108c-0.047,0.036 -0.653,-0.42 -0.622,-0.567c0.12,-0.553 0.382,-1.077 0.616,-1.6c0.185,-0.414 0.406,-0.812 0.612,-1.216c0.103,-0.201 0.208,-0.401 0.311,-0.602c0.09,0.157 0.179,0.314 0.27,0.469c0.025,0.043 0.06,0.081 0.09,0.12c0.027,-0.057 0.06,-0.111 0.079,-0.17c0.11,-0.35 0.217,-0.702 0.325,-1.053c0.644,0.303 1.294,0.594 1.928,0.916c0.141,0.071 0.228,0.249 0.34,0.378c0.051,-0.137 0.072,-0.298 0.158,-0.409c0.291,-0.374 0.689,-0.689 0.89,-1.103c0.26,-0.538 0.703,-1.432 0.491,-1.68c-1.049,-1.227 -2.2,-2.408 -3.485,-3.38c-1.294,-0.978 -2.772,-1.722 -4.212,-2.489c-0.19,-0.102 -0.809,0.178 -0.925,0.424c-0.779,1.652 -1.462,3.349 -2.202,5.019c-0.731,1.647 -1.474,3.291 -2.267,4.908c-0.112,0.229 -0.541,0.303 -0.822,0.45c-0.085,0.045 -0.183,0.081 -0.247,0.148c-0.217,0.231 -0.421,0.474 -0.63,0.713c0.121,-0.327 0.243,-0.653 0.363,-0.981c0.763,-2.081 1.433,-4.202 2.32,-6.228c0.53,-1.207 1.4,-2.265 2.116,-3.392c0.435,-0.683 0.752,-1.497 1.335,-2.013c0.462,-0.41 1.255,-0.645 1.886,-0.616c0.753,0.035 1.489,0.434 2.234,0.67c0.059,0.018 0.19,-0.002 0.19,-0.01c0.017,-0.291 0.107,-0.613 0.015,-0.869c-0.851,-2.349 -1.752,-4.593 -3.778,-6.341c-1.235,-1.066 -2.237,-2.672 -2.736,-4.231c-0.353,-1.099 0.481,-2.526 0.485,-3.807c0.006,-1.448 -0.287,-2.903 -0.543,-4.339c-0.045,-0.248 -0.566,-0.396 -0.842,-0.621c-1.098,-0.897 -2.103,-1.81 -1.321,-3.462c0.164,-0.347 0.184,-1.102 -0.015,-1.231c-2.114,-1.374 -1.521,-4.379 -3.491,-5.752c-0.901,-0.628 -1.998,-0.988 -3.029,-1.414c-0.46,-0.19 -0.986,-0.211 -1.466,-0.359c-1.41,-0.435 -1.411,0.379 -1.531,1.446c-0.112,0.996 -0.708,1.926 -0.981,2.916c-0.932,3.384 -3.34,6.603 -2.223,10.218c0.627,2.035 0.127,3.777 -0.038,5.614c-0.077,0.862 -1.18,1.586 -1.484,2.486c-0.315,0.933 -0.187,2.008 -0.329,3.01c-0.091,0.646 -0.261,1.299 -0.528,1.888c-0.066,0.146 -0.663,0.004 -0.99,0.089c-0.295,0.077 -0.643,0.217 -0.818,0.444c-1.055,1.371 -2.11,0.296 -3.197,0.086c-1.473,-0.285 -3.179,-0.963 -4.404,-0.489c-1.265,0.49 -2.067,2.164 -3.084,3.31c-0.473,0.533 -1.068,0.985 -1.431,1.581c-0.303,0.499 -0.46,1.149 -0.485,1.741c-0.069,1.604 -0.413,3.336 0.058,4.787c0.576,1.772 1.873,3.309 2.851,4.951c0.345,0.579 0.665,1.171 1.007,1.75c0.734,1.24 1.453,2.491 2.256,3.685c0.068,0.101 0.761,-0.352 1.096,-0.271c1.112,0.269 2.17,0.816 3.29,0.976c1.52,0.216 3.078,0.195 4.619,0.181c0.078,0 0.385,-1.08 0.181,-1.349c-0.912,-1.201 0.356,-1.305 0.819,-1.579c1.143,-0.676 2.381,-1.199 3.609,-1.717c0.237,-0.1 0.866,0.092 0.87,0.17c0.119,2.395 1.308,1.235 2.475,0.889c1.143,-0.338 2.405,-0.269 3.613,-0.392c0.309,-0.031 0.61,-0.129 0.918,-0.163c0.936,-0.101 1.984,1.682 2.081,2.858c0.14,1.705 -0.224,1.596 -1.592,0.99c-0.738,-0.326 -1.915,0.181 -2.829,0.501c-0.305,0.107 -0.45,0.784 -0.587,1.225c-0.097,0.313 0.072,0.806 -0.108,0.976c-0.486,0.463 -0.993,1.767 -1.764,0.287c-0.216,-0.414 -0.116,-0.993 -0.138,-1.246" id="path42"/>
     </g>
     <g id="g44">
      <path fill="#9fe250" fill-rule="nonzero" d="m219.525884,254.301304c0.103,0.194 0.294,0.487 0.41,0.807c0.057,0.16 -0.018,0.371 -0.047,0.557c-0.005,0.03 -0.078,0.05 -0.12,0.074c-0.056,-0.138 -0.091,-0.29 -0.172,-0.411c-0.095,-0.142 -0.23,-0.258 -0.347,-0.386c-0.35,0.412 -0.767,0.785 -1.035,1.245c-0.438,0.751 -0.745,1.578 -1.196,2.319c-0.067,0.108 -0.626,-0.124 -0.957,-0.126c-0.32,-0.002 -0.656,0.046 -0.957,0.151c-1.013,0.35 -2.016,0.729 -3.017,1.108c-0.703,0.266 -1.387,0.588 -2.104,0.8c-0.186,0.055 -0.501,-0.169 -0.697,-0.336c-0.442,-0.379 -0.845,-0.802 -1.265,-1.208c0.088,0.417 0.16,0.839 0.281,1.245c0.019,0.065 0.315,0.021 0.382,0.106c0.088,0.111 0.099,0.302 0.09,0.455c-0.003,0.048 -0.233,0.147 -0.271,0.117c-0.802,-0.665 -1.941,-1.194 -2.311,-2.053c-0.835,-1.938 -2.382,-2.656 -4.162,-3.225c-0.26,-0.083 -0.484,-0.276 -0.728,-0.415c-0.004,-0.002 -0.038,0.049 -0.058,0.074c0.375,0.199 0.808,0.333 1.113,0.609c0.765,0.695 1.483,1.443 2.188,2.2c0.074,0.079 -0.042,0.508 -0.112,0.52c-0.334,0.055 -0.683,0.038 -1.025,0.017c-0.479,-0.031 -1.038,-0.254 -1.406,-0.075c-0.25,0.122 -0.231,0.794 -0.332,1.22c-0.026,0.109 -0.05,0.217 -0.075,0.326c-0.093,-0.069 -0.186,-0.138 -0.279,-0.206c-0.164,-0.119 -0.349,-0.354 -0.487,-0.329c-0.281,0.05 -0.537,0.241 -0.803,0.374c0.166,0.044 0.332,0.088 0.498,0.131c-0.195,0.227 -0.381,0.463 -0.589,0.678c-0.142,0.146 -0.315,0.263 -0.473,0.393c0.379,0.413 0.762,1.177 1.138,1.173c0.994,-0.01 2.023,0.908 1.642,1.814c-0.041,0.097 -0.88,-0.266 -1.298,-0.178c-0.789,0.166 -1.541,0.506 -2.309,0.773c0.077,0.097 0.135,0.252 0.231,0.282c0.565,0.172 1.132,0.357 1.713,0.448c0.241,0.038 0.552,-0.266 0.772,-0.204c0.446,0.127 0.851,0.397 1.274,0.608c-0.375,0.165 -0.76,0.311 -1.123,0.499c-0.691,0.356 -1.372,0.731 -2.045,1.118c-0.027,0.016 0.023,0.296 0.103,0.346c0.857,0.534 1.709,1.083 2.6,1.556c0.769,0.408 1.56,0.908 2.39,1.025c0.707,0.1 1.479,-0.312 2.23,-0.453c1.539,-0.287 3.09,-0.516 4.625,-0.82c1.223,-0.242 2.419,-0.666 3.65,-0.806c0.901,-0.103 1.853,0.056 2.755,0.233c0.554,0.109 1.057,0.475 1.587,0.719c0.074,0.034 0.166,0.029 0.25,0.042c-0.05,-0.081 -0.09,-0.17 -0.152,-0.241c-0.045,-0.051 -0.118,-0.078 -0.179,-0.115l-1.46,-0.898c0.025,-0.037 0.066,-0.109 0.075,-0.105c0.638,0.274 1.273,0.555 1.91,0.834c0.667,0.293 1.357,1.511 2.002,-0.045c0.015,-0.035 0.427,0.076 0.642,0.15c0.1,0.034 0.187,0.223 0.255,0.21c0.951,-0.176 1.898,-0.375 2.845,-0.569c0.915,-0.187 1.833,-0.362 2.742,-0.572c0.145,-0.034 0.379,-0.247 0.361,-0.335c-0.302,-1.507 0.827,-0.416 1.221,-0.644c0.745,-0.432 1.599,-0.67 2.394,-1.022c0.191,-0.084 0.323,-0.3 0.483,-0.455c-0.029,0.21 -0.125,0.439 -0.073,0.626c0.127,0.45 0.315,0.883 0.498,1.314c0.043,0.105 0.16,0.18 0.244,0.269c-0.154,0.007 -0.316,0.048 -0.46,0.015c-0.235,-0.054 -0.458,-0.156 -0.687,-0.237c0.025,0.052 0.042,0.144 0.076,0.151c0.387,0.074 0.795,0.244 1.162,0.181c1.173,-0.199 2.33,-0.486 3.493,-0.737c0.257,-0.056 0.517,-0.102 0.775,-0.156c0.093,-0.02 0.193,-0.088 0.274,-0.069c0.053,0.013 0.113,0.146 0.108,0.221c-0.014,0.194 -0.062,0.386 -0.096,0.579c0.254,-0.247 0.508,-0.494 0.762,-0.74c0.111,-0.107 0.224,-0.211 0.336,-0.316c0.065,0.093 0.147,0.178 0.192,0.28c0.245,0.556 0.498,1.109 0.703,1.679c0.028,0.077 -0.178,0.27 -0.309,0.364c-0.326,0.24 -0.986,0.534 -0.953,0.664c0.137,0.542 0.481,1.031 0.749,1.54c0.351,-0.303 0.79,-0.549 1.037,-0.922c0.55,-0.83 1.004,-1.724 1.501,-2.589c0.031,-0.053 0.102,-0.083 0.154,-0.124c0.07,0.114 0.124,0.244 0.213,0.34c0.154,0.161 0.33,0.3 0.496,0.449c0.117,-0.265 0.235,-0.531 0.35,-0.797c0.136,-0.317 0.271,-0.634 0.406,-0.952c0.213,0.158 0.53,0.273 0.62,0.484c0.246,0.578 0.321,1.24 0.627,1.776c0.099,0.172 0.757,0.169 1.069,0.036c0.368,-0.158 0.639,-0.544 0.952,-0.831c-0.143,-0.06 -0.407,-0.122 -0.406,-0.181c0.004,-0.207 0.092,-0.414 0.157,-0.618c0.097,-0.303 0.202,-0.603 0.303,-0.905c-0.451,-0.047 -0.902,-0.097 -1.353,-0.141c-0.062,-0.006 -0.127,0.019 -0.19,0.031c-0.007,-0.049 0.003,-0.11 -0.022,-0.144c-0.091,-0.122 -0.175,-0.263 -0.296,-0.344c-0.259,-0.175 -0.524,-0.381 -0.817,-0.458c-0.465,-0.124 -0.955,-0.161 -1.437,-0.218c-0.13,-0.015 -0.268,0.032 -0.402,0.051c0.011,-0.077 -0.003,-0.205 0.037,-0.225c2.943,-1.466 -0.298,-1.317 -0.557,-1.834c-0.717,-1.432 -1.692,-2.736 -2.535,-4.109c-0.028,-0.047 0.253,-0.33 0.43,-0.442c0.183,-0.115 0.52,-0.091 0.606,-0.237c1.213,-2.041 3.574,-1.934 5.335,-2.933c0.439,-0.249 0.51,-1.075 0.886,-1.522c0.53,-0.632 1.185,-1.159 1.786,-1.73c0.118,0.32 0.397,0.686 0.324,0.953c-0.279,1.009 -0.71,1.888 0.625,2.635c0.309,0.173 -0.035,1.539 -0.107,2.353c-0.025,0.29 -0.202,0.573 -0.196,0.856c0.018,0.817 0.083,1.635 0.156,2.451c0.02,0.216 0.187,0.612 0.199,0.61c1.078,-0.3 2.296,-0.418 3.168,-1.029c0.621,-0.435 0.706,-1.579 1.174,-2.315c0.191,-0.301 0.785,-0.534 1.152,-0.482c0.426,0.06 0.865,0.407 1.186,0.738c0.251,0.259 0.331,0.685 0.487,1.036c0.3,-0.489 0.623,-0.966 0.895,-1.47c0.456,-0.847 0.803,-1.765 1.35,-2.545c0.273,-0.39 0.889,-0.537 1.344,-0.805c0.09,-0.053 0.153,-0.152 0.228,-0.23c-0.171,-0.079 -0.355,-0.138 -0.51,-0.24c-0.231,-0.154 -0.449,-0.331 -0.658,-0.515c-0.029,-0.026 0.025,-0.147 0.04,-0.224c0.22,0.102 0.432,0.234 0.663,0.295c0.277,0.074 0.757,0.209 0.825,0.105c0.305,-0.467 0.538,-0.999 0.68,-1.538c0.022,-0.081 -0.586,-0.307 -0.883,-0.497c-0.525,-0.339 -0.999,-0.909 -1.56,-1.008c-0.958,-0.166 -2.141,0.287 -2.915,-0.119c-1.164,-0.611 -2.057,-1.738 -3.059,-2.652c-0.015,-0.013 0.048,-0.11 0.074,-0.168c0.149,0.083 0.312,0.15 0.446,0.252c0.725,0.549 1.411,1.161 2.185,1.628c0.214,0.129 0.682,-0.162 1.033,-0.261c-0.277,-0.144 -0.559,-0.279 -0.828,-0.437c-0.095,-0.056 -0.16,-0.165 -0.239,-0.251c0.813,-0.631 1.625,-1.263 2.439,-1.891c0.09,-0.069 0.196,-0.12 0.295,-0.18c-0.323,-0.195 -0.639,-0.402 -0.97,-0.581c-0.203,-0.11 -0.44,-0.158 -0.641,-0.27c-0.265,-0.148 -0.511,-0.33 -0.765,-0.498c-0.05,0.107 -0.17,0.264 -0.136,0.313c0.192,0.274 0.415,0.526 0.64,0.777c0.091,0.103 0.21,0.181 0.317,0.27c-0.145,0.053 -0.336,0.192 -0.429,0.144c-1.05,-0.546 -2.094,-1.103 -3.11,-1.708c-0.165,-0.098 -0.328,-0.533 -0.249,-0.656c0.758,-1.181 -0.38,-0.693 -0.743,-0.988c-0.588,-0.479 -0.973,-1.21 -1.423,-1.85c-0.131,-0.187 -0.193,-0.423 -0.286,-0.637c-0.068,0.326 -0.146,0.65 -0.198,0.978c-0.024,0.153 0.004,0.315 0.009,0.473c-0.117,-0.138 -0.337,-0.279 -0.332,-0.412c0.026,-0.728 0.184,-1.458 0.142,-2.179c-0.027,-0.469 -0.18,-1.106 -0.511,-1.352c-1.84,-1.365 -3.425,-2.724 -1.984,-5.331c0.218,-0.395 -0.041,-1.056 -0.09,-1.592c-0.001,-0.015 -0.164,-0.045 -0.176,-0.024c-0.307,0.528 -0.791,1.036 -0.866,1.598c-0.202,1.538 -1.441,2.466 -2.888,2.04c-0.26,-0.077 -0.581,0.077 -0.871,0.067c-0.236,-0.008 -0.468,-0.103 -0.701,-0.158c0.125,-0.121 0.265,-0.23 0.372,-0.365c0.077,-0.097 0.11,-0.229 0.163,-0.346c-0.286,0.026 -0.626,-0.039 -0.85,0.093c-1.224,0.72 -3.488,-0.01 -3.664,-1.431c-0.253,-2.033 -0.765,-4.211 0.723,-6.046c0.268,-0.33 0.967,-0.658 1.284,-0.531c0.694,0.278 1.287,0.828 1.883,1.313c0.24,0.194 0.33,0.647 0.578,0.739c0.391,0.145 0.858,0.085 1.293,0.111c-0.079,-0.284 -0.163,-0.567 -0.235,-0.852c-0.241,-0.94 -0.487,-1.878 -0.696,-2.825c-0.013,-0.06 0.293,-0.294 0.411,-0.267c2.369,0.542 2.91,-0.467 2.468,-2.65c-0.295,-1.457 0.974,-2.321 2.28,-1.772c0.261,0.11 0.775,-0.01 0.986,-0.215c1.485,-1.445 1.032,0.516 1.503,0.83c0.697,0.463 1.392,0.926 2.089,1.389c-0.047,-0.446 -0.111,-0.891 -0.133,-1.338c-0.013,-0.276 0.035,-0.557 0.072,-0.833c0.001,-0.008 0.265,-0.006 0.268,0.014c0.04,0.243 0.025,0.498 0.082,0.736c0.051,0.21 0.148,0.554 0.271,0.575c0.373,0.066 0.787,0.073 1.153,-0.022c0.707,-0.184 1.383,-0.488 2.09,-0.678c0.652,-0.174 1.462,-0.077 1.962,-0.435c0.843,-0.605 1.479,-1.493 2.24,-2.223c0.208,-0.2 0.559,-0.384 0.829,-0.364c1.451,0.111 3.475,-1.59 3.417,-3.006c-0.011,-0.247 -0.483,-0.458 -0.707,-0.716c-0.714,-0.821 -0.417,-1.277 0.566,-1.399c0.283,-0.035 0.676,-0.017 0.864,0.151c1.288,1.148 1.827,0.488 2.143,-0.824c0.02,-0.082 0.128,-0.221 0.14,-0.215c2.231,1.049 3.598,-0.771 5.08,-1.756c0.4,-0.266 0.296,-2.163 -0.218,-2.766c-1.454,-1.706 -1.837,-3.666 -1.987,-5.725c-0.165,-2.262 -1.471,-3.375 -3.42,-4.241c-0.741,-0.329 -1.193,-1.456 -1.624,-2.297c-0.525,-1.023 -0.828,-2.161 -1.345,-3.189c-0.356,-0.707 -0.787,-1.524 -1.419,-1.905c-0.599,-0.363 -1.502,-0.224 -2.272,-0.305c-0.127,-0.014 -0.254,-0.025 -0.381,-0.037c0.019,-0.08 0.017,-0.174 0.06,-0.238c1.262,-1.897 0.845,-2.782 -1.408,-3.206c-0.37,-0.069 -0.639,-0.627 -0.978,-0.933c-0.265,-0.24 -0.554,-0.459 -0.857,-0.648c-0.186,-0.116 -0.417,-0.159 -0.628,-0.234c0.176,-0.264 0.343,-0.536 0.535,-0.789c0.058,-0.075 0.188,-0.096 0.284,-0.141c-0.098,0.016 -0.263,0.074 -0.284,0.041c-0.237,-0.371 -0.432,-0.767 -0.675,-1.132c-0.253,-0.381 -0.559,-0.727 -0.819,-1.103c-0.167,-0.239 -0.41,-0.507 -0.406,-0.759c0.004,-0.24 0.355,-0.458 0.424,-0.72c0.094,-0.36 0.206,-0.816 0.066,-1.118c-0.398,-0.858 -0.872,-1.693 -1.412,-2.472c-0.393,-0.568 -0.938,-1.032 -1.415,-1.542c-0.112,0.33 -0.232,0.66 -0.333,0.994c-0.046,0.154 -0.056,0.32 -0.083,0.481c-0.068,-0.107 -0.126,-0.226 -0.21,-0.319c-0.068,-0.077 -0.17,-0.125 -0.257,-0.186c-0.102,0.317 -0.245,0.626 -0.299,0.951c-0.199,1.212 -0.371,2.429 -0.543,3.645c-0.015,0.1 0.021,0.288 0.074,0.305c0.598,0.187 0.678,0.159 0.906,1.014c0.223,0.838 0.354,1.724 0.355,2.589c0.001,0.574 -0.497,1.173 -0.429,1.718c0.364,2.93 0.915,5.838 1.242,8.772c0.233,2.082 0.268,4.194 0.263,6.292c-0.001,0.424 -0.491,1.059 -0.907,1.233c-2.145,0.896 -2.563,2.968 -3.428,4.748c-0.568,1.17 -1.202,2.308 -1.734,3.493c-0.116,0.256 0.09,0.651 0.127,0.984c0.038,0.347 0.004,0.707 0.081,1.043c0.172,0.744 0.172,1.689 0.636,2.174c1.328,1.385 1.709,2.796 0.779,4.5c-0.212,0.387 -0.465,0.751 -0.699,1.125c-0.152,-0.124 -0.385,-0.219 -0.443,-0.378c-0.639,-1.745 -1.241,0.62 -1.858,0.009c-0.747,1.08 -1.403,2.243 -2.283,3.2c-0.384,0.418 -1.252,0.357 -1.855,0.619c-0.419,0.182 -0.728,0.618 -1.146,0.806c-0.545,0.246 -1.154,0.35 -1.73,0.533c-0.975,0.309 -1.955,0.607 -2.912,0.963c-0.414,0.154 -0.887,0.359 -1.141,0.689c-0.496,0.645 -0.852,1.396 -1.275,2.099c-0.57,0.949 -1.121,1.912 -1.732,2.836c-0.85,1.287 -1.739,2.548 -2.631,3.808c-0.234,0.33 -0.533,0.618 -0.822,0.905c-0.034,0.035 -0.29,-0.077 -0.287,-0.091c0.093,-0.475 0.107,-1 0.332,-1.409c0.827,-1.501 1.726,-2.963 2.592,-4.443c0.037,-0.064 0.016,-0.162 0.022,-0.244c-0.088,0.059 -0.204,0.099 -0.26,0.18c-0.539,0.769 -1.096,1.528 -1.592,2.325c-0.609,0.981 -1.097,2.043 -1.76,2.984c-0.926,1.315 -2.122,2.459 -2.917,3.84c-1.062,1.845 -2.209,3.705 -1.713,6.081c0.205,0.982 -0.101,2.071 -0.165,3.112c-0.007,0.109 0.053,0.222 0.082,0.333c0.196,-0.103 0.41,-0.182 0.579,-0.318c0.1,-0.081 0.128,-0.251 0.189,-0.381c0.044,0.156 0.178,0.39 0.119,0.458c-0.721,0.837 -1.528,1.607 -2.193,2.484c-0.497,0.656 -0.775,1.475 -1.24,2.16c-0.219,0.322 -0.65,0.501 -1.004,0.759" id="path46"/>
     </g>
     <g id="g48">
      <path fill="#9fe250" fill-rule="nonzero" d="m267.782689,284.014225c0.826,-0.149 1.658,-0.437 2.478,-0.407c0.712,0.026 1.404,0.572 2.119,0.605c1.832,0.084 3.672,0.011 5.509,-0.004c0.045,-0.001 0.09,-0.069 0.136,-0.105c-0.133,-0.042 -0.263,-0.112 -0.398,-0.12c-1.209,-0.078 -2.419,-0.141 -3.629,-0.222c-0.109,-0.008 -0.212,-0.119 -0.317,-0.181c0.11,-0.039 0.221,-0.11 0.331,-0.11c1.948,-0.008 3.896,0.001 5.844,-0.018c0.268,-0.003 0.534,-0.137 0.802,-0.209c-0.233,-0.122 -0.458,-0.327 -0.701,-0.35c-1.682,-0.159 -3.368,-0.275 -5.052,-0.421c-0.13,-0.012 -0.25,-0.141 -0.375,-0.215c0.146,-0.038 0.294,-0.118 0.436,-0.108c1.048,0.072 2.095,0.164 3.143,0.243c0.08,0.006 0.162,-0.037 0.244,-0.058c-0.045,-0.046 -0.085,-0.096 -0.134,-0.136c-0.155,-0.125 -0.312,-0.247 -0.469,-0.37c0.24,0.008 0.491,-0.029 0.715,0.033c0.288,0.079 0.543,0.284 0.831,0.349c0.381,0.087 0.78,0.09 1.172,0.13c-0.209,-0.276 -0.421,-0.549 -0.627,-0.826c-0.097,-0.131 -0.183,-0.27 -0.273,-0.405c0.177,0.01 0.358,0.003 0.532,0.035c1.782,0.332 3.562,0.675 5.346,0.997c0.103,0.019 0.233,-0.111 0.352,-0.171c-0.098,-0.071 -0.186,-0.18 -0.295,-0.207c-0.915,-0.236 -1.833,-0.458 -2.752,-0.68c-0.22,-0.053 -0.444,-0.091 -0.666,-0.136c0.228,-0.056 0.455,-0.117 0.685,-0.166c0.226,-0.048 0.454,-0.083 0.681,-0.124c-0.243,-0.04 -0.487,-0.077 -0.73,-0.123c-0.345,-0.066 -0.689,-0.14 -1.034,-0.21c0.295,-0.029 0.592,-0.046 0.883,-0.094c0.127,-0.021 0.244,-0.105 0.366,-0.16c-0.114,-0.039 -0.27,-0.044 -0.335,-0.124c-0.656,-0.803 -1.298,-1.617 -1.935,-2.434c-0.02,-0.025 0.042,-0.166 0.086,-0.178c0.532,-0.144 1.071,-0.267 1.602,-0.413c0.113,-0.031 0.204,-0.136 0.304,-0.206c-0.121,-0.038 -0.242,-0.105 -0.364,-0.108c-0.315,-0.006 -0.64,0.072 -0.944,0.018c-0.607,-0.108 -1.288,-0.265 -0.239,-0.854c0.269,-0.15 0.574,-0.233 0.85,-0.372c0.137,-0.069 0.247,-0.195 0.369,-0.295c-0.144,-0.081 -0.279,-0.207 -0.432,-0.233c-0.42,-0.071 -0.846,-0.099 -1.269,-0.154c-0.016,-0.002 -0.042,-0.151 -0.025,-0.161c0.342,-0.183 0.679,-0.379 1.038,-0.523c0.201,-0.081 0.437,-0.072 0.657,-0.103c-0.17,-0.128 -0.327,-0.34 -0.512,-0.37c-0.839,-0.131 -1.692,-0.171 -2.526,-0.323c-0.567,-0.103 -1.11,-0.339 -1.663,-0.515c0.188,-0.132 0.382,-0.255 0.562,-0.397c0.311,-0.244 0.599,-0.515 0.918,-0.744c0.535,-0.383 1.099,-0.725 1.616,-1.129c0.073,-0.057 -0.047,-0.36 -0.077,-0.55c-0.108,0.082 -0.223,0.241 -0.323,0.232c-0.315,-0.028 -0.693,-0.266 -0.923,-0.158c-0.581,0.272 -1.086,0.701 -1.638,1.039c-0.144,0.088 -0.349,0.076 -0.526,0.109c0.135,-0.171 0.256,-0.357 0.41,-0.508c0.094,-0.091 0.238,-0.13 0.359,-0.193c-0.152,-0.016 -0.308,-0.017 -0.456,-0.054c-0.178,-0.043 -0.428,-0.068 -0.506,-0.19c-0.125,-0.198 -0.134,-0.469 -0.191,-0.708c0.323,-0.065 0.645,-0.175 0.97,-0.186c0.685,-0.025 1.371,0.001 2.056,0.001c0.01,0 0.04,-0.111 0.024,-0.124c-0.431,-0.34 -0.823,-0.853 -1.312,-0.974c-1.154,-0.285 -2.4,-0.248 -3.517,-0.617c-0.511,-0.17 -0.718,-1.117 -1.227,-1.478c-0.458,-0.326 -1.14,-0.338 -1.727,-0.475c-0.119,-0.028 -0.306,0.063 -0.368,0.002c-0.524,-0.504 -1.089,-0.984 -1.516,-1.564c-0.383,-0.52 -0.673,-1.135 -0.883,-1.75c-0.188,-0.548 -0.151,-1.172 -0.333,-1.723c-0.084,-0.251 -0.435,-0.466 -0.712,-0.571c-0.089,-0.034 -0.32,0.353 -0.508,0.521c-0.111,0.099 -0.258,0.172 -0.402,0.213c-0.581,0.166 -1.228,0.211 -1.731,0.505c-0.339,0.199 -0.55,0.715 -0.687,1.132c-0.118,0.362 -0.046,0.785 -0.068,1.181c-0.015,0.247 -0.048,0.492 -0.073,0.739c-0.176,-0.132 -0.35,-0.268 -0.53,-0.393c-0.079,-0.054 -0.173,-0.087 -0.261,-0.13c-0.159,0.448 -0.507,0.928 -0.44,1.34c0.164,1.012 0.385,2.058 0.83,2.97c0.768,1.571 -0.806,1.033 -1.239,1.502c-0.092,0.099 -0.333,0.059 -0.505,0.084c0.009,0.046 0.021,0.134 0.028,0.134c0.224,-0.016 0.452,-0.019 0.67,-0.067c0.367,-0.082 0.726,-0.195 1.092,-0.278c0.012,-0.003 0.118,0.223 0.089,0.252c-0.294,0.297 -0.564,0.695 -0.927,0.827c-0.446,0.163 -0.985,0.056 -1.46,0.168c-0.106,0.025 -0.165,0.479 -0.154,0.732c0.133,2.88 -2.544,4.955 -5.427,4.419c-0.538,-0.1 -1.128,-0.245 -1.63,-0.117c-0.639,0.164 -1.213,0.582 -1.812,0.897c-0.008,0.005 0.022,0.125 0.039,0.126c0.444,0.033 0.888,0.056 1.333,0.08c0.359,0.021 0.722,0.018 1.072,0.082c0.07,0.012 0.116,0.283 0.12,0.436c0.001,0.035 -0.212,0.102 -0.329,0.111c-0.982,0.075 -1.965,0.131 -2.945,0.224c-0.09,0.009 -0.253,0.305 -0.218,0.359c0.095,0.143 0.266,0.288 0.431,0.325c1.113,0.248 2.26,0.383 3.334,0.74c0.403,0.134 0.641,0.762 0.954,1.163c-0.327,-0.001 -0.655,-0.02 -0.98,0c-0.208,0.014 -0.413,0.083 -0.62,0.127c0.156,0.097 0.301,0.239 0.471,0.284c0.779,0.209 1.594,0.318 2.336,0.616c0.333,0.134 0.461,0.801 0.79,0.916c0.737,0.26 1.545,0.443 2.32,0.429c0.532,-0.009 1.057,-0.402 1.585,-0.621c0.099,-0.041 0.202,-0.071 0.303,-0.106c0.075,1.271 1.97,-1.16 1.712,0.837c-0.009,0.065 0.283,0.264 0.392,0.235c0.802,-0.207 1.594,-0.458 2.39,-0.691c0.113,-0.032 0.233,-0.039 0.349,-0.057c-0.021,0.078 -0.022,0.173 -0.069,0.232c-0.114,0.145 -0.248,0.274 -0.375,0.409c0.223,-0.037 0.445,-0.08 0.67,-0.11c0.214,-0.028 0.431,-0.043 0.647,-0.064c-0.137,0.125 -0.273,0.25 -0.409,0.375c-0.036,0.033 -0.071,0.069 -0.106,0.103c0.171,0.013 0.343,0.042 0.513,0.035c0.552,-0.023 1.103,-0.06 1.654,-0.092c-0.574,0.172 -1.143,0.362 -1.723,0.509c-0.335,0.084 -0.686,0.097 -1.031,0.142c0.014,0.072 0.027,0.145 0.04,0.217" id="path50"/>
     </g>
     <g id="g52">
      <path fill="#9fe250" fill-rule="nonzero" d="m164.364293,202.51572c-0.183,-0.027 -0.072,-0.007 0.04,0.005c0.185,0.019 0.378,0.01 0.555,0.06c0.114,0.032 0.265,0.129 0.297,0.229c0.165,0.528 0.135,1.278 0.483,1.546c0.422,0.323 1.152,0.267 1.753,0.327c1.882,0.186 0.799,-0.886 0.852,-1.675c0.036,-0.528 0.91,-1.06 1.494,-1.47c0.41,-0.287 0.964,-0.37 1.454,-0.544c0.19,0.73 0.411,1.455 0.557,2.194c0.1,0.51 0.076,1.043 0.149,1.56c0.03,0.207 0.171,0.399 0.262,0.599c0.112,-0.272 0.199,-0.559 0.341,-0.813c1.098,-1.968 2.241,-3.911 3.303,-5.897c0.863,-1.613 2.075,-3.213 2.313,-4.932c0.207,-1.5 -0.734,-3.156 -1.163,-4.745c-0.193,-0.715 -0.356,-1.441 -0.574,-2.149c-0.056,-0.181 -0.247,-0.413 -0.415,-0.452c-0.687,-0.16 -1.388,-0.267 -2.088,-0.362c-0.148,-0.02 -0.379,0.193 -0.461,0.137c-1.065,-0.731 -2.289,-0.126 -2.667,1.174c-0.179,0.611 -0.761,1.105 -1.157,1.654c-0.038,0.052 -0.078,0.119 -0.076,0.179c0.009,0.306 0.032,0.611 0.049,0.917c-0.173,-0.22 -0.355,-0.435 -0.518,-0.663c-1.025,-1.437 -1.097,0.245 -1.315,0.517c-0.954,1.191 -2.1,1.214 -3.374,0.811c-1.553,-0.492 -3.122,-0.951 -4.632,-1.554c-0.895,-0.358 -1.668,-1.341 -2.639,-0.25c-0.124,0.139 0.143,0.571 0.077,0.826c-0.441,1.694 -0.923,3.377 -1.395,5.063c-0.027,0.097 -0.073,0.19 -0.11,0.285c0.044,0.018 0.097,0.06 0.133,0.048c0.17,-0.051 0.336,-0.118 0.504,-0.179c-0.074,0.233 -0.12,0.478 -0.224,0.695c-0.496,1.039 0.576,2.819 1.698,3.109c1.323,0.344 2.98,0.421 3.039,2.422c0.002,0.074 0.137,0.146 0.213,0.216c0.544,0.496 1.078,1.004 1.637,1.482c0.261,0.223 0.554,0.487 0.865,0.539c0.14,0.023 0.36,-0.425 0.74,-0.909" id="path54"/>
     </g>
     <g id="g56">
      <path fill="#9fe250" fill-rule="nonzero" d="m254.738805,268.679722c-0.183,-0.128 -0.439,-0.221 -0.521,-0.396c-0.048,-0.104 0.143,-0.432 0.293,-0.493c0.66,-0.268 1.368,-0.422 2.009,-0.722c0.399,-0.187 0.689,-0.594 1.07,-0.839c0.243,-0.157 0.561,-0.198 0.846,-0.291c-0.352,-0.264 -0.729,-0.502 -1.044,-0.803c-0.144,-0.138 -0.166,-0.403 -0.243,-0.61c-0.435,0.371 -0.82,0.874 -1.323,1.069c-0.353,0.137 -0.869,-0.146 -1.312,-0.241c0.301,-0.319 0.658,-0.601 0.89,-0.963c0.372,-0.583 0.663,-1.218 0.988,-1.831c-0.243,-0.007 -0.503,-0.072 -0.726,-0.009c-0.361,0.101 -0.698,0.287 -1.045,0.438c0.172,-0.291 0.34,-0.584 0.519,-0.87c0.119,-0.189 0.254,-0.367 0.381,-0.549c-0.489,0.093 -0.979,0.185 -1.467,0.283c-0.022,0.004 -0.024,0.069 -0.049,0.09c-0.795,0.676 -1.526,1.465 -2.418,1.972c-0.398,0.226 -1.117,-0.136 -1.693,-0.189c-0.229,-0.02 -0.467,0.073 -0.702,0.114c0.058,0.19 0.061,0.474 0.187,0.547c0.171,0.099 0.443,0.001 0.657,0.05c0.419,0.097 0.835,0.219 1.234,0.379c0.063,0.025 -0.011,0.316 0.045,0.456c0.088,0.217 0.242,0.405 0.353,0.614c0.159,0.299 0.49,0.821 0.425,0.877c-0.549,0.478 -1.167,0.876 -1.776,1.283c-0.074,0.05 -0.211,0.005 -0.319,0.004c0.061,0.072 0.127,0.141 0.182,0.218c0.055,0.077 0.155,0.216 0.138,0.235c-0.24,0.251 -0.475,0.515 -0.754,0.717c-0.248,0.179 -0.548,0.287 -0.827,0.421c-0.175,0.084 -0.354,0.157 -0.532,0.235c0.051,-0.164 0.111,-0.325 0.145,-0.492c0.013,-0.06 -0.045,-0.193 -0.058,-0.191c-1.364,0.163 -2.725,0.344 -4.089,0.5c-0.183,0.021 -0.387,-0.138 -0.571,-0.117c-0.252,0.028 -0.494,0.148 -0.74,0.228c0.098,0.101 0.2,0.198 0.293,0.303c0.054,0.062 0.138,0.14 0.132,0.204c-0.005,0.056 -0.146,0.087 -0.178,0.153c-0.216,0.447 -0.671,1.237 -0.586,1.3c0.685,0.514 1.471,0.893 2.227,1.312c0.005,-0.058 0.037,-0.15 0.013,-0.169c-1.333,-1.024 0.081,-1.742 0.303,-2.586c0.011,-0.04 0.27,-0.015 0.414,-0.02c-0.078,0.221 -0.141,0.45 -0.24,0.662c-0.055,0.116 -0.172,0.203 -0.26,0.303c0.12,0.027 0.345,0.057 0.345,0.079c-0.012,0.323 -0.175,0.873 -0.067,0.931c0.539,0.292 1.148,0.454 1.733,0.661c0.152,-0.432 0.31,-0.862 0.451,-1.298c0.027,-0.082 -0.01,-0.186 -0.018,-0.279c0.129,0.027 0.258,0.054 0.387,0.079c0.716,0.143 1.446,0.434 2.144,0.371c0.422,-0.037 0.777,-0.648 1.196,-0.955c0.187,-0.137 0.463,-0.144 0.687,-0.238c0.267,-0.112 0.51,-0.297 0.784,-0.374c0.466,-0.128 0.952,-0.186 1.423,-0.299c0.103,-0.025 0.26,-0.165 0.254,-0.243c-0.021,-0.302 -0.098,-0.6 -0.153,-0.9c0.188,-0.04 0.375,-0.08 0.563,-0.121" id="path58"/>
     </g>
     <g id="g60">
      <path fill="#9fe250" fill-rule="nonzero" d="m246.498082,282.696323c1.002,0.209 2,0.442 3.009,0.609c0.224,0.037 0.488,-0.16 0.733,-0.249c0.004,0.138 0.004,0.396 0.012,0.396c1.554,0.052 3.113,0.172 4.661,0.089c1.064,-0.057 2.114,-0.398 3.17,-0.616c0.061,-0.013 0.113,-0.062 0.169,-0.094c-0.101,-0.086 -0.194,-0.233 -0.305,-0.248c-1.104,-0.155 -2.211,-0.284 -3.316,-0.431c-0.135,-0.018 -0.262,-0.1 -0.393,-0.152c0.138,-0.058 0.274,-0.161 0.414,-0.166c0.58,-0.019 1.162,-0.008 2.384,-0.008c-1.629,-0.449 -2.664,-0.712 -3.684,-1.024c-0.703,-0.215 -1.387,-0.497 -2.078,-0.753c-0.505,-0.187 -1.024,-0.349 -1.502,-0.589c-0.167,-0.084 -0.233,-0.368 -0.346,-0.562c0.213,-0.065 0.422,-0.145 0.639,-0.192c0.195,-0.042 0.397,-0.048 0.597,-0.07c-0.36,-0.284 -0.685,-0.641 -1.088,-0.834c-0.649,-0.309 -1.349,-0.508 -2.026,-0.761c-0.02,-0.008 -0.026,-0.13 -0.012,-0.136c0.172,-0.074 0.349,-0.138 0.526,-0.199c0.154,-0.052 0.311,-0.095 0.465,-0.143c-0.057,-0.158 -0.07,-0.375 -0.183,-0.459c-0.17,-0.127 -0.411,-0.228 -0.62,-0.224c-1.303,0.029 -2.605,0.085 -3.907,0.146c-0.301,0.013 -0.602,0.073 -0.899,0.131c-0.027,0.006 -0.057,0.215 -0.034,0.227c0.242,0.121 0.492,0.225 0.744,0.326c0.142,0.058 0.29,0.103 0.436,0.153c-0.088,0.103 -0.189,0.197 -0.259,0.311c-0.035,0.056 -0.013,0.148 -0.016,0.224c0.273,-0.016 0.554,-0.003 0.821,-0.056c0.365,-0.075 0.716,-0.225 1.082,-0.288c0.1,-0.017 0.233,0.16 0.35,0.247c-0.124,0.015 -0.251,0.018 -0.372,0.048c-0.114,0.029 -0.321,0.112 -0.318,0.126c0.477,1.759 -0.798,0.047 -0.994,0.492c-0.018,0.041 -0.229,-0.002 -0.351,-0.006c0.05,0.119 0.084,0.334 0.151,0.344c0.692,0.111 1.389,0.191 2.086,0.272c0.13,0.015 0.273,-0.028 0.393,0.008c0.038,0.012 0.072,0.236 0.025,0.29c-0.077,0.086 -0.226,0.106 -0.338,0.165c-0.628,0.328 -1.258,0.656 -1.877,1.001c-0.059,0.033 -0.048,0.191 -0.07,0.291c0.128,0.024 0.272,0.099 0.381,0.064c0.685,-0.22 1.356,-0.483 2.043,-0.69c0.277,-0.083 0.584,-0.066 0.878,-0.081c0.028,-0.001 0.062,0.097 0.093,0.149c-0.251,0.114 -0.503,0.225 -0.751,0.344c-0.129,0.061 -0.252,0.134 -0.377,0.202c0.119,0.054 0.234,0.127 0.359,0.16c0.644,0.166 1.297,0.304 1.931,0.501c0.102,0.032 0.108,0.321 0.191,0.474c0.071,0.133 0.187,0.242 0.283,0.362c-0.386,-0.151 -0.759,-0.367 -1.159,-0.439c-1.204,-0.218 -2.418,-0.381 -3.629,-0.561c-0.026,-0.004 -0.071,0.029 -0.086,0.056c-0.355,0.626 -0.354,0.624 -1.858,0.432c-0.115,-0.015 -0.236,0.018 -0.353,0.029c0.031,0.055 0.05,0.13 0.097,0.162c0.198,0.134 0.404,0.255 0.607,0.38c-0.416,0.064 -0.832,0.133 -1.25,0.188c-0.119,0.015 -0.243,-0.013 -0.365,-0.021c0.116,0.048 0.23,0.134 0.348,0.139c1.024,0.046 2.049,0.077 3.073,0.116c0.067,0.002 0.136,0.026 0.198,0.054c0.008,0.003 -0.005,0.111 -0.034,0.13c-0.137,0.088 -0.284,0.161 -0.427,0.24c0.308,0.035 0.617,0.099 0.925,0.095c0.337,-0.004 0.674,-0.072 1.014,-0.11c0.506,-0.13 1.01,-0.262 1.514,-0.394c-0.004,0.047 -0.001,0.134 -0.012,0.136c-0.504,0.087 -1.008,0.166 -1.513,0.247" id="path62"/>
     </g>
     <g id="g64">
      <path fill="#9fe250" fill-rule="nonzero" d="m228.683599,269.780308c-0.424,0.048 -0.851,0.076 -1.269,0.151c-0.281,0.05 -0.549,0.167 -0.823,0.255c0.234,0.099 0.471,0.19 0.698,0.302c0.1,0.049 0.178,0.142 0.266,0.214c-0.116,0.003 -0.237,-0.014 -0.347,0.013c-0.361,0.091 -0.718,0.199 -1.077,0.3c0.23,0.328 0.418,0.886 0.7,0.939c0.605,0.113 1.26,-0.061 1.894,-0.059c0.206,0 0.459,0.305 0.607,0.25c0.272,-0.102 0.481,-0.37 0.719,-0.567c0.09,-0.075 0.221,-0.226 0.273,-0.204c0.288,0.126 0.566,0.282 0.823,0.463c0.036,0.025 -0.063,0.24 -0.099,0.367c0.22,-0.16 0.472,-0.292 0.653,-0.489c0.279,-0.304 0.509,-0.652 0.761,-0.982c-0.008,0.341 -0.047,0.685 -0.014,1.022c0.024,0.243 0.142,0.478 0.219,0.716c0.318,-0.168 0.852,-0.275 0.917,-0.512c0.34,-1.223 0.778,-2.308 2.146,-2.685c-0.103,-0.033 -0.221,-0.043 -0.307,-0.101c-0.178,-0.121 -0.347,-0.259 -0.506,-0.406c-0.065,-0.059 -0.137,-0.224 -0.131,-0.228c0.194,-0.128 0.397,-0.242 0.6,-0.359c-0.408,-0.025 -0.815,-0.057 -1.224,-0.075c-0.746,-0.033 -1.583,0.153 -2.222,-0.124c-1.686,-0.734 -3.007,0.313 -4.463,0.69c-0.143,0.037 -0.224,0.318 -0.333,0.485c0.183,0.05 0.364,0.121 0.55,0.145c0.37,0.049 0.744,0.065 1.115,0.11c0.379,0.045 0.757,0.109 1.136,0.165c-0.41,0.114 -0.821,0.227 -1.231,0.342c-0.01,-0.046 -0.021,-0.092 -0.031,-0.138" id="path66"/>
     </g>
     <g id="g68">
      <path fill="#9fe250" fill-rule="nonzero" d="m171.343801,206.173923c-0.376,0.644 -0.648,1.359 -1.132,1.877c-0.782,0.836 -1.688,1.561 -2.581,2.286c-0.159,0.129 -0.537,-0.044 -0.756,0.053c-0.169,0.075 -0.263,0.347 -0.345,0.55c-0.012,0.027 0.244,0.167 0.38,0.248c0.129,0.078 0.263,0.148 0.395,0.221c-0.129,0.062 -0.264,0.116 -0.389,0.187c-0.346,0.2 -0.688,0.407 -1.031,0.611c0.214,0.132 0.534,0.425 0.622,0.367c0.332,-0.22 0.632,-0.524 0.861,-0.853c0.22,-0.315 0.337,-0.701 0.498,-1.056c0.273,0.212 0.548,0.607 0.818,0.604c0.931,-0.011 1.952,0.051 2.768,-0.307c1.203,-0.527 2.306,-1.33 3.349,-2.147c0.317,-0.249 0.261,-0.945 0.44,-1.412c0.093,-0.243 0.316,-0.44 0.496,-0.645c0.244,-0.277 0.503,-0.542 0.756,-0.811c-0.512,0.183 -1.063,0.298 -1.527,0.563c-0.707,0.405 -1.354,0.914 -2.027,1.379c-0.194,-0.293 -0.376,-0.595 -0.588,-0.874c-0.099,-0.132 -0.256,-0.221 -1.007,-0.841" id="path70"/>
     </g>
     <g id="g72">
      <path fill="#9fe250" fill-rule="nonzero" d="m152.629888,213.913609c0.809,0.193 1.187,0.177 1.401,0.355c0.6,0.501 1.149,1.068 1.689,1.638c0.556,0.586 1.069,1.212 1.62,1.803c0.065,0.069 0.357,0.059 0.37,0.025c0.174,-0.491 0.388,-0.985 0.445,-1.495c0.037,-0.324 -0.352,-0.763 -0.237,-0.999c0.53,-1.092 0.097,-1.938 -0.498,-2.805c-0.148,-0.216 -0.138,-0.535 -0.23,-0.796c-0.109,-0.309 -0.249,-0.606 -0.376,-0.909c-0.223,0.1 -0.436,0.241 -0.669,0.29c-0.511,0.11 -1.193,-0.003 -1.514,0.292c-0.654,0.603 -1.117,1.415 -2.001,2.601" id="path74"/>
     </g>
     <g id="g76">
      <path fill="#9fe250" fill-rule="nonzero" d="m117.227498,194.879917c-0.342,1.024 -0.774,1.77 -0.802,2.53c-0.043,1.169 -0.026,2.432 0.38,3.496c0.293,0.766 1.269,1.267 1.925,1.902c0.264,0.255 0.5,0.542 0.728,0.83c0.119,0.149 0.192,0.333 0.286,0.502c0.171,-0.559 0.341,-1.117 0.512,-1.675c-0.108,-0.023 -0.299,-0.025 -0.311,-0.072c-0.111,-0.452 -0.182,-0.913 -0.283,-1.367c-0.376,-1.698 -0.721,-3.403 -1.172,-5.081c-0.085,-0.318 -0.597,-0.522 -1.263,-1.065" id="path78"/>
     </g>
     <g id="g80">
      <path fill="#9fe250" fill-rule="nonzero" d="m178.924291,254.352116c0.604,0.764 1.202,1.534 1.816,2.29c0.36,0.443 0.735,0.875 1.124,1.291c0.137,0.147 0.336,0.235 0.507,0.35c0.072,-0.307 0.235,-0.626 0.197,-0.919c-0.129,-1.007 -0.24,-2.032 -0.529,-2.999c-0.218,-0.73 -0.666,-1.401 -1.067,-2.065c-0.31,-0.513 -0.704,-0.974 -1.061,-1.458c-0.216,0.942 -0.437,1.882 -0.645,2.825c-0.03,0.137 -0.004,0.285 -0.004,0.427c-0.113,0.086 -0.226,0.172 -0.338,0.258" id="path82"/>
     </g>
     <g id="g84">
      <path fill="#9fe250" fill-rule="nonzero" d="m89.004888,249.7598c-0.091,0.308 -0.326,0.734 -0.312,1.151c0.015,0.413 0.243,0.839 0.45,1.22c0.112,0.208 0.564,0.443 0.542,0.482c-0.188,0.327 -0.475,0.593 -0.682,0.911c-0.323,0.495 -0.721,0.985 -0.865,1.535c-0.096,0.369 0.081,0.931 0.339,1.236c0.258,0.307 0.768,0.403 1.168,0.592c-0.144,-0.218 -0.291,-0.433 -0.426,-0.656c-0.029,-0.049 -0.037,-0.166 -0.01,-0.184c1.315,-0.873 1.086,-2.642 2.168,-3.701c0.442,-0.432 0.474,-1.294 0.649,-1.971c0.013,-0.047 -0.324,-0.244 -0.513,-0.273c-1,-0.154 -2.005,-0.276 -2.508,-0.342" id="path86"/>
     </g>
     <g id="g88">
      <path fill="#9fe250" fill-rule="nonzero" d="m129.360799,275.2085c0.094,-0.054 0.31,-0.177 0.525,-0.301c-0.18,-0.147 -0.339,-0.345 -0.545,-0.434c-1.748,-0.749 -3.651,-1.258 -5.201,-2.297c-0.914,-0.612 -2.84,-1.714 -0.804,-3.36c0.036,-0.029 0.028,-0.112 0.041,-0.17c-0.419,0.006 -0.838,0.002 -1.255,0.024c-0.123,0.007 -0.255,0.067 -0.359,0.137c-0.305,0.205 -0.613,0.411 -0.888,0.652c-0.133,0.116 -0.313,0.408 -0.271,0.459c0.778,0.966 1.448,2.102 2.426,2.805c1.097,0.787 2.463,1.217 3.742,1.727c0.783,0.312 1.623,0.481 2.589,0.758" id="path90"/>
     </g>
     <g id="g92">
      <path fill="#9fe250" fill-rule="nonzero" d="m146.038091,216.911716c0.619,-0.538 1.378,-1.088 2.001,-1.764c1.079,-1.171 2.166,-2.358 3.049,-3.672c0.304,-0.453 0.012,-1.307 -0.009,-1.978c-0.322,0.162 -0.772,0.239 -0.946,0.5c-0.916,1.382 -1.723,2.838 -2.651,4.213c-0.523,0.775 -1.208,1.44 -1.813,2.16c-0.071,0.086 -0.1,0.208 -0.148,0.312c0.076,0.034 0.152,0.068 0.517,0.229" id="path94"/>
     </g>
     <g id="g96">
      <path fill="#9fe250" fill-rule="nonzero" d="m239.784703,279.530827c-0.035,0.012 -0.458,0.152 -0.88,0.296c-0.031,0.011 -0.078,0.063 -0.078,0.064c0.209,0.27 0.37,0.624 0.645,0.784c0.506,0.297 1.102,0.701 1.62,0.65c0.535,-0.052 1.002,-0.631 1.535,-0.911c0.698,-0.366 1.43,-0.663 2.146,-0.993c0.043,-0.02 0.108,-0.08 0.101,-0.104c-0.016,-0.058 -0.057,-0.135 -0.108,-0.155c-0.838,-0.333 -1.66,-0.825 -2.527,-0.929c-0.614,-0.074 -1.291,0.379 -1.939,0.597c0.023,0.058 0.029,0.139 0.071,0.172c0.178,0.137 0.366,0.259 0.55,0.387c-0.242,0.03 -0.485,0.06 -1.136,0.142" id="path98"/>
     </g>
     <g id="g100">
      <path fill="#9fe250" fill-rule="nonzero" d="m78.625493,262.753513c-0.085,-0.104 0.051,0.002 0.092,0.136c0.02,0.067 -0.12,0.244 -0.215,0.271c-0.213,0.058 -0.444,0.053 -0.668,0.074c0.124,0.145 0.226,0.384 0.373,0.415c0.336,0.071 0.695,0.057 1.043,0.047c0.441,-0.012 0.881,-0.089 1.32,-0.077c0.795,0.021 1.601,0.179 2.379,0.086c0.277,-0.034 0.487,-0.63 0.727,-0.97c-0.562,-0.387 -1.085,-1.003 -1.696,-1.111c-0.973,-0.17 -2.009,-0.039 -3.008,0.067c-0.137,0.015 -0.21,0.621 -0.347,1.062" id="path102"/>
     </g>
     <g id="g104">
      <path fill="#9fe250" fill-rule="nonzero" d="m223.807103,273.944401c1.605,-0.371 2.634,-0.604 3.658,-0.854c0.099,-0.024 0.17,-0.16 0.255,-0.244c-0.092,-0.073 -0.181,-0.149 -0.274,-0.219c-0.819,-0.623 -1.603,-1.303 -2.474,-1.843c-0.403,-0.25 -1.118,-0.467 -1.441,-0.276c-0.724,0.428 -1.442,1.065 -0.652,2.082c0.374,0.481 0.693,1.007 0.928,1.354" id="path106"/>
     </g>
     <g id="g108">
      <path fill="#9fe250" fill-rule="nonzero" d="m247.240209,273.951206c-1.852,0 -3.48,-0.081 -5.089,0.058c-0.387,0.034 -0.68,0.826 -1.072,1.213c-0.291,0.287 -0.658,0.51 -1.022,0.705c-0.138,0.073 -0.395,-0.084 -0.54,-0.015c-0.368,0.176 -0.703,0.421 -1.051,0.638c0.691,-0.091 1.413,-0.085 2.067,-0.293c1.19,-0.381 2.308,-1.07 3.517,-1.288c1.011,-0.183 2.111,0.179 3.17,0.175c0.279,-0.001 0.556,-0.465 0.833,-0.716c-0.321,-0.189 -0.643,-0.377 -0.813,-0.477" id="path110"/>
     </g>
     <g id="g112">
      <path fill="#9fe250" fill-rule="nonzero" d="m170.864797,242.81992c0.152,-0.773 0.368,-1.233 0.295,-1.643c-0.126,-0.721 -0.261,-1.553 -0.703,-2.076c-0.462,-0.546 -1.309,-0.754 -1.95,-1.169c-0.216,-0.139 -0.296,-0.475 -0.475,-0.691c-0.08,-0.095 -0.268,-0.184 -0.376,-0.156c-0.504,0.129 -0.989,0.34 -1.498,0.437c-0.219,0.042 -0.477,-0.124 -0.717,-0.195c0.009,0.062 -0.004,0.155 0.031,0.182c0.353,0.267 0.7,0.549 1.078,0.777c0.627,0.38 1.273,0.73 1.919,1.079c0.336,0.182 0.86,0.245 1.001,0.517c0.378,0.728 0.592,1.542 0.882,2.317c0.038,0.102 0.143,0.179 0.513,0.621" id="path114"/>
     </g>
     <g id="g116">
      <path fill="#9fe250" fill-rule="nonzero" d="m99.796895,275.997623c-0.25,0.04 -0.5,0.08 -0.75,0.12c0.235,0.066 0.475,0.121 0.707,0.2c0.257,0.088 0.507,0.197 0.76,0.297c-0.047,0.112 -0.087,0.319 -0.141,0.322c-0.376,0.025 -0.768,-0.058 -1.129,0.019c-0.489,0.105 -1.194,0.19 -1.374,0.52c-0.302,0.551 -0.139,0.693 0.187,0.597c0.629,-0.184 1.234,-0.448 1.851,-0.675c0.073,-0.026 0.156,-0.024 0.235,-0.035c-0.012,0.101 -0.034,0.203 -0.034,0.304c0.003,0.214 0.018,0.429 0.028,0.643l0.803,-0.34c0.21,-0.088 0.454,-0.134 0.622,-0.272c0.532,-0.436 0.272,-1.568 -0.473,-2.087c-0.337,-0.235 -0.678,-0.568 -1.048,-0.615c-0.279,-0.036 -0.607,0.313 -0.913,0.49c0.313,0.035 0.639,0.026 0.933,0.12c0.181,0.058 0.314,0.271 0.468,0.415c-0.241,0.017 -0.482,0.034 -0.724,0.052c-0.003,-0.025 -0.006,-0.05 -0.008,-0.075" id="path118"/>
     </g>
     <g id="g120">
      <path fill="#9fe250" fill-rule="nonzero" d="m232.709996,274.652927c-0.942,-0.248 -1.877,-0.524 -2.829,-0.724c-0.272,-0.058 -0.592,0.108 -0.89,0.172c0.218,0.086 0.442,0.157 0.65,0.263c0.11,0.056 0.191,0.169 0.285,0.256c-0.14,0.042 -0.284,0.13 -0.419,0.117c-0.615,-0.06 -1.226,-0.172 -1.842,-0.21c-0.188,-0.012 -0.393,0.143 -0.573,0.25c-0.019,0.011 0.049,0.261 0.133,0.332c0.338,0.283 0.755,0.809 1.04,0.751c0.748,-0.154 1.428,-0.61 2.165,-0.857c0.322,-0.108 0.716,-0.003 1.076,0.006c-0.062,0.254 -0.113,0.512 -0.192,0.761c-0.036,0.115 -0.125,0.214 -0.19,0.32c0.161,0.063 0.332,0.193 0.479,0.169c0.129,-0.021 0.212,-0.245 0.348,-0.323c0.352,-0.201 0.719,-0.378 1.087,-0.548c0.099,-0.046 0.276,0.009 0.328,-0.055c0.072,-0.089 0.11,-0.263 0.074,-0.371c-0.095,-0.288 -0.238,-0.559 -0.361,-0.837c-0.123,0.176 -0.246,0.352 -0.369,0.528" id="path122"/>
     </g>
     <g id="g124">
      <path fill="#9fe250" fill-rule="nonzero" d="m185.661595,180.795017c-0.442,0.193 -0.823,0.358 -1.203,0.524c0.297,0.449 0.545,0.943 0.904,1.337c0.512,0.56 1.109,1.042 1.663,1.565c0.226,0.213 0.435,0.444 0.653,0.666c0.063,-0.407 0.311,-0.912 0.156,-1.205c-0.47,-0.893 -1.087,-1.712 -1.67,-2.544c-0.104,-0.148 -0.317,-0.22 -0.503,-0.343" id="path126"/>
     </g>
     <g id="g128">
      <path fill="#9fe250" fill-rule="nonzero" d="m262.156682,248.980015c-0.59,0 -1.162,-0.035 -1.72,0.039c-0.082,0.011 -0.206,0.581 -0.118,0.822c0.237,0.652 0.572,1.269 0.889,1.889c0.039,0.077 0.205,0.09 0.312,0.132c-0.001,-0.094 -0.039,-0.21 0.002,-0.28c0.232,-0.397 0.489,-0.779 0.724,-1.174c0.217,-0.365 0.412,-0.743 0.627,-1.11c0.085,-0.144 0.201,-0.268 0.298,-0.405c0.086,-0.123 0.165,-0.252 0.247,-0.378c-0.099,-0.045 -0.218,-0.146 -0.294,-0.121c-0.125,0.042 -0.237,0.153 -0.327,0.259c-0.084,0.099 -0.133,0.23 -0.197,0.347c-0.103,-0.086 -0.216,-0.164 -0.308,-0.262c-0.093,-0.1 -0.166,-0.221 -0.247,-0.332c0.022,0.115 0.045,0.23 0.112,0.574" id="path130"/>
     </g>
     <g id="g132">
      <path fill="#9fe250" fill-rule="nonzero" d="m236.557591,273.057713c1.213,0.004 1.106,-0.014 1.196,-0.545c0.055,-0.324 0.782,-0.658 0.727,-0.854c-0.354,-1.285 -1.12,-1.103 -1.954,-0.411c-0.161,0.133 -0.354,0.228 -0.524,0.352c-0.236,0.172 -0.464,0.354 -0.695,0.532c0.234,-0.046 0.467,-0.111 0.704,-0.131c0.149,-0.013 0.313,0.02 0.45,0.078c0.04,0.017 0.01,0.192 0.02,0.293c0.025,0.255 0.056,0.508 0.076,0.686" id="path134"/>
     </g>
     <g id="g136">
      <path fill="#9fe250" fill-rule="nonzero" d="m87.502492,253.7999c0.245,-0.15 0.51,-0.229 0.61,-0.403c0.069,-0.121 -0.092,-0.371 -0.142,-0.565c-0.037,-0.142 -0.064,-0.286 -0.088,-0.43c-0.059,-0.368 -0.014,-0.99 -0.19,-1.06c-0.591,-0.235 -1.261,-0.274 -1.901,-0.389c0.112,0.646 0.09,1.363 0.38,1.916c0.213,0.408 0.833,0.602 1.331,0.931" id="path138"/>
     </g>
     <g id="g140">
      <path fill="#9fe250" fill-rule="nonzero" d="m190.7627,187.194401c-0.488,-0.847 -0.926,-1.612 -1.376,-2.369c-0.029,-0.048 -0.234,-0.048 -0.235,-0.045c-0.14,0.649 -0.253,1.303 -0.401,1.95c-0.194,0.847 -0.408,1.689 -0.63,2.529c-0.053,0.2 -0.171,0.383 -0.254,0.576c0,0.001 0.101,0.061 0.111,0.051c0.182,-0.185 0.344,-0.392 0.536,-0.565c0.699,-0.628 1.412,-1.243 2.109,-1.873c0.089,-0.08 0.123,-0.222 0.14,-0.254" id="path142"/>
     </g>
     <g id="g144">
      <path fill="#9fe250" fill-rule="nonzero" d="m162.144094,213.848209c-0.782,-0.061 -1.567,-0.106 -2.346,-0.194c-0.178,-0.02 -0.497,-0.223 -0.484,-0.283c0.077,-0.349 0.234,-0.68 0.363,-1.016c0.135,0.065 0.265,0.149 0.407,0.191c0.216,0.063 0.44,0.097 0.661,0.143c0.001,-0.049 0.021,-0.129 0,-0.142c-1.108,-0.695 -0.049,-1.334 0.045,-1.998c0.011,-0.073 0.001,-0.198 -0.04,-0.218c-0.106,-0.053 -0.317,-0.115 -0.34,-0.079c-0.165,0.259 -0.294,0.541 -0.434,0.816c-0.071,0.137 -0.141,0.274 -0.211,0.411c-0.105,-0.106 -0.287,-0.203 -0.302,-0.32c-0.063,-0.517 -0.079,-1.04 -0.112,-1.56c-0.158,0.493 -0.457,0.99 -0.442,1.477c0.028,0.858 0.207,1.721 0.421,2.557c0.047,0.186 0.495,0.356 0.771,0.379c0.655,0.055 1.317,0.018 1.977,0.018c0.022,-0.061 0.044,-0.121 0.066,-0.182" id="path146"/>
     </g>
     <g id="g148">
      <path fill="#9fe250" fill-rule="nonzero" d="m172.38329,251.947819c0.048,-0.315 0.028,-0.662 0.156,-0.94c0.48,-1.041 0.243,-1.92 -0.448,-2.773c-0.101,-0.124 0.063,-0.484 0.141,-0.723c0.05,-0.154 0.168,-0.286 0.255,-0.427c-0.221,-0.062 -0.442,-0.124 -0.663,-0.185c-0.023,0.168 -0.061,0.335 -0.066,0.503c-0.043,1.524 -0.113,3.049 -0.097,4.574c0.004,0.44 0.262,0.878 0.404,1.317c0.153,-0.434 0.307,-0.868 0.461,-1.303c-0.048,-0.014 -0.096,-0.028 -0.143,-0.043" id="path150"/>
     </g>
     <g id="g152">
      <path fill="#9fe250" fill-rule="nonzero" d="m172.028798,273.404301c-1.207,0 -2.094,-0.026 -2.976,0.025c-0.149,0.009 -0.415,0.494 -0.395,0.513c0.275,0.258 0.604,0.679 0.893,0.66c0.817,-0.052 1.624,-0.284 2.431,-0.458c0.303,-0.065 0.599,-0.166 0.899,-0.251c-0.372,-0.213 -0.743,-0.427 -0.852,-0.489" id="path154"/>
     </g>
     <g id="g156">
      <path fill="#9fe250" fill-rule="nonzero" d="m244.224095,263.063023c0.181,0.565 0.368,1.145 0.554,1.725c0.569,-0.279 1.153,-0.532 1.701,-0.847c0.378,-0.217 0.711,-0.517 1.054,-0.793c0.042,-0.034 0.019,-0.148 0.026,-0.226c-0.185,-0.002 -0.37,-0.009 -0.555,-0.004c-0.361,0.01 -0.728,0.071 -1.081,0.026c-0.286,-0.036 -0.571,-0.305 -0.832,-0.274c-0.329,0.04 -0.636,0.28 -0.867,0.393" id="path158"/>
     </g>
     <g id="g160">
      <path fill="#9fe250" fill-rule="nonzero" d="m102.180699,278.171909c-0.254,0.116 -0.507,0.232 -0.761,0.349c0.307,0.13 0.611,0.364 0.921,0.373c0.832,0.022 1.671,-0.014 2.499,-0.105c0.393,-0.043 0.767,-0.264 1.15,-0.404c-0.559,-0.236 -1.102,-0.549 -1.685,-0.682c-0.383,-0.087 -0.84,0.036 -1.235,0.157c-0.283,0.088 -0.517,0.33 -0.773,0.503c-0.039,-0.064 -0.077,-0.128 -0.116,-0.191" id="path162"/>
     </g>
     <g id="g164">
      <path fill="#9fe250" fill-rule="nonzero" d="m239.221684,272.860905c0.185,0.119 0.495,0.477 0.821,0.492c0.605,0.028 1.219,-0.145 1.829,-0.234c-0.388,-0.347 -0.74,-0.749 -1.171,-1.027c-0.61,-0.393 -1.467,-1.294 -1.479,0.769" id="path166"/>
     </g>
     <g id="g168">
      <path fill="#9fe250" fill-rule="nonzero" d="m171.606893,245.424412c0.313,-0.212 0.891,-0.602 1.468,-0.992c-0.407,-0.299 -0.778,-0.743 -1.232,-0.86c-0.525,-0.134 -1.125,0.019 -1.692,0.047c0.424,0.525 0.847,1.05 1.456,1.805" id="path170"/>
     </g>
     <g id="g172">
      <path fill="#9fe250" fill-rule="nonzero" d="m227.674291,276.499119c-0.383,-0.056 -0.778,-0.071 -1.145,-0.181c-0.32,-0.097 -0.593,-0.346 -0.913,-0.448c-0.487,-0.156 -0.996,-0.247 -1.499,-0.351c-0.064,-0.014 -0.146,0.056 -0.219,0.087c0.039,0.074 0.06,0.192 0.119,0.216c1.103,0.442 2.209,0.876 3.321,1.296c0.071,0.027 0.193,-0.081 0.293,-0.127c0.014,-0.164 0.029,-0.328 0.043,-0.492" id="path174"/>
     </g>
     <g id="g176">
      <path fill="#9fe250" fill-rule="nonzero" d="m151.906697,209.103123c1.437,-0.42 2.782,-0.81 4.122,-1.214c0.073,-0.022 0.115,-0.167 0.154,-0.262c0.005,-0.011 -0.105,-0.106 -0.146,-0.096c-1.407,0.336 -2.813,0.673 -4.213,1.034c-0.131,0.034 -0.222,0.226 -0.332,0.344c0.157,0.073 0.313,0.147 0.415,0.194" id="path178"/>
     </g>
     <g id="g180">
      <path fill="#9fe250" fill-rule="nonzero" d="m147.0127,277.308598c-1.065,0.442 -1.827,0.758 -2.588,1.074c0.372,0.149 0.754,0.44 1.115,0.417c0.674,-0.044 1.336,-0.27 2.003,-0.421c-0.142,-0.288 -0.285,-0.575 -0.53,-1.07" id="path182"/>
     </g>
     <g id="g184">
      <path fill="#9fe250" fill-rule="nonzero" d="m246.868199,230.536198c1.39,-0.669 2.759,-1.327 4.124,-1.992c0.043,-0.021 0.048,-0.121 0.071,-0.183c-0.358,-0.054 -0.714,-0.124 -1.072,-0.153c-0.093,-0.007 -0.253,0.091 -0.283,0.176c-0.341,0.95 -2.939,1.866 -3.72,1.302c-0.083,-0.06 -0.186,-0.092 -0.28,-0.138c0.042,0.099 0.056,0.233 0.13,0.29c0.258,0.197 0.536,0.367 1.03,0.698" id="path186"/>
     </g>
     <g id="g188">
      <path fill="#9fe250" fill-rule="nonzero" d="m236.957982,274.298405c-0.066,0.257 -0.072,0.559 -0.22,0.754c-0.083,0.11 -0.399,0.042 -0.61,0.057c-0.279,0.02 -0.558,0.043 -0.837,0.064c0.177,0.012 0.356,0.01 0.53,0.037c0.345,0.053 0.69,0.114 1.029,0.193c0.039,0.009 0.092,0.184 0.062,0.227c-0.117,0.162 -0.266,0.302 -0.402,0.45c0.487,-0.268 1.001,-0.502 1.435,-0.839c0.07,-0.054 -0.216,-0.567 -0.338,-0.867c-0.216,-0.026 -0.433,-0.051 -0.649,-0.076" id="path190"/>
     </g>
     <g id="g192">
      <path fill="#9fe250" fill-rule="nonzero" d="m160.808599,222.6973c-0.343,0.044 -0.907,-0.016 -0.988,0.153c-0.226,0.476 -0.268,1.045 -0.354,1.581c-0.035,0.224 -0.04,0.471 0.018,0.686c0.077,0.285 0.23,0.549 0.35,0.823c0.227,-0.297 0.71,-0.709 0.637,-0.872c-0.399,-0.899 -0.933,-1.736 0.322,-2.39l0.015,0.019z" id="path194"/>
     </g>
     <g id="g196">
      <path fill="#9fe250" fill-rule="nonzero" d="m148.784688,278.062107c0.771,-0.314 1.329,-0.542 1.887,-0.769c-0.188,-0.096 -0.368,-0.248 -0.567,-0.278c-0.809,-0.123 -1.625,-0.208 -2.438,-0.308c0.404,0.49 0.808,0.979 1.118,1.355" id="path198"/>
     </g>
     <g id="g200">
      <path fill="#9fe250" fill-rule="nonzero" d="m161.362294,218.77692c0.307,0.292 0.616,0.581 0.92,0.876c0.055,0.053 0.086,0.13 0.129,0.196c0.056,-0.04 0.164,-0.085 0.16,-0.117c-0.057,-0.486 -0.091,-0.98 -0.212,-1.451c-0.071,-0.276 -0.287,-0.515 -0.436,-0.771c-0.133,0.359 -0.259,0.721 -0.411,1.071c-0.013,0.031 -0.199,-0.003 -0.302,-0.02c-0.22,-0.035 -0.438,-0.08 -0.658,-0.121c-0.004,0.061 -0.035,0.161 -0.01,0.177c0.213,0.144 0.437,0.274 0.657,0.408c0.054,-0.083 0.109,-0.165 0.163,-0.248" id="path202"/>
     </g>
     <g id="g204">
      <path fill="#9fe250" fill-rule="nonzero" d="m234.700688,279.294498c0.57,-0.353 1.353,-0.832 2.128,-1.322c0.069,-0.044 0.09,-0.164 0.133,-0.249c-0.201,0.021 -0.403,0.033 -0.602,0.064c-0.61,0.094 -1.219,0.195 -1.828,0.297c-0.133,0.022 -0.264,0.056 -0.395,0.085c0.104,0.051 0.211,0.097 0.311,0.155c0.094,0.055 0.179,0.124 0.269,0.187c-0.138,0.101 -0.273,0.204 -0.412,0.304c-0.148,0.104 -0.299,0.205 -0.449,0.308c0.167,0.034 0.334,0.067 0.845,0.171" id="path206"/>
     </g>
     <g id="g208">
      <path fill="#9fe250" fill-rule="nonzero" d="m175.912099,183.519108c-0.54,-0.691 -0.902,-1.155 -1.264,-1.62c-0.295,0.533 -0.592,1.062 -0.868,1.604c-0.009,0.017 0.209,0.22 0.314,0.213c0.491,-0.029 0.98,-0.1 1.818,-0.197" id="path210"/>
     </g>
     <g id="g212">
      <path fill="#9fe250" fill-rule="nonzero" d="m144.622594,278.829624c-0.364,0.212 -0.627,0.365 -0.89,0.518c0.494,0.284 0.961,0.687 1.492,0.806c0.28,0.063 0.672,-0.366 1.013,-0.573c-0.546,-0.254 -1.092,-0.508 -1.615,-0.751" id="path214"/>
     </g>
     <g id="g216">
      <path fill="#9fe250" fill-rule="nonzero" d="m256.053197,173.233906c-0.55,0.156 -1.235,0.219 -1.727,0.559c-0.192,0.132 0.046,0.89 0.088,1.363c0.663,-0.586 1.327,-1.172 1.99,-1.757c-0.086,-0.041 -0.172,-0.081 -0.351,-0.165" id="path218"/>
     </g>
     <g id="g220">
      <path fill="#9fe250" fill-rule="nonzero" d="m251.969701,227.980503c0.052,0.036 0.12,0.115 0.155,0.103c0.762,-0.263 1.521,-0.536 2.281,-0.807c-0.061,-0.042 -0.125,-0.124 -0.184,-0.12c-0.745,0.049 -1.489,0.111 -2.233,0.168c-0.007,0.219 -0.013,0.437 -0.019,0.656" id="path222"/>
     </g>
     <g id="g224">
      <path fill="#9fe250" fill-rule="nonzero" d="m136.597188,218.552311c0.22,0.381 0.364,0.631 0.508,0.881c0.23,-0.489 0.515,-0.963 0.655,-1.476c0.045,-0.162 -0.3,-0.429 -0.466,-0.648c-0.227,0.404 -0.453,0.809 -0.697,1.243" id="path226"/>
     </g>
     <g id="g228">
      <path fill="#9fe250" fill-rule="nonzero" d="m248.788091,272.124607c-0.246,0.126 -0.688,0.353 -1.131,0.58c0.11,0.08 0.241,0.247 0.325,0.226c0.637,-0.16 1.265,-0.358 1.895,-0.544c-0.246,-0.059 -0.493,-0.119 -1.089,-0.262" id="path230"/>
     </g>
     <g id="g232">
      <path fill="#9fe250" fill-rule="nonzero" d="m160.452596,271.336002c0.54,0.371 0.71,0.564 0.792,0.532c0.427,-0.17 0.832,-0.397 1.245,-0.604c-0.15,-0.151 -0.323,-0.446 -0.447,-0.427c-0.416,0.065 -0.814,0.242 -1.59,0.499" id="path234"/>
     </g>
     <g id="g236">
      <path fill="#9fe250" fill-rule="nonzero" d="m237.971196,269.014713c0.376,-0.341 0.706,-0.639 1.034,-0.937c-0.095,-0.099 -0.215,-0.296 -0.283,-0.28c-0.502,0.122 -0.995,0.286 -1.491,0.437c0.224,0.236 0.448,0.472 0.74,0.78" id="path238"/>
     </g>
     <g id="g240">
      <path fill="#9fe250" fill-rule="nonzero" d="m165.661092,236.233921c-0.223,-0.414 -0.397,-0.738 -0.571,-1.062c-0.034,0.324 -0.035,0.657 -0.115,0.97c-0.04,0.16 -0.223,0.283 -0.341,0.424l0.463,0.373c0.184,-0.229 0.367,-0.459 0.564,-0.705" id="path242"/>
     </g>
     <g id="g244">
      <path fill="#9fe250" fill-rule="nonzero" d="m238.493688,277.588902c-0.269,0.293 -0.522,0.567 -0.775,0.842c0.098,0.067 0.232,0.214 0.287,0.188c0.429,-0.193 0.842,-0.42 1.26,-0.637c-0.199,-0.101 -0.397,-0.203 -0.772,-0.393" id="path246"/>
     </g>
     <g id="g248">
      <path fill="#9fe250" fill-rule="nonzero" d="m239.910192,274.0835c-0.404,0.181 -0.748,0.334 -1.093,0.488c0.248,0.14 0.527,0.426 0.735,0.382c0.256,-0.055 0.454,-0.385 0.677,-0.596c-0.098,-0.085 -0.196,-0.169 -0.319,-0.274" id="path250"/>
     </g>
     <g id="g252">
      <path fill="#9fe250" fill-rule="nonzero" d="m159.793492,230.932224c0.187,-0.387 0.312,-0.524 0.283,-0.605c-0.181,-0.502 -0.398,-0.992 -0.602,-1.485c-0.067,0.135 -0.214,0.29 -0.187,0.403c0.113,0.482 0.279,0.952 0.506,1.687" id="path254"/>
     </g>
     <g id="g256">
      <path fill="#9fe250" fill-rule="nonzero" d="m103.470693,276.540104c0.501,-0.271 0.845,-0.455 1.187,-0.64c-0.2,-0.1 -0.409,-0.294 -0.6,-0.277c-0.324,0.027 -0.637,0.187 -0.954,0.292c0.108,0.184 0.216,0.367 0.367,0.625" id="path258"/>
     </g>
     <g id="g260">
      <path fill="#9fe250" fill-rule="nonzero" d="m153.502889,227.160709c0.212,-0.276 0.404,-0.467 0.379,-0.502c-0.191,-0.264 -0.423,-0.497 -0.643,-0.74c-0.109,0.126 -0.337,0.305 -0.308,0.367c0.122,0.271 0.319,0.506 0.572,0.875" id="path262"/>
     </g>
     <g id="g264">
      <path fill="#9fe250" fill-rule="nonzero" d="m191.840291,270.247105l-1.215,0c0.353,0.184 0.691,0.426 1.066,0.525c0.173,0.046 0.42,-0.186 0.634,-0.292c-0.228,-0.11 -0.456,-0.219 -0.485,-0.233" id="path266"/>
     </g>
     <g id="g268">
      <path fill="#9fe250" fill-rule="nonzero" d="m175.304189,273.139225c-0.476,0.204 -0.994,0.425 -1.511,0.647c0.046,0.034 0.102,0.104 0.138,0.095c0.656,-0.158 1.31,-0.325 1.964,-0.49c-0.158,-0.067 -0.316,-0.135 -0.591,-0.252" id="path270"/>
     </g>
     <g id="g272">
      <path fill="#9fe250" fill-rule="nonzero" d="m251.159703,266.701725c-0.544,-0.159 -0.803,-0.304 -1.048,-0.283c-0.162,0.013 -0.454,0.318 -0.425,0.398c0.077,0.213 0.272,0.411 0.47,0.535c0.063,0.039 0.284,-0.175 1.003,-0.65" id="path274"/>
     </g>
     <g id="g276">
      <path fill="#9fe250" fill-rule="nonzero" d="m229.539983,277.051823c-0.09,0.111 -0.154,0.189 -0.217,0.267c0.424,0.117 0.845,0.241 1.273,0.338c0.046,0.011 0.127,-0.132 0.191,-0.204c-0.399,-0.128 -0.798,-0.256 -1.247,-0.401" id="path278"/>
     </g>
     <g id="g280">
      <path fill="#9fe250" fill-rule="nonzero" d="m176.119588,209.26572c0.371,0.09 0.742,0.18 1.113,0.27c-0.348,-0.21 -0.677,-0.473 -1.053,-0.605c-0.159,-0.056 -0.414,0.163 -0.625,0.256l0.518,0.211c0.016,-0.044 0.031,-0.088 0.047,-0.132" id="path282"/>
     </g>
     <g id="g284">
      <path fill="#9fe250" fill-rule="nonzero" d="m117.940389,278.773014c-0.113,0.042 -0.222,0.083 -0.332,0.125c0.553,0.223 1.102,0.458 1.664,0.655c0.086,0.031 0.232,-0.111 0.351,-0.173c-0.557,-0.201 -1.114,-0.402 -1.683,-0.607" id="path286"/>
     </g>
     <g id="g288">
      <path fill="#9fe250" fill-rule="nonzero" d="m162.918492,207.359409c-0.412,-0.319 -0.8,-0.62 -1.187,-0.92c-0.048,0.097 -0.147,0.273 -0.136,0.279c0.382,0.251 0.771,0.489 1.168,0.715c0.034,0.019 0.123,-0.058 0.155,-0.074" id="path290"/>
     </g>
     <g id="g292">
      <path fill="#9fe250" fill-rule="nonzero" d="m171.601094,271.620213c-0.444,0.074 -0.804,0.135 -1.164,0.195c0.234,0.107 0.468,0.297 0.702,0.298c0.248,0.001 0.497,-0.178 0.746,-0.278c-0.111,-0.084 -0.222,-0.168 -0.284,-0.215" id="path294"/>
     </g>
     <g id="g296">
      <path fill="#9fe250" fill-rule="nonzero" d="m163.691899,212.89362l0,1.611c0.116,-0.516 0.232,-1.032 0.349,-1.549c-0.117,-0.02 -0.233,-0.041 -0.349,-0.062" id="path298"/>
     </g>
     <g id="g300">
      <path fill="#9fe250" fill-rule="nonzero" d="m262.010808,269.017612c0.235,0.126 0.4,0.292 0.515,0.262c0.257,-0.066 0.489,-0.229 0.731,-0.352c-0.11,-0.095 -0.242,-0.284 -0.326,-0.265c-0.28,0.063 -0.543,0.202 -0.92,0.355" id="path302"/>
     </g>
     <g id="g304">
      <path fill="#9fe250" fill-rule="nonzero" d="m119.055196,266.524509c-0.165,0.209 -0.26,0.33 -0.355,0.451c0.158,0.12 0.304,0.277 0.483,0.341c0.065,0.022 0.316,-0.234 0.299,-0.267c-0.087,-0.167 -0.235,-0.302 -0.427,-0.525" id="path306"/>
     </g>
     <g id="g308">
      <path fill="#9fe250" fill-rule="nonzero" d="m167.006398,237.063511c-0.304,-0.238 -0.578,-0.453 -0.853,-0.667c-0.052,0.101 -0.161,0.282 -0.149,0.291c0.254,0.176 0.518,0.342 0.793,0.484c0.044,0.023 0.151,-0.076 0.209,-0.108" id="path310"/>
     </g>
     <g id="g312">
      <path fill="#9fe250" fill-rule="nonzero" d="m230.525884,278.124607c-0.204,0.062 -0.407,0.124 -0.609,0.186c0.259,0.075 0.516,0.197 0.778,0.209c0.169,0.006 0.345,-0.15 0.518,-0.233c-0.221,-0.052 -0.441,-0.104 -0.687,-0.162" id="path314"/>
     </g>
     <g id="g316">
      <path fill="#9fe250" fill-rule="nonzero" d="m234.047887,272.771c-0.195,-0.161 -0.355,-0.357 -0.415,-0.331c-0.192,0.087 -0.348,0.255 -0.519,0.392c0.151,0.073 0.303,0.201 0.454,0.201c0.135,0 0.271,-0.14 0.48,-0.262" id="path318"/>
     </g>
     <g id="g320">
      <path fill="#9fe250" fill-rule="nonzero" d="m126.9204,279.501499c-0.206,0.09 -0.332,0.146 -0.458,0.201c0.254,0.107 0.503,0.231 0.767,0.309c0.062,0.018 0.17,-0.122 0.257,-0.189c-0.193,-0.11 -0.386,-0.219 -0.566,-0.321" id="path322"/>
     </g>
     <g id="g324">
      <path fill="#9fe250" fill-rule="nonzero" d="m162.922399,270.784702c-0.026,0.069 -0.096,0.159 -0.075,0.214c0.057,0.147 0.18,0.405 0.229,0.394c0.199,-0.042 0.379,-0.168 0.566,-0.264c-0.221,-0.105 -0.442,-0.211 -0.72,-0.344" id="path326"/>
     </g>
     <g id="g328">
      <path fill="#9fe250" fill-rule="nonzero" d="m258.351598,250.233524c-0.343,-0.053 -0.446,-0.103 -0.508,-0.072c-0.227,0.115 -0.441,0.258 -0.66,0.389c0.063,0.022 0.137,0.078 0.187,0.061c0.252,-0.085 0.498,-0.189 0.981,-0.378" id="path330"/>
     </g>
     <g id="g332">
      <path fill="#9fe250" fill-rule="nonzero" d="m239.16068,277.445408l1.085,0c-0.002,-0.058 -0.003,-0.168 -0.007,-0.168c-0.359,-0.008 -0.719,-0.007 -1.078,-0.007c0,0.058 0,0.117 0,0.175" id="path334"/>
     </g>
     <g id="g336">
      <path fill="#9fe250" fill-rule="nonzero" d="m246.147985,261.691013c-0.074,0.118 -0.172,0.253 -0.163,0.26c0.125,0.105 0.259,0.207 0.406,0.272c0.035,0.015 0.132,-0.107 0.199,-0.166c-0.133,-0.111 -0.267,-0.221 -0.442,-0.366" id="path338"/>
     </g>
     <g id="g340">
      <path fill="#9fe250" fill-rule="nonzero" d="m125.074193,279.559605c0.14,-0.043 0.245,-0.075 0.35,-0.107c-0.109,-0.063 -0.216,-0.171 -0.328,-0.178c-0.161,-0.01 -0.326,0.054 -0.49,0.086c0.157,0.066 0.313,0.133 0.468,0.199" id="path342"/>
     </g>
     <g id="g344">
      <path fill="#9fe250" fill-rule="nonzero" d="m184.221196,199.092808c-0.296,0.33 -0.592,0.66 -0.885,0.993c-0.003,0.004 0.036,0.044 0.056,0.067c0.341,-0.291 0.682,-0.582 1.022,-0.873l-0.193,-0.187z" id="path346"/>
     </g>
     <g id="g348">
      <path fill="#9fe250" fill-rule="nonzero" d="m243.445806,280.6861c-0.157,0.09 -0.273,0.156 -0.39,0.223c0.209,0.061 0.416,0.131 0.629,0.174c0.052,0.011 0.123,-0.068 0.185,-0.106c-0.136,-0.093 -0.272,-0.187 -0.424,-0.291" id="path350"/>
     </g>
     <g id="g352">
      <path fill="#9fe250" fill-rule="nonzero" d="m160.808599,222.6973l-0.015,-0.019c0.235,-0.014 0.471,-0.029 0.707,-0.043c-0.09,-0.142 -0.18,-0.284 -0.27,-0.425c-0.141,0.162 -0.281,0.325 -0.422,0.487" id="path354"/>
     </g>
     <g id="g356">
      <path fill="#9fe250" fill-rule="nonzero" d="m143.501988,278.78812c0.141,-0.059 0.272,-0.113 0.404,-0.167c-0.14,-0.041 -0.281,-0.116 -0.42,-0.112c-0.137,0.003 -0.273,0.086 -0.41,0.134c0.136,0.046 0.272,0.092 0.426,0.145" id="path358"/>
     </g>
     <g id="g360">
      <path fill="#9fe250" fill-rule="nonzero" d="m249.597692,227.137302c0.154,-0.11 0.272,-0.194 0.39,-0.278c-0.092,-0.048 -0.196,-0.151 -0.273,-0.133c-0.138,0.031 -0.26,0.134 -0.389,0.207c0.081,0.06 0.161,0.121 0.272,0.204" id="path362"/>
     </g>
     <g id="g364">
      <path fill="#9fe250" fill-rule="nonzero" d="m121.939488,279.695408c0.149,-0.054 0.056,-0.02 -0.037,0.014c0.067,0.038 0.144,0.12 0.2,0.107c0.3,-0.067 0.595,-0.157 0.892,-0.24c-0.265,0.03 -0.529,0.06 -1.055,0.119" id="path366"/>
     </g>
     <g id="g368">
      <path fill="#9fe250" fill-rule="nonzero" d="m159.958501,207.2486c-0.14,0.063 -0.286,0.13 -0.433,0.197c0.067,0.035 0.141,0.109 0.198,0.098c0.2,-0.04 0.394,-0.109 0.59,-0.168c-0.106,-0.038 -0.213,-0.076 -0.355,-0.127" id="path370"/>
     </g>
     <g id="g372">
      <path fill="#9fe250" fill-rule="nonzero" d="m248.460881,261.525425c-0.245,-0.162 -0.33,-0.245 -0.43,-0.269c-0.031,-0.007 -0.154,0.157 -0.139,0.219c0.021,0.086 0.124,0.194 0.208,0.21c0.08,0.015 0.181,-0.075 0.361,-0.16" id="path374"/>
     </g>
     <g id="g376">
      <path fill="#9fe250" fill-rule="nonzero" d="m248.141088,255.835514c-0.056,0.133 -0.142,0.292 -0.125,0.305c0.121,0.085 0.26,0.151 0.401,0.194c0.035,0.01 0.103,-0.09 0.155,-0.139c-0.133,-0.111 -0.265,-0.221 -0.431,-0.36" id="path378"/>
     </g>
     <g id="g380">
      <path fill="#9fe250" fill-rule="nonzero" d="m164.357396,211.326206c0.274,-0.095 0.56,-0.195 0.845,-0.294c-0.047,-0.018 -0.099,-0.059 -0.14,-0.049c-0.34,0.083 -0.678,0.176 -1.017,0.265c0.094,0.024 0.188,0.047 0.312,0.078" id="path382"/>
     </g>
     <g id="g384">
      <path fill="#9fe250" fill-rule="nonzero" d="m116.703099,279.376499l0.898,0.19c-0.022,-0.04 -0.035,-0.106 -0.066,-0.116c-0.262,-0.083 -0.526,-0.157 -0.79,-0.233c-0.014,0.053 -0.028,0.106 -0.042,0.159" id="path386"/>
     </g>
     <g id="g388">
      <path fill="#9fe250" fill-rule="nonzero" d="m246.498082,282.696323c0.505,-0.081 1.009,-0.16 1.513,-0.247c0.011,-0.002 0.008,-0.089 0.012,-0.136c-0.504,0.132 -1.008,0.264 -1.514,0.394c-0.002,-0.001 -0.011,-0.011 -0.011,-0.011" id="path390"/>
     </g>
     <g id="g392">
      <g id="g394"/>
      <g id="g406">
       <g opacity="0.199997" clip-path="url(#clipPath398)" id="g404">
        <g id="g402">
         <path fill="none" stroke="#000000" stroke-width="9" stroke-miterlimit="10" d="m233.350102,317.549412c70.794,-22.384 -51.562,-174.572 -13.397,-196.668" id="path400"/>
        </g>
       </g>
      </g>
     </g>
    </g>
   </g>
   <g id="g408">
    <g id="g410" clip-path="url(#clipPath414)">
     <g id="g416">
      <g id="g418"/>
      <g id="g430">
       <g opacity="0.199997" clip-path="url(#clipPath422)" id="g428">
        <g id="g426">
         <path fill="#ffffff" fill-rule="nonzero" d="m229.629888,251.059116c-5.822,19.863 -34.247,27.568 -52.397,9.419c-17.466,17.807 -46.575,10.444 -52.397,-9.419c-5.822,-19.863 14.041,-64.726 52.397,-75.685c38.356,10.959 58.219,55.822 52.397,75.685" id="path424"/>
        </g>
       </g>
      </g>
     </g>
     <g id="g432">
      <g id="g434"/>
      <g id="g446">
       <g opacity="0.199997" clip-path="url(#clipPath438)" id="g444">
        <g id="g442">
         <path fill="#000000" fill-rule="nonzero" d="m283.087895,268.194401c-10.227,34.893 -60.159,48.428 -92.043,16.546c-24.975,25.463 -63.501,21.626 -82.485,0.499c19.193,13.373 48.503,14.202 69.979,-4.035c2.389,-2.03 5.86,-2.061 8.257,-0.04c31.898,26.9 78.114,13.072 87.909,-20.346c7.245,-24.719 -8.16,-71.473 -41.712,-103.483c39.335,31.769 57.919,84.166 50.095,110.859" id="path440"/>
        </g>
       </g>
      </g>
     </g>
     <g id="g448">
      <path fill="#e1e1e1" fill-rule="nonzero" d="m342.330602,228.527409c-1.969,-8.967 -10.834,-14.641 -19.802,-12.672c-8.967,1.969 -14.64,10.835 -12.671,19.802c1.969,8.967 10.834,14.641 19.801,12.671c8.967,-1.968 14.641,-10.834 12.672,-19.801" id="path450"/>
     </g>
     <g id="g452">
      <path fill="#3a6670" fill-rule="nonzero" d="m336.465795,229.815006c-1.258,-5.729 -6.921,-9.353 -12.649,-8.095c-5.729,1.258 -9.353,6.921 -8.095,12.65c1.258,5.728 6.921,9.352 12.649,8.094c5.729,-1.257 9.353,-6.92 8.095,-12.649" id="path454"/>
     </g>
     <g id="g456">
      <path fill="none" stroke="#3a6670" stroke-width="9" stroke-miterlimit="10" d="m240.269506,316.447819c70.794,-22.384 -51.562,-174.572 -13.397,-196.668" id="path458"/>
     </g>
     <g id="g460">
      <path fill="none" stroke="#e5e5e5" stroke-width="8" stroke-miterlimit="10" d="m130.230992,280.93021c-11.147,-18.478 -25.839,-35.955 -41.527,-32.211" id="path462"/>
     </g>
     <g id="g464">
      <path fill="none" stroke="#e5e5e5" stroke-width="4" stroke-miterlimit="10" d="m135.525395,342.268101c11.323,-2.702 19.045,-13.428 8.683,-34.915c-3.506,-7.269 -8.279,-16.977 -13.977,-26.423" id="path466"/>
     </g>
     <g id="g468">
      <path fill="#e5e5e5" fill-rule="nonzero" d="m140.422399,341.099705c-0.712,-2.986 -3.71,-4.829 -6.697,-4.117c-2.986,0.713 -4.828,3.711 -4.116,6.698c0.712,2.985 3.711,4.829 6.697,4.116c2.986,-0.713 4.829,-3.711 4.116,-6.697" id="path470"/>
     </g>
     <g id="g472">
      <path fill="none" stroke="#e5e5e5" stroke-miterlimit="10" d="m140.422399,341.099705c-0.712,-2.986 -3.71,-4.829 -6.697,-4.117c-2.986,0.713 -4.828,3.711 -4.116,6.698c0.712,2.985 3.711,4.829 6.697,4.116c2.986,-0.713 4.829,-3.711 4.116,-6.697z" id="path474"/>
     </g>
     <g id="g476">
      <path fill="none" stroke="#e5e5e5" stroke-width="8" stroke-miterlimit="10" d="m66.196797,296.210514c1.603,-21.521 6.82,-43.748 22.507,-47.491" id="path478"/>
     </g>
     <g id="g480">
      <path fill="none" stroke="#e5e5e5" stroke-width="4" stroke-miterlimit="10" d="m89.169393,353.330112c-11.323,2.702 -23.057,-3.382 -23.513,-27.232c-0.154,-8.069 -0.279,-18.886 0.54,-29.888" id="path482"/>
     </g>
     <g id="g484">
      <path fill="#e5e5e5" fill-rule="nonzero" d="m84.271993,354.4986c-0.712,-2.986 1.13,-5.984 4.116,-6.697c2.987,-0.712 5.985,1.131 6.697,4.117c0.713,2.986 -1.13,5.984 -4.116,6.697c-2.986,0.712 -5.985,-1.131 -6.697,-4.117" id="path486"/>
     </g>
     <g id="g488">
      <path fill="none" stroke="#e5e5e5" stroke-miterlimit="10" d="m84.271993,354.4986c-0.712,-2.986 1.13,-5.984 4.116,-6.697c2.987,-0.712 5.985,1.131 6.697,4.117c0.713,2.986 -1.13,5.984 -4.116,6.697c-2.986,0.712 -5.985,-1.131 -6.697,-4.117z" id="path490"/>
     </g>
    </g>
   </g>
  </g>
 </g>
</svg>